<svg width="676" height="451" viewBox="0 0 676 451" fill="none" xmlns="http://www.w3.org/2000/svg">
<g opacity="0.9">
<path d="M591.842 405.2L71.8425 390.3C47.6425 389.6 27.7425 371.1 25.3425 347L0.24249 99C-2.55751 70.9 19.2425 46.4 47.4425 46L626.242 38C655.443 37.6 678.342 63.1 674.742 92.1L641.042 363C637.943 387.6 616.642 405.9 591.842 405.2Z" fill="#EAF9F3"/>
<mask id="mask0_301_4398" style="mask-type:alpha" maskUnits="userSpaceOnUse" x="0" y="37" width="676" height="369">
<path d="M591.842 405.2L71.8425 390.3C47.6425 389.6 27.7425 371.1 25.3425 347L0.24249 99C-2.55751 70.9 19.2425 46.4 47.4425 46L626.242 38C655.443 37.6 678.342 63.1 674.742 92.1L641.042 363C637.943 387.6 616.642 405.9 591.842 405.2Z" fill="#EAF9F3"/>
</mask>
<g mask="url(#mask0_301_4398)">
<path d="M167.442 450.2H-248.058C-256.358 450.2 -263.058 443.5 -263.058 435.2V199.6C-263.058 191.3 -256.358 184.6 -248.058 184.6H167.442C175.742 184.6 182.442 191.3 182.442 199.6V435.2C182.442 443.5 175.742 450.2 167.442 450.2Z" stroke="#B8D8C7" stroke-width="1.8" stroke-miterlimit="10" stroke-linecap="round" stroke-linejoin="round"/>
<path d="M716.542 434.4H297.442C289.142 434.4 282.442 427.7 282.442 419.4V75.1C282.442 66.8 289.142 60.1 297.442 60.1H716.542C724.842 60.1 731.542 66.8 731.542 75.1V419.4C731.542 427.7 724.842 434.4 716.542 434.4Z" stroke="#B8D8C7" stroke-width="1.8" stroke-miterlimit="10" stroke-linecap="round" stroke-linejoin="round"/>
<path d="M52.6424 184.6H32.3424C30.1424 184.6 28.3424 183 28.0424 180.8L26.4424 166.4C26.1424 163.9 28.1424 161.6 30.7424 161.6H54.2424C56.8424 161.6 58.7424 163.8 58.5424 166.4L56.9424 180.8C56.6424 182.9 54.8424 184.6 52.6424 184.6Z" stroke="#B8D8C7" stroke-width="1.8" stroke-miterlimit="10" stroke-linecap="round" stroke-linejoin="round"/>
<path d="M40.0424 161.6C40.0424 161.6 32.0424 160.8 30.4424 150C30.4424 150 37.6424 152.1 39.9424 157.2C39.9424 157.2 40.9424 145.8 46.3424 144.7C46.3424 144.7 48.7424 153.2 44.9424 157.4C44.9424 157.4 47.8424 152.6 55.2424 152.7C55.2424 152.7 53.3424 159.5 46.0424 161.5" fill="#B8D8C7"/>
<path d="M164.242 234.3H74.0423C71.7423 234.3 69.8423 232.4 69.8423 230.1V202.7C69.8423 200.4 71.7423 198.5 74.0423 198.5H164.242C166.542 198.5 168.442 200.4 168.442 202.7V230.1C168.542 232.4 166.642 234.3 164.242 234.3Z" stroke="#B8D8C7" stroke-width="1.8" stroke-miterlimit="10" stroke-linecap="round" stroke-linejoin="round"/>
<path d="M129.542 208.1H108.742C107.942 208.1 107.242 207.4 107.242 206.6C107.242 205.8 107.942 205.1 108.742 205.1H129.542C130.342 205.1 131.042 205.8 131.042 206.6C131.042 207.5 130.342 208.1 129.542 208.1Z" fill="#B8D8C7"/>
<path d="M164.242 280.1H74.0423C71.7423 280.1 69.8423 278.2 69.8423 275.9V248.5C69.8423 246.2 71.7423 244.3 74.0423 244.3H164.242C166.542 244.3 168.442 246.2 168.442 248.5V275.9C168.542 278.2 166.642 280.1 164.242 280.1Z" stroke="#B8D8C7" stroke-width="1.8" stroke-miterlimit="10" stroke-linecap="round" stroke-linejoin="round"/>
<path d="M129.542 253.9H108.742C107.942 253.9 107.242 253.2 107.242 252.4C107.242 251.6 107.942 250.9 108.742 250.9H129.542C130.342 250.9 131.042 251.6 131.042 252.4C131.042 253.3 130.342 253.9 129.542 253.9Z" fill="#B8D8C7"/>
<path d="M627.443 312.4H537.242C534.942 312.4 533.042 310.5 533.042 308.2V280.8C533.042 278.5 534.942 276.6 537.242 276.6H627.443C629.743 276.6 631.642 278.5 631.642 280.8V308.2C631.742 310.5 629.843 312.4 627.443 312.4Z" stroke="#B8D8C7" stroke-width="1.8" stroke-miterlimit="10" stroke-linecap="round" stroke-linejoin="round"/>
<path d="M592.742 286.3H571.942C571.142 286.3 570.442 285.6 570.442 284.8C570.442 284 571.142 283.3 571.942 283.3H592.742C593.542 283.3 594.242 284 594.242 284.8C594.242 285.6 593.542 286.3 592.742 286.3Z" fill="#B8D8C7"/>
<path d="M511.642 312.4H421.442C419.142 312.4 417.242 310.5 417.242 308.2V280.8C417.242 278.5 419.142 276.6 421.442 276.6H511.642C513.942 276.6 515.842 278.5 515.842 280.8V308.2C515.842 310.5 513.942 312.4 511.642 312.4Z" stroke="#B8D8C7" stroke-width="1.8" stroke-miterlimit="10" stroke-linecap="round" stroke-linejoin="round"/>
<path d="M476.942 286.3H456.142C455.342 286.3 454.642 285.6 454.642 284.8C454.642 284 455.342 283.3 456.142 283.3H476.942C477.742 283.3 478.442 284 478.442 284.8C478.442 285.6 477.742 286.3 476.942 286.3Z" fill="#B8D8C7"/>
<path d="M49.2423 234.3H-40.9577C-43.2577 234.3 -45.1577 232.4 -45.1577 230.1V202.7C-45.1577 200.4 -43.2577 198.5 -40.9577 198.5H49.2423C51.5423 198.5 53.4423 200.4 53.4423 202.7V230.1C53.5423 232.4 51.6423 234.3 49.2423 234.3Z" stroke="#B8D8C7" stroke-width="1.8" stroke-miterlimit="10" stroke-linecap="round" stroke-linejoin="round"/>
<path d="M14.5422 208.1H-6.25781C-7.05781 208.1 -7.75781 207.4 -7.75781 206.6C-7.75781 205.8 -7.05781 205.1 -6.25781 205.1H14.5422C15.3422 205.1 16.0422 205.8 16.0422 206.6C16.0422 207.5 15.4422 208.1 14.5422 208.1Z" fill="#B8D8C7"/>
<path d="M49.2423 280.1H-40.9577C-43.2577 280.1 -45.1577 278.2 -45.1577 275.9V248.5C-45.1577 246.2 -43.2577 244.3 -40.9577 244.3H49.2423C51.5423 244.3 53.4423 246.2 53.4423 248.5V275.9C53.5423 278.2 51.6423 280.1 49.2423 280.1Z" stroke="#B8D8C7" stroke-width="1.8" stroke-miterlimit="10" stroke-linecap="round" stroke-linejoin="round"/>
<path d="M14.5422 253.9H-6.25781C-7.05781 253.9 -7.75781 253.2 -7.75781 252.4C-7.75781 251.6 -7.05781 250.9 -6.25781 250.9H14.5422C15.3422 250.9 16.0422 251.6 16.0422 252.4C16.0422 253.3 15.4422 253.9 14.5422 253.9Z" fill="#B8D8C7"/>
<path d="M758.742 164.9H303.742C301.242 164.9 299.142 162.8 299.142 160.3V80.6C299.142 78.1 301.242 76 303.742 76H758.742C761.242 76 763.342 78.1 763.342 80.6V160.3C763.342 162.9 761.342 164.9 758.742 164.9Z" stroke="#B8D8C7" stroke-width="1.8" stroke-miterlimit="10" stroke-linecap="round" stroke-linejoin="round"/>
<path d="M758.742 263.9H303.742C301.242 263.9 299.142 261.8 299.142 259.3V179.6C299.142 177.1 301.242 175 303.742 175H758.742C761.242 175 763.342 177.1 763.342 179.6V259.3C763.342 261.8 761.342 263.9 758.742 263.9Z" stroke="#B8D8C7" stroke-width="1.8" stroke-miterlimit="10" stroke-linecap="round" stroke-linejoin="round"/>
<path d="M339.742 114.6H329.842V164.9H339.742V114.6Z" stroke="#B8D8C7" stroke-width="1.8" stroke-miterlimit="10" stroke-linecap="round" stroke-linejoin="round"/>
<path d="M349.942 128.3H339.642V164.9H349.942V128.3Z" stroke="#B8D8C7" stroke-width="1.8" stroke-miterlimit="10" stroke-linecap="round" stroke-linejoin="round"/>
<path d="M638.042 213.4H628.142V263.7H638.042V213.4Z" stroke="#B8D8C7" stroke-width="1.8" stroke-miterlimit="10" stroke-linecap="round" stroke-linejoin="round"/>
<path d="M648.342 227.1H638.042V263.7H648.342V227.1Z" stroke="#B8D8C7" stroke-width="1.8" stroke-miterlimit="10" stroke-linecap="round" stroke-linejoin="round"/>
<path d="M617.943 213.4H608.042V263.7H617.943V213.4Z" stroke="#B8D8C7" stroke-width="1.8" stroke-miterlimit="10" stroke-linecap="round" stroke-linejoin="round"/>
<path d="M608.187 215.274L598.747 212.294L583.601 260.26L593.042 263.241L608.187 215.274Z" stroke="#B8D8C7" stroke-width="1.8" stroke-miterlimit="10" stroke-linecap="round" stroke-linejoin="round"/>
<path d="M628.242 227.1H617.942V263.7H628.242V227.1Z" stroke="#B8D8C7" stroke-width="1.8" stroke-miterlimit="10" stroke-linecap="round" stroke-linejoin="round"/>
<path d="M504.542 114.6H494.642V164.9H504.542V114.6Z" stroke="#B8D8C7" stroke-width="1.8" stroke-miterlimit="10" stroke-linecap="round" stroke-linejoin="round"/>
<path d="M514.842 128.3H504.542V164.9H514.842V128.3Z" stroke="#B8D8C7" stroke-width="1.8" stroke-miterlimit="10" stroke-linecap="round" stroke-linejoin="round"/>
<path d="M406.742 114.6H396.842V164.9H406.742V114.6Z" stroke="#B8D8C7" stroke-width="1.8" stroke-miterlimit="10" stroke-linecap="round" stroke-linejoin="round"/>
<path d="M396.983 116.458L387.543 113.478L372.397 161.444L381.838 164.424L396.983 116.458Z" stroke="#B8D8C7" stroke-width="1.8" stroke-miterlimit="10" stroke-linecap="round" stroke-linejoin="round"/>
<path d="M417.042 128.3H406.742V164.9H417.042V128.3Z" stroke="#B8D8C7" stroke-width="1.8" stroke-miterlimit="10" stroke-linecap="round" stroke-linejoin="round"/>
<path d="M637.942 121.2L639.042 106.3C639.142 105.3 638.342 104.5 637.342 104.5H633.042H628.742C627.742 104.5 627.042 105.3 627.042 106.3L628.142 121.2C628.142 121.2 619.142 127 619.242 131.8C619.342 135.5 621.542 153.2 622.542 161C622.842 163.2 624.642 164.8 626.842 164.8H633.042H639.242C641.442 164.8 643.242 163.2 643.542 161C644.542 153.2 646.742 135.5 646.842 131.8C646.942 127 637.942 121.2 637.942 121.2Z" fill="#B8D8C7"/>
<path d="M598.042 121.2L599.142 106.3C599.242 105.3 598.442 104.5 597.442 104.5H593.142H588.842C587.842 104.5 587.142 105.3 587.142 106.3L588.242 121.2C588.242 121.2 579.242 127 579.342 131.8C579.442 135.5 581.642 153.2 582.642 161C582.942 163.2 584.742 164.8 586.942 164.8H593.142H599.342C601.542 164.8 603.342 163.2 603.642 161C604.642 153.2 606.842 135.5 606.942 131.8C607.042 127 598.042 121.2 598.042 121.2Z" fill="#B8D8C7"/>
<path d="M-1.25757 358.3H954.542" stroke="#B8D8C7" stroke-width="1.8" stroke-miterlimit="10" stroke-linecap="round" stroke-linejoin="round"/>
</g>
<path d="M342.942 270.9L341.642 277.2C341.142 279.8 338.742 281.8 336.042 281.8H323.142C320.442 281.8 318.142 279.9 317.542 277.2L316.242 270.9L329.542 270.3L342.942 270.9Z" fill="#22272E"/>
<path d="M333.042 278.7H325.842V382.7H333.042V278.7Z" fill="#22272E"/>
<path d="M332.942 389.3H326.042C324.942 389.3 323.942 388.4 323.942 387.2V367.5C323.942 366.4 324.842 365.4 326.042 365.4H332.942C334.042 365.4 335.042 366.3 335.042 367.5V387.2C334.942 388.3 334.042 389.3 332.942 389.3Z" fill="#22272E"/>
<path d="M330.242 383.3C330.242 383.3 322.942 389.2 319.042 411.3" stroke="#22272E" stroke-width="4" stroke-miterlimit="10" stroke-linecap="round" stroke-linejoin="round"/>
<path d="M327.642 384.6C327.642 384.6 305.642 379.3 293.642 405.4" stroke="#22272E" stroke-width="4" stroke-miterlimit="10" stroke-linecap="round" stroke-linejoin="round"/>
<path d="M331.442 384.1C331.442 384.1 351.142 380.6 363.542 408.6" stroke="#22272E" stroke-width="4" stroke-miterlimit="10" stroke-linecap="round" stroke-linejoin="round"/>
<path d="M293.642 414.3C298.558 414.3 302.542 410.315 302.542 405.4C302.542 400.485 298.558 396.5 293.642 396.5C288.727 396.5 284.742 400.485 284.742 405.4C284.742 410.315 288.727 414.3 293.642 414.3Z" fill="#6DAFA7"/>
<path d="M359.742 414.3C364.658 414.3 368.642 410.315 368.642 405.4C368.642 400.485 364.658 396.5 359.742 396.5C354.827 396.5 350.842 400.485 350.842 405.4C350.842 410.315 354.827 414.3 359.742 414.3Z" stroke="#22272E" stroke-width="1.8" stroke-miterlimit="10" stroke-linecap="round" stroke-linejoin="round"/>
<path d="M317.942 426.5C322.858 426.5 326.842 422.515 326.842 417.6C326.842 412.685 322.858 408.7 317.942 408.7C313.027 408.7 309.042 412.685 309.042 417.6C309.042 422.515 313.027 426.5 317.942 426.5Z" fill="#6DAFA7"/>
<path d="M329.642 272.8C363.277 272.8 390.542 267.427 390.542 260.8C390.542 254.173 363.277 248.8 329.642 248.8C296.008 248.8 268.742 254.173 268.742 260.8C268.742 267.427 296.008 272.8 329.642 272.8Z" fill="#FFE779"/>
<path d="M329.642 266.6C363.277 266.6 390.542 261.227 390.542 254.6C390.542 247.973 363.277 242.6 329.642 242.6C296.008 242.6 268.742 247.973 268.742 254.6C268.742 261.227 296.008 266.6 329.642 266.6Z" fill="#22272E"/>
<path d="M257.242 391.9C257.942 396.6 258.842 403.2 258.442 405.6C258.442 405.6 260.142 409.7 269.542 409.1C278.942 408.5 283.742 403.4 283.742 403.4C283.742 403.4 283.442 397.8 283.042 392.1C274.342 393.8 265.142 393.6 257.242 391.9Z" fill="#F4C2C9"/>
<path d="M256.442 387C256.442 387 256.842 389.1 257.242 392C265.142 393.7 274.342 393.9 283.142 392.2C282.842 386.6 282.542 380.9 282.542 379.7C282.442 377.2 255.242 379.5 256.442 387Z" fill="#E26E85"/>
<path d="M258.543 403.4C258.543 403.4 257.943 404.8 256.443 410.5C254.943 416.2 241.043 431.8 241.443 435.2C241.843 438.6 244.343 441.7 254.643 441.7C264.943 441.7 277.143 442.3 280.543 440.9C281.543 440.5 282.643 439.4 283.543 438.1C286.143 434.4 287.143 429.8 286.643 425.3C285.843 418 284.443 405.9 284.443 404.8C284.443 403.1 283.743 401.9 283.743 401.9C283.743 401.9 280.943 405.8 277.543 406.5C274.143 407.2 273.843 403 268.443 401.9C263.043 400.8 260.643 405.9 259.743 406.1C258.743 406.1 258.543 404.2 258.543 403.4Z" fill="#22272E"/>
<path d="M372.843 399.1C374.543 394 376.243 388.7 376.743 386.8C377.843 382.9 350.943 377.6 349.143 385.9L348.143 390.7C354.843 396.3 364.143 401.4 372.843 399.1Z" fill="#E26E85"/>
<path d="M348.142 390.7L345.042 405.3C345.042 405.3 346.643 408.2 353.943 410.4C361.243 412.6 369.142 410.4 369.142 410.4C369.142 410.4 370.942 404.8 372.842 399C364.142 401.4 354.842 396.3 348.142 390.7Z" fill="#F4C2C9"/>
<path d="M346.043 400.8C346.043 400.8 344.343 402.6 342.743 406.7C341.143 410.7 324.443 429.9 324.143 433.2C323.843 436.5 327.243 439.7 330.743 440.9C334.143 442 357.842 445.1 362.142 443.6C366.342 442.2 368.542 433.2 368.642 424C368.742 414.8 370.943 405.4 370.943 405.4C370.943 405.4 369.943 408 366.943 408.7C363.943 409.5 362.843 402.8 357.943 400.5C353.043 398.2 348.242 403.1 347.142 403.9C345.942 404.7 345.843 401.6 346.043 400.8Z" fill="#22272E"/>
<path d="M297.043 204.9C297.043 204.9 287.143 212.9 275.543 221.2C263.943 229.5 229.243 248.8 229.343 270.3C229.443 283.7 236.943 326.3 241.743 347.4C246.543 368.5 241.143 377.1 247.443 384.5C253.843 392 272.443 390 280.443 386.7C288.443 383.4 292.943 375.1 289.043 362.9C285.143 350.7 282.343 328.5 283.743 311.9C285.143 295.3 284.043 278.6 284.043 278.6C284.043 278.6 292.043 273.6 300.643 270.6C309.243 267.6 315.342 264.5 315.342 264.5C315.342 264.5 345.843 264.2 347.743 265.1C349.643 265.9 359.643 282.8 360.243 285.3C360.243 285.3 358.342 292 356.342 316.6C354.342 341.3 340.743 365.7 343.243 375.9C345.743 386.1 351.842 390.6 360.142 393.1C368.442 395.6 380.342 395.3 385.642 384C390.942 372.6 394.743 345.7 400.043 330.5C405.343 315.3 413.643 290 413.043 278.1C412.443 266.2 397.043 224.9 387.743 210.5C378.443 196.1 304.643 188.7 297.043 204.9Z" fill="#22272E"/>
<path d="M283.942 278.7C283.942 278.7 283.342 272 282.442 269.5" stroke="#63737A" stroke-width="1.8" stroke-miterlimit="10" stroke-linecap="round" stroke-linejoin="round"/>
<path d="M360.242 285.3C360.242 285.3 361.842 277.9 363.642 274" stroke="#63737A" stroke-width="1.8" stroke-miterlimit="10" stroke-linecap="round" stroke-linejoin="round"/>
<path d="M253.043 288.1C261.99 288.1 269.243 280.847 269.243 271.9C269.243 262.953 261.99 255.7 253.043 255.7C244.096 255.7 236.843 262.953 236.843 271.9C236.843 280.847 244.096 288.1 253.043 288.1Z" stroke="#63737A" stroke-width="1.8" stroke-miterlimit="10" stroke-linecap="round" stroke-linejoin="round"/>
<path d="M388.843 292.2C397.79 292.2 405.043 284.947 405.043 276C405.043 267.053 397.79 259.8 388.843 259.8C379.896 259.8 372.643 267.053 372.643 276C372.643 284.947 379.896 292.2 388.843 292.2Z" stroke="#63737A" stroke-width="1.8" stroke-miterlimit="10" stroke-linecap="round" stroke-linejoin="round"/>
<path d="M256.343 418.6C256.343 418.6 265.443 411.7 278.343 419.3" stroke="white" stroke-width="1.8" stroke-miterlimit="10" stroke-linecap="round" stroke-linejoin="round"/>
<path d="M253.042 425.3C253.042 425.3 262.142 418.4 275.042 426" stroke="white" stroke-width="1.8" stroke-miterlimit="10" stroke-linecap="round" stroke-linejoin="round"/>
<path d="M341.643 415.7C341.643 415.7 353.143 410.6 364.343 421.7" stroke="white" stroke-width="1.8" stroke-miterlimit="10" stroke-linecap="round" stroke-linejoin="round"/>
<path d="M338.242 422.2C338.242 422.2 349.742 417.1 360.942 428.2" stroke="white" stroke-width="1.8" stroke-miterlimit="10" stroke-linecap="round" stroke-linejoin="round"/>
<path d="M278.643 167.6C278.643 167.6 276.243 166.4 274.043 161.2C271.843 156 279.243 154.3 279.943 157.2C280.643 160 278.643 167.6 278.643 167.6Z" fill="#22272E"/>
<path d="M241.943 157.5C241.943 157.5 245.943 166.9 259.943 166.7C270.943 166.6 303.643 155.8 305.743 154.9C307.843 154 318.143 141.1 314.543 127.2C310.843 113.3 301.043 114.4 301.043 114.4C301.043 114.4 289.443 118.6 267.543 134C245.643 149.4 242.343 150.1 241.943 157.5Z" fill="#F4C2C9"/>
<path d="M275.043 147.4C275.043 147.4 278.043 158.6 278.643 167.6C278.643 167.6 306.643 157.9 309.043 155.9C311.343 153.9 316.643 135 312.143 125.6C307.643 116.2 301.543 112.7 301.543 112.7C301.543 112.7 289.343 119.1 276.443 127.9C263.443 136.8 275.043 147.4 275.043 147.4Z" fill="#6DAFA7"/>
<path d="M284.343 165.6C284.343 165.6 282.643 143.8 275.443 127.9" stroke="#22272E" stroke-width="1.8" stroke-miterlimit="10" stroke-linecap="round" stroke-linejoin="round"/>
<path d="M400.743 118.4C386.843 106.9 368.043 109.7 358.643 110.1C349.243 110.5 340.943 109.9 322.743 108.3C312.843 107.4 306.443 109.6 302.643 111.9C299.743 113.6 297.743 116.4 296.843 119.6C294.543 128.6 294.843 139 294.843 139C295.043 145.9 295.943 152.3 296.743 156.8C297.543 164.7 298.243 173.1 298.243 176.9C298.243 185.2 292.143 204.6 292.443 211.5C292.743 218.4 312.143 224.3 330.443 225.1C348.743 225.9 380.043 217.6 385.343 216.2C390.643 214.8 390.443 209.3 388.943 199.6C387.843 192.7 388.043 175.1 389.743 160.2C392.643 162.7 396.743 166.2 400.443 169.5C408.443 161.1 417.443 153.3 426.143 145.3C417.143 134.3 407.243 123.8 400.743 118.4Z" fill="#FFE779"/>
<path d="M328.342 120.6C328.342 120.6 328.142 132.4 341.242 133.2C354.342 134 364.542 120.5 362.542 111.4C360.642 102.4 328.342 107.3 328.342 120.6Z" fill="#F4C2C9"/>
<path d="M355.543 117.5C349.243 124.7 336.843 128.5 328.643 123.3C329.043 125.2 330.043 127.7 332.243 129.8C342.143 133.2 351.643 126.9 355.543 117.5Z" fill="#E26E85"/>
<path d="M319.042 81.1C319.042 81.1 320.142 89.2 319.042 100.3C317.942 111.4 325.242 125 337.142 126.8C349.942 128.8 362.142 121.7 365.742 99.7C369.442 77.7 364.442 64 348.042 62.7C331.642 61.4 318.942 63.4 319.042 81.1Z" fill="#F4C2C9"/>
<path d="M372.542 83.4C371.942 88.3 370.942 91.9 369.742 94.4C367.842 98.5 365.842 99.8 365.842 99.8L353.842 93.2C353.842 93.2 320.042 101.1 319.142 81.1C319.042 78.8 319.142 76.5 319.442 74.5C320.142 69.6 321.942 65.5 324.642 62.2C325.042 61.7 325.542 61.1 326.042 60.7C332.042 54.8 341.242 52.3 352.042 54C371.242 56.9 373.942 70.4 372.542 83.4Z" fill="#F4C2C9"/>
<path d="M339.542 62.5C327.442 62.7 318.142 66 319.042 81.1C319.042 81.1 319.142 82.2 319.342 84.1C321.742 80.5 327.042 80.7 330.142 77.9C334.742 74 338.142 68.7 339.542 62.5Z" fill="#E26E85"/>
<path d="M374.242 76.8C374.242 75.2 373.742 73.8 372.842 72.6C373.142 71.8 373.342 70.9 373.342 70C373.342 67.3 371.842 65 369.742 63.8C369.442 60.2 366.542 57.3 362.842 57.2C361.642 55 359.242 53.5 356.542 53.5C355.542 53.5 354.542 53.7 353.642 54.1C352.342 52.6 350.442 51.6 348.242 51.6C346.542 51.6 345.042 52.2 343.842 53.1C342.742 52.4 341.342 51.9 339.942 51.9C337.542 51.9 335.342 53.1 334.042 55C333.542 54.9 332.942 54.8 332.342 54.8C329.142 54.8 326.442 56.9 325.542 59.8C322.142 60.3 319.442 63.3 319.442 66.9C319.442 67.3 319.442 67.6 319.542 67.9C318.242 70.5 318.442 74.6 319.342 74.4C321.442 73.9 325.542 73.4 329.642 75.4C335.442 78.3 338.042 77.6 344.342 75.4C351.342 73 362.342 71.6 363.942 84C364.342 87.2 360.742 94.3 365.742 96.5C367.042 97.1 368.442 96.1 369.742 94.2C370.142 93.4 370.542 92.4 370.842 91.3C372.942 90 374.242 87.8 374.242 85.2C374.242 83.6 373.742 82.2 372.842 81C373.742 79.9 374.242 78.4 374.242 76.8Z" fill="#22272E"/>
<path d="M364.242 97.5C364.242 97.5 366.742 91.8 369.842 93.5C372.442 94.9 370.142 108 363.142 108.1" fill="#F4C2C9"/>
<path d="M335.642 93.5C336.142 94.9 336.342 96.4 336.142 98C336.042 98.8 335.942 99.5 335.642 100.3C335.342 101 335.142 101.6 334.842 102.3C334.642 102.9 334.442 103.6 334.442 104C334.442 104.4 334.742 105 335.142 105.4C335.942 106.3 337.242 106.9 338.742 106.8C337.442 107.6 335.542 107.5 334.242 106.5C333.542 106 332.942 105.2 332.842 104.2C332.742 103.2 333.042 102.4 333.242 101.7C333.542 101 333.842 100.3 334.142 99.7C334.442 99.1 334.642 98.5 334.842 97.8C335.142 96.4 335.342 95 335.642 93.5Z" fill="#22272E"/>
<path d="M337.242 113.5C337.242 113.5 341.842 112 345.342 115.5" stroke="#22272E" stroke-width="1.8" stroke-miterlimit="10" stroke-linecap="round" stroke-linejoin="round"/>
<path d="M324.342 87.5C325.642 87.2 326.842 86.2 329.542 86.1C331.342 86 332.442 86.1 332.642 84.8C332.842 83.8 331.642 82.5 329.642 82.5C325.742 82.5 320.742 88.4 324.342 87.5Z" fill="#22272E"/>
<path d="M355.342 88.9C354.042 88.5 353.042 87.4 350.342 87C348.542 86.7 347.442 86.7 347.442 85.4C347.342 84.3 348.642 83.2 350.642 83.4C354.342 83.8 358.842 90.1 355.342 88.9Z" fill="#22272E"/>
<path d="M329.542 97.4C330.442 97.4 331.242 96.7 331.342 95.8V94.8C331.342 93.9 330.642 93.1 329.742 93C328.842 93 328.042 93.7 327.942 94.6V95.6C327.842 96.6 328.642 97.4 329.542 97.4Z" fill="#22272E"/>
<path d="M349.142 98.2C350.042 98.2 350.842 97.5 350.942 96.6V95.6C350.942 94.7 350.242 93.9 349.342 93.8C348.442 93.8 347.642 94.5 347.542 95.4V96.4C347.442 97.3 348.142 98.1 349.142 98.2Z" fill="#22272E"/>
<path d="M368.542 98.4C368.142 98.3 367.742 98.3 367.642 98.5C367.542 98.6 367.443 98.9 367.443 99.2C367.343 99.5 367.342 99.8 367.342 100.2C367.342 100.6 367.242 100.9 367.242 101.3C367.142 102 366.942 102.8 366.542 103.6C366.342 104 365.842 104.5 365.342 104.6C364.842 104.7 364.442 104.5 364.042 104.3C364.442 104.1 364.843 104 364.943 103.8C365.143 103.6 365.142 103.4 365.142 103.1C365.242 102.5 365.242 101.8 365.342 101C365.442 100.6 365.442 100.2 365.542 99.9C365.642 99.5 365.742 99.1 366.042 98.7C366.242 98.3 366.642 97.9 367.342 97.8C368.042 97.6 368.342 98 368.542 98.4Z" fill="#22272E"/>
<path d="M308.443 99C308.443 99 303.943 102.8 295.943 117.2C289.543 128.8 284.043 146.1 276.243 155.8C274.443 158.1 272.443 160 270.243 161.2C268.843 162 267.143 162.8 265.443 163.4C253.643 167.3 236.943 164.3 241.443 146.6C245.943 129 276.243 107.4 286.143 91.8C296.043 76.2 308.743 93.2 308.443 99Z" fill="#F4C2C9"/>
<path d="M276.243 155.8C274.443 158.1 272.443 160 270.243 161.2C268.843 162 267.143 162.8 265.443 163.4" stroke="#E26E85" stroke-width="1.8" stroke-miterlimit="10" stroke-linecap="round" stroke-linejoin="round"/>
<path d="M309.442 67.9C309.442 67.9 314.842 65.3 316.742 64.4C318.642 63.5 323.042 62.6 324.642 62.1C326.342 61.7 326.442 64.2 323.742 66.6C321.042 69 316.242 75.5 312.942 76.2C309.742 77 307.842 69.9 309.442 67.9Z" fill="#E26E85"/>
<path d="M285.243 93.5C285.243 93.5 291.143 83.8 292.843 80.2C297.043 71.5 303.143 67.9 305.143 66.3C307.243 64.8 319.843 62.1 323.043 60.9C326.043 59.8 325.643 62.3 324.443 63.4C321.143 66.4 314.543 67.6 313.743 68.5C313.743 68.5 318.443 67.1 320.843 66.1C323.243 65.1 329.543 63.7 331.143 63.4C332.743 63.1 333.743 64.9 331.143 66.6C328.543 68.3 323.843 70.4 323.243 70.8C322.643 71.2 317.943 74.1 317.943 74.1C317.943 74.1 322.643 74.1 324.343 74C326.043 73.9 329.643 74.1 330.543 74.1C332.943 74.1 333.343 77.1 328.443 77.9C323.543 78.7 320.443 80 317.843 82.1C314.843 84.5 318.843 91.3 306.743 100.6C306.843 100.6 288.143 106.2 285.243 93.5Z" fill="#F4C2C9"/>
<path d="M317.943 74.1C317.943 74.1 317.343 74.2 316.143 74.7C314.943 75.2 313.243 76.8 313.243 76.8" stroke="#E26E85" stroke-width="1.8" stroke-miterlimit="10" stroke-linecap="round" stroke-linejoin="round"/>
<path d="M313.743 68.5C313.743 68.5 312.043 69 310.843 69.5C309.643 70 308.243 71.5 308.243 71.5" stroke="#E26E85" stroke-width="1.8" stroke-miterlimit="10" stroke-linecap="round" stroke-linejoin="round"/>
<path d="M286.742 90.7C289.242 90.6 297.842 91.5 302.342 106.3C302.442 106.7 302.442 107.1 302.142 107.4L298.242 113.3C298.142 113.4 298.042 113.4 297.942 113.3C297.242 111.1 292.842 97.8 282.542 96.9C282.142 96.9 281.942 96.4 282.142 96.1C283.042 94.8 284.842 92.3 285.642 91.3C285.942 90.9 286.342 90.7 286.742 90.7Z" fill="#22272E"/>
<path d="M295.148 98.4316C296.557 95.9924 295.837 92.9405 293.541 91.615C291.246 90.2895 288.243 91.1924 286.835 93.6316C285.426 96.0708 286.146 99.1227 288.441 100.448C290.737 101.774 293.74 100.871 295.148 98.4316Z" fill="white"/>
<path d="M403.943 177.9C403.943 177.9 408.743 176.6 417.643 166.1C426.543 155.6 410.643 165.7 409.743 166.1C408.743 166.5 403.943 177.9 403.943 177.9Z" fill="#22272E"/>
<path d="M448.843 179.1C446.043 171.3 436.543 157.9 426.243 145.4C417.543 153.4 408.543 161.2 400.543 169.6C405.943 174.4 410.743 178.6 410.743 178.6C409.343 179.3 406.743 180.7 404.043 182C408.743 189.7 412.143 198.5 412.743 207.3C422.043 207.5 432.543 207.7 437.443 205.7C446.243 202.2 454.143 193.8 448.843 179.1Z" fill="#F4C2C9"/>
<path d="M395.143 186.4C395.143 186.4 393.443 184 392.643 183.1C391.843 182.2 387.243 179.1 385.343 177.5C383.443 175.9 381.843 178.2 383.543 181C385.243 183.8 386.243 188.6 387.543 189.9C388.743 191.2 395.343 190 395.143 186.4Z" fill="#F4C2C9"/>
<path d="M429.943 149.9C429.943 149.9 413.943 161.5 403.943 178C403.943 178 386.943 161.6 383.843 156C380.743 150.3 381.043 134.6 388.243 125.6C395.443 116.5 401.743 119.3 401.743 119.3C401.743 119.3 417.243 132.4 429.943 149.9Z" fill="#6DAFA7"/>
<path d="M399.443 173.5C399.443 173.5 410.043 154.6 426.043 144.8" stroke="#22272E" stroke-width="1.8" stroke-miterlimit="10" stroke-linecap="round" stroke-linejoin="round"/>
<path d="M410.643 178.6C410.643 178.6 421.143 171.9 429.843 173.6" stroke="#E26E85" stroke-width="1.8" stroke-miterlimit="10" stroke-linecap="round" stroke-linejoin="round"/>
<path d="M344.343 161.1L389.143 154C391.143 153.7 392.943 155.4 392.643 157.4L385.243 207.9C385.043 209.1 384.143 210.1 382.943 210.4L339.043 221.1C337.043 221.6 335.143 220 335.343 217.9L339.343 166.4C339.543 163.7 341.543 161.5 344.343 161.1Z" fill="#22272E"/>
<path d="M357.743 157.9L357.443 161.6C357.443 162.1 357.943 162.5 358.643 162.4L376.443 159.2C377.243 159.1 377.843 158.5 377.843 157.9L378.043 155.2C378.043 154.7 377.543 154.3 376.943 154.4L359.243 156.6C358.443 156.7 357.843 157.3 357.743 157.9Z" fill="#6DAFA7"/>
<path d="M395.143 186.4C395.143 186.4 389.143 185 387.743 185.4C386.343 185.8 381.443 186.4 377.843 187.2C374.243 188 367.743 187.7 365.343 188.6C362.943 189.6 363.843 191.7 363.843 191.7C363.843 191.7 361.343 191.2 360.543 192.5C359.343 194.4 361.843 195.6 361.843 195.6C359.843 195 358.143 196.3 359.043 198.2C359.743 199.6 363.043 201.7 365.943 203.1C368.843 204.5 374.443 206.3 374.443 206.3C374.443 206.3 371.843 206 368.743 205.7C365.843 205.5 364.543 206.9 366.243 208.5C367.943 210 378.443 213.1 382.343 212.2C386.243 211.4 390.543 208.9 396.343 207.4C398.843 206.8 405.343 207 412.643 207.2C412.043 198.4 408.743 189.6 403.943 181.9C399.643 184.2 395.143 186.4 395.143 186.4Z" fill="#F4C2C9"/>
<path d="M361.843 195.7C361.843 195.7 366.943 197.9 371.143 199.3C375.343 200.7 379.843 200.5 381.043 201" stroke="#E26E85" stroke-width="1.8" stroke-miterlimit="10" stroke-linecap="round" stroke-linejoin="round"/>
<path d="M374.443 206.3C374.443 206.3 378.243 207.7 380.343 207" stroke="#E26E85" stroke-width="1.8" stroke-miterlimit="10" stroke-linecap="round" stroke-linejoin="round"/>
<path d="M363.943 191.7C363.943 191.7 368.743 193.5 372.043 193.9C375.343 194.3 380.743 194.3 381.443 194.3" stroke="#E26E85" stroke-width="1.8" stroke-miterlimit="10" stroke-linecap="round" stroke-linejoin="round"/>
<path d="M344.343 139.5C345.005 139.5 345.543 138.963 345.543 138.3C345.543 137.637 345.005 137.1 344.343 137.1C343.68 137.1 343.143 137.637 343.143 138.3C343.143 138.963 343.68 139.5 344.343 139.5Z" fill="#22272E"/>
<path d="M339.943 133.1C339.943 133.1 338.743 135.6 339.543 146.6" stroke="#22272E" stroke-width="1.8" stroke-miterlimit="10" stroke-linecap="round" stroke-linejoin="round"/>
<path d="M110.542 251.6L108.042 446.7C108.042 448.8 109.742 450.5 111.742 450.5C113.742 450.5 115.442 448.9 115.442 446.9L123.742 251.6H110.542Z" fill="#B8D8C7"/>
<path d="M559.442 251.6L561.942 446.7C561.942 448.8 560.242 450.5 558.242 450.5C556.242 450.5 554.542 448.9 554.542 446.9L546.242 251.6H559.442Z" fill="#B8D8C7"/>
<path d="M123.842 251.6H110.542L110.342 266.5H123.242L123.842 251.6Z" fill="#6DAFA7"/>
<path d="M559.442 251.6H546.142L546.742 266.5H559.642L559.442 251.6Z" fill="#6DAFA7"/>
<path d="M167.342 248L165.442 393.7C165.442 395.3 166.642 396.5 168.242 396.5C169.742 396.5 170.942 395.3 171.042 393.8L177.242 247.9H167.342V248Z" fill="#B8D8C7"/>
<path d="M502.542 248L504.442 393.7C504.442 395.3 503.242 396.5 501.642 396.5C500.142 396.5 498.942 395.3 498.842 393.8L492.642 247.9H502.542V248Z" fill="#B8D8C7"/>
<path d="M587.242 247.6H82.7424L143.742 210.5H526.242L587.242 247.6Z" fill="white"/>
<path d="M587.242 247.6H82.7424V255.6H587.242V247.6Z" fill="#B8D8C7"/>
<path d="M204.143 213L235.143 234.5L241.743 234.6L284.043 215.7L204.143 213Z" fill="#63737A"/>
<path d="M241.743 234.6L245.743 234.7C247.743 234.8 249.743 234.3 251.543 233.5L282.043 219C283.343 218.4 284.143 217.1 284.043 215.7H283.943L241.743 234.6Z" fill="#22272E"/>
<path d="M138.543 230.7L244.043 234.8C247.043 234.9 249.343 232.1 248.643 229.2L233.543 167.3C232.643 163.7 229.443 161.1 225.643 161L120.543 159.4C118.343 159.4 116.643 161.5 117.243 163.6L134.243 227.2C134.843 229.3 136.543 230.7 138.543 230.7Z" fill="#22272E"/>
<path d="M184.089 201.596C186.22 198.846 185.294 194.559 182.019 192.022C178.745 189.485 174.363 189.658 172.232 192.409C170.101 195.159 171.027 199.446 174.302 201.983C177.576 204.52 181.958 204.347 184.089 201.596Z" fill="#63737A"/>
<path d="M151.843 118L85.0426 116.8C83.8426 116.8 82.8426 115.9 82.5426 114.7L78.0426 93.2C77.7426 91.8 78.8426 90.6 80.2426 90.6L147.043 91.8C148.243 91.8 149.243 92.7 149.543 93.9L154.043 115.4C154.243 116.8 153.243 118 151.843 118Z" fill="#F4C2C9"/>
<path d="M98.0063 102.412C99.0235 101.247 98.6679 99.2722 97.212 98.0007C95.756 96.7292 93.7511 96.6426 92.7339 97.8074C91.7167 98.9721 92.0723 100.947 93.5283 102.219C94.9842 103.49 96.9891 103.577 98.0063 102.412Z" fill="#22272E"/>
<path d="M100.743 111L94.4425 110.9C93.0425 110.9 91.6425 109.7 91.3425 108.3C90.6425 105.2 92.7425 102.7 95.8425 102.8C98.9425 102.9 102.043 105.4 102.743 108.5C103.043 110 102.143 111.1 100.743 111Z" fill="#22272E"/>
<path d="M126.843 106.5L109.143 106.2C108.743 106.2 108.443 105.9 108.343 105.5L107.843 103.2C107.743 102.7 108.143 102.2 108.643 102.2L126.343 102.5C126.743 102.5 127.043 102.8 127.143 103.2L127.643 105.5C127.743 106 127.343 106.5 126.843 106.5Z" fill="#6DAFA7"/>
<path d="M133.843 101.2L142.243 108.3" stroke="#22272E" stroke-width="1.8" stroke-miterlimit="10" stroke-linecap="round" stroke-linejoin="round"/>
<path d="M140.843 101.3L135.243 108.1" stroke="#22272E" stroke-width="1.8" stroke-miterlimit="10" stroke-linecap="round" stroke-linejoin="round"/>
<path d="M220.443 153.6L153.643 152.4C152.443 152.4 151.443 151.5 151.143 150.3L146.643 128.8C146.343 127.4 147.443 126.2 148.843 126.2L215.643 127.4C216.843 127.4 217.843 128.3 218.143 129.5L222.643 151C222.843 152.4 221.743 153.7 220.443 153.6Z" fill="#FFE779"/>
<path d="M166.59 137.98C167.607 136.815 167.251 134.84 165.795 133.568C164.339 132.297 162.334 132.21 161.317 133.375C160.3 134.54 160.656 136.515 162.112 137.786C163.567 139.058 165.572 139.144 166.59 137.98Z" fill="#22272E"/>
<path d="M169.343 146.6L163.043 146.5C161.643 146.5 160.243 145.3 159.943 143.9C159.243 140.8 161.343 138.3 164.443 138.4C167.543 138.5 170.643 141 171.343 144.1C171.643 145.6 170.743 146.7 169.343 146.6Z" fill="#22272E"/>
<path d="M195.343 142.1L177.643 141.8C177.243 141.8 176.943 141.5 176.843 141.1L176.343 138.8C176.243 138.3 176.643 137.8 177.143 137.8L194.843 138.1C195.243 138.1 195.543 138.4 195.643 138.8L196.143 141.1C196.243 141.6 195.843 142.1 195.343 142.1Z" fill="#6DAFA7"/>
<path d="M202.343 136.8L210.843 143.9" stroke="#22272E" stroke-width="1.8" stroke-miterlimit="10" stroke-linecap="round" stroke-linejoin="round"/>
<path d="M209.343 136.9L203.843 143.7" stroke="#22272E" stroke-width="1.8" stroke-miterlimit="10" stroke-linecap="round" stroke-linejoin="round"/>
<path d="M96.6426 117L100.343 134.4C100.843 136.7 102.843 138.4 105.243 138.4L109.143 138.5" stroke="#22272E" stroke-width="1.8" stroke-miterlimit="10" stroke-linecap="round" stroke-linejoin="round"/>
<path d="M133.542 139L148.842 139.3" stroke="#22272E" stroke-width="1.8" stroke-miterlimit="10" stroke-linecap="round" stroke-linejoin="round"/>
<path d="M132.443 132.3L128.943 136C128.543 136.4 128.043 136.5 127.543 136.3C126.043 135.6 124.143 135.9 123.043 137.1L119.143 141.2C117.943 142.4 117.743 144.3 118.543 145.8C118.743 146.3 118.743 146.8 118.343 147.2L114.843 150.9C114.243 151.6 113.043 151.3 112.843 150.4L112.543 149C111.843 146.1 112.643 143 114.743 140.9L122.543 132.7C124.643 130.5 127.643 129.6 130.543 130.1L131.943 130.4C132.643 130.5 133.043 131.6 132.443 132.3Z" fill="#22272E"/>
<path d="M300.342 45.1C300.342 45.1 295.942 49.9 290.042 45.1C284.142 40.3 291.742 31.1 294.142 33.6C296.542 36.2 283.642 41 283.242 34.7C282.842 28.4 290.042 28 279.942 20.1" stroke="#6DAFA7" stroke-width="1.8" stroke-miterlimit="10" stroke-linecap="round" stroke-linejoin="round"/>
<path d="M333.642 35.3C333.642 35.3 340.342 32.9 337.942 27.5C335.542 22.1 329.342 27.5 333.642 27.5C337.942 27.5 341.042 22.9 338.442 16.6" stroke="#6DAFA7" stroke-width="1.8" stroke-miterlimit="10" stroke-linecap="round" stroke-linejoin="round"/>
<path d="M378.042 45.6C378.042 45.6 386.342 48.6 384.142 42.8C381.942 37.1 382.142 35 387.242 37.3C392.342 39.6 392.643 34.8 394.443 33.7" stroke="#6DAFA7" stroke-width="1.8" stroke-miterlimit="10" stroke-linecap="round" stroke-linejoin="round"/>
<path d="M421.743 82.6L418.343 86.2C417.843 86.8 417.843 87.6 418.343 88.2C418.843 88.7 419.643 88.8 420.243 88.5L424.143 86.1L421.743 82.6Z" fill="#22272E"/>
<path d="M451.943 91.3L452.842 96.1C452.942 96.9 452.542 97.6 451.742 97.8C451.042 98 450.342 97.7 450.042 97L448.042 92.9L451.943 91.3Z" fill="#22272E"/>
<path d="M440.843 95.5C453.269 95.5 463.343 85.4264 463.343 73C463.343 60.5736 453.269 50.5 440.843 50.5C428.416 50.5 418.343 60.5736 418.343 73C418.343 85.4264 428.416 95.5 440.843 95.5Z" fill="#6DAFA7"/>
<path d="M440.843 87.5C448.851 87.5 455.343 81.0081 455.343 73C455.343 64.9919 448.851 58.5 440.843 58.5C432.834 58.5 426.343 64.9919 426.343 73C426.343 81.0081 432.834 87.5 440.843 87.5Z" fill="#FFE779"/>
<path d="M444.943 78.2L440.843 73L442.943 65.8" stroke="#63737A" stroke-width="1.8" stroke-miterlimit="10" stroke-linecap="round" stroke-linejoin="round"/>
<path d="M426.443 51.2C425.843 51.4 425.043 51.1 424.943 50.4C424.443 47.4 426.143 44.4 429.043 43.3C431.943 42.2 435.243 43.3 436.843 45.9C437.243 46.5 436.943 47.3 436.243 47.5L426.443 51.2Z" fill="#6DAFA7"/>
<path d="M464.743 62.3C465.143 62.9 466.043 62.9 466.443 62.4C468.443 60.1 468.643 56.7 466.743 54.2C464.843 51.7 461.443 50.9 458.743 52.2C458.143 52.5 457.943 53.3 458.343 53.9L464.743 62.3Z" fill="#6DAFA7"/>
<path d="M451.042 48.8L445.142 47.1C444.142 46.8 443.642 45.8 443.942 44.8C444.242 43.8 445.242 43.3 446.242 43.6L452.142 45.3C453.142 45.6 453.642 46.6 453.342 47.6C453.042 48.6 452.042 49.1 451.042 48.8Z" fill="#6DAFA7"/>
<path d="M446.273 46.3269L444.655 51.8966L448.88 53.1242L450.498 47.5545L446.273 46.3269Z" fill="#6DAFA7"/>
<path d="M401.542 25.3H370.342L367.142 27.4C366.142 28.1 364.742 27.3 364.742 26.1V4.10001C364.742 1.90001 366.542 0 368.842 0H401.542C403.742 0 405.642 1.80001 405.642 4.10001V21.3C405.542 23.5 403.742 25.3 401.542 25.3Z" fill="#F4C2C9"/>
<path d="M384.843 10H395.743" stroke="#22272E" stroke-width="1.8" stroke-miterlimit="10" stroke-linecap="round" stroke-linejoin="round"/>
<path d="M384.843 15.7H391.443" stroke="#22272E" stroke-width="1.8" stroke-miterlimit="10" stroke-linecap="round" stroke-linejoin="round"/>
<path d="M379.142 10H373.542V15.6H379.142V10Z" stroke="#22272E" stroke-width="1.8" stroke-miterlimit="10" stroke-linecap="round" stroke-linejoin="round"/>
<path d="M412.542 222.1C410.542 224.6 407.542 227.1 403.142 227.8C402.542 227.9 402.043 228 401.443 228C392.243 228.7 385.542 222.1 385.542 222.1H412.542Z" fill="#6DAFA7"/>
<path d="M460.042 216.4C460.042 216.4 457.042 226.2 447.442 227.9C445.842 228.2 444.342 228.2 442.942 228.1H401.442C402.042 228.1 402.542 228 403.142 227.9C407.542 227.1 410.542 224.6 412.542 222.2C414.842 219.3 415.742 216.5 415.742 216.5H460.042V216.4Z" fill="#22272E"/>
<path d="M578.243 163.4L487.743 157.4C484.843 157.2 482.543 154.7 482.743 151.8L487.343 62.1C487.543 58.6 490.043 55.7 493.443 55.1L585.743 37.2C589.243 36.5 592.343 39.3 592.143 42.8L584.743 157.8C584.443 161.1 581.543 163.7 578.243 163.4Z" fill="#63737A"/>
<path d="M575.243 163.3L484.743 157.3C481.843 157.1 479.543 154.6 479.743 151.7L484.343 62C484.543 58.5 487.043 55.6 490.443 55L582.743 37.1C586.243 36.4 589.343 39.2 589.143 42.7L581.743 157.7C581.443 161 578.543 163.5 575.243 163.3Z" fill="#22272E"/>
<path d="M567.143 80.7L496.943 88.2C495.743 88.3 494.743 87.4 494.743 86.1L495.543 70.2C495.543 69.3 496.243 68.5 497.243 68.4L567.743 57.4C568.943 57.2 570.043 58.2 570.043 59.5L568.843 78.9C568.843 79.8 568.143 80.6 567.143 80.7Z" fill="#6DAFA7"/>
<path d="M508.343 66.7L507.243 87.1" stroke="#22272E" stroke-width="1.8" stroke-miterlimit="10" stroke-linecap="round" stroke-linejoin="round"/>
<path d="M499.243 73.7L504.243 81.8" stroke="#22272E" stroke-width="1.8" stroke-miterlimit="10" stroke-linecap="round" stroke-linejoin="round"/>
<path d="M504.743 72.9L498.743 82.5" stroke="#22272E" stroke-width="1.8" stroke-miterlimit="10" stroke-linecap="round" stroke-linejoin="round"/>
<path d="M514.143 73.1L560.543 66.7" stroke="#22272E" stroke-width="1.8" stroke-miterlimit="10" stroke-linecap="round" stroke-linejoin="round"/>
<path d="M513.843 79.1L538.843 75.9" stroke="#22272E" stroke-width="1.8" stroke-miterlimit="10" stroke-linecap="round" stroke-linejoin="round"/>
<path d="M565.043 113L495.443 115.7C494.243 115.7 493.343 114.8 493.443 113.6L494.243 97.8C494.343 96.8 495.043 96 496.043 95.9L566.043 89.7C567.243 89.6 568.243 90.6 568.143 91.8L566.943 111C566.843 112.2 566.043 113 565.043 113Z" fill="#F4C2C9"/>
<path d="M506.843 95.1L505.743 115.3" stroke="#22272E" stroke-width="1.8" stroke-miterlimit="10" stroke-linecap="round" stroke-linejoin="round"/>
<path d="M497.743 101.4L502.743 109.9" stroke="#22272E" stroke-width="1.8" stroke-miterlimit="10" stroke-linecap="round" stroke-linejoin="round"/>
<path d="M503.243 101L497.243 110.2" stroke="#22272E" stroke-width="1.8" stroke-miterlimit="10" stroke-linecap="round" stroke-linejoin="round"/>
<path d="M512.643 101.9L558.643 98.6" stroke="#22272E" stroke-width="1.8" stroke-miterlimit="10" stroke-linecap="round" stroke-linejoin="round"/>
<path d="M512.243 107.8L537.043 106.4" stroke="#22272E" stroke-width="1.8" stroke-miterlimit="10" stroke-linecap="round" stroke-linejoin="round"/>
<path d="M562.943 145.1L493.943 143.1C492.843 143.1 491.943 142.1 492.043 141L492.843 125.3C492.943 124.3 493.743 123.5 494.743 123.4L564.142 122C565.242 122 566.242 122.9 566.142 124.1L564.943 143.2C564.843 144.3 563.943 145.2 562.943 145.1Z" fill="#FFE779"/>
<path d="M505.343 123.3L504.243 143.4" stroke="#22272E" stroke-width="1.8" stroke-miterlimit="10" stroke-linecap="round" stroke-linejoin="round"/>
<path d="M496.243 129L501.243 137.7" stroke="#22272E" stroke-width="1.8" stroke-miterlimit="10" stroke-linecap="round" stroke-linejoin="round"/>
<path d="M501.743 128.9L495.843 137.6" stroke="#22272E" stroke-width="1.8" stroke-miterlimit="10" stroke-linecap="round" stroke-linejoin="round"/>
<path d="M511.043 130.5L556.743 130.4" stroke="#22272E" stroke-width="1.8" stroke-miterlimit="10" stroke-linecap="round" stroke-linejoin="round"/>
<path d="M510.743 136.3L535.343 136.6" stroke="#22272E" stroke-width="1.8" stroke-miterlimit="10" stroke-linecap="round" stroke-linejoin="round"/>
<path d="M177.042 105.4L162.742 37.8C162.442 36.3 163.542 34.9 165.142 34.9H232.442C234.342 34.9 236.042 36.3 236.342 38.2L247.542 106.5C247.742 108 246.642 109.3 245.142 109.3L180.942 108.5C178.942 108.5 177.442 107.2 177.042 105.4Z" fill="#B8D8C7"/>
<path d="M175.542 107L161.242 39.4C160.942 37.9 162.042 36.5 163.642 36.5H230.942C232.842 36.5 234.542 37.9 234.842 39.8L246.042 108.1C246.242 109.6 245.142 110.9 243.642 110.9L179.442 110.1C177.542 110.1 175.942 108.8 175.542 107Z" fill="#6DAFA7"/>
<path d="M183.243 101.6L171.343 45.2H226.943L236.243 102.2L183.243 101.6Z" stroke="#22272E" stroke-width="1.8" stroke-miterlimit="10" stroke-linecap="round" stroke-linejoin="round"/>
<path d="M187.742 45.2L199.742 101.8" stroke="#22272E" stroke-width="1.8" stroke-miterlimit="10" stroke-linecap="round" stroke-linejoin="round"/>
<path d="M174.343 59.5H228.943" stroke="#22272E" stroke-width="1.8" stroke-miterlimit="10" stroke-linecap="round" stroke-linejoin="round"/>
<path d="M177.242 73.3H231.342" stroke="#22272E" stroke-width="1.8" stroke-miterlimit="10" stroke-linecap="round" stroke-linejoin="round"/>
<path d="M180.542 87.3L233.942 88" stroke="#22272E" stroke-width="1.8" stroke-miterlimit="10" stroke-linecap="round" stroke-linejoin="round"/>
<path d="M197.343 52.2H218.643" stroke="#22272E" stroke-width="1.8" stroke-miterlimit="10" stroke-linecap="round" stroke-linejoin="round"/>
<path d="M200.143 66.4H221.443" stroke="#22272E" stroke-width="1.8" stroke-miterlimit="10" stroke-linecap="round" stroke-linejoin="round"/>
<path d="M203.343 80.3L224.643 80.6" stroke="#22272E" stroke-width="1.8" stroke-miterlimit="10" stroke-linecap="round" stroke-linejoin="round"/>
<path d="M206.343 94L226.843 94.5" stroke="#22272E" stroke-width="1.8" stroke-miterlimit="10" stroke-linecap="round" stroke-linejoin="round"/>
<path d="M177.143 48.8L185.943 55.5" stroke="#F4C2C9" stroke-width="1.8" stroke-miterlimit="10" stroke-linecap="round" stroke-linejoin="round"/>
<path d="M183.542 48.8L179.042 55.5" stroke="#F4C2C9" stroke-width="1.8" stroke-miterlimit="10" stroke-linecap="round" stroke-linejoin="round"/>
<path d="M182.742 77L191.542 83.6" stroke="#F4C2C9" stroke-width="1.8" stroke-miterlimit="10" stroke-linecap="round" stroke-linejoin="round"/>
<path d="M189.142 77L184.542 83.6" stroke="#F4C2C9" stroke-width="1.8" stroke-miterlimit="10" stroke-linecap="round" stroke-linejoin="round"/>
<path d="M185.942 90.9L194.742 97.6" stroke="#F4C2C9" stroke-width="1.8" stroke-miterlimit="10" stroke-linecap="round" stroke-linejoin="round"/>
<path d="M192.342 90.9L187.842 97.6" stroke="#F4C2C9" stroke-width="1.8" stroke-miterlimit="10" stroke-linecap="round" stroke-linejoin="round"/>
<path d="M180.542 65.6L183.542 68.7L187.842 63.1" stroke="#FFE779" stroke-width="1.8" stroke-miterlimit="10" stroke-linecap="round" stroke-linejoin="round"/>
<path d="M496.342 161.2C496.342 161.2 496.442 151.7 493.942 146.2C493.942 146.2 466.942 151.1 461.942 154C461.942 154 466.442 158.5 467.842 164C469.342 169.4 496.142 170.5 496.342 161.2Z" fill="white"/>
<path d="M497.142 168.1C497.142 168.1 498.842 150.8 499.642 147.2C499.642 147.2 477.742 149 469.542 153.7L471.742 172L497.142 168.1Z" fill="#F4C2C9"/>
<path d="M521.442 181.5C521.442 181.5 521.342 168.7 524.842 162.6C524.842 162.6 504.242 163 499.642 165.7C495.042 168.4 495.642 181.4 495.642 181.4C495.642 181.4 520.542 182.9 521.442 181.5Z" fill="white"/>
<path d="M524.842 175.9H502.142V238.4H524.842V175.9Z" fill="#6DAFA7"/>
<path d="M513.542 229.8C515.972 229.8 517.942 227.83 517.942 225.4C517.942 222.97 515.972 221 513.542 221C511.112 221 509.142 222.97 509.142 225.4C509.142 227.83 511.112 229.8 513.542 229.8Z" stroke="#22272E" stroke-width="1.8" stroke-miterlimit="10" stroke-linecap="round" stroke-linejoin="round"/>
<path d="M479.442 238.5V161.2L465.842 164.5V230.4L479.442 238.5Z" fill="#6DAFA7"/>
<path d="M502.142 161.2H479.442V238.5H502.142V161.2Z" fill="#FFE779"/>
<path d="M490.742 229.8C493.172 229.8 495.142 227.83 495.142 225.4C495.142 222.97 493.172 221 490.742 221C488.312 221 486.342 222.97 486.342 225.4C486.342 227.83 488.312 229.8 490.742 229.8Z" stroke="#22272E" stroke-width="1.8" stroke-miterlimit="10" stroke-linecap="round" stroke-linejoin="round"/>
<path d="M485.242 208.5H496.342" stroke="#22272E" stroke-width="1.8" stroke-miterlimit="10" stroke-linecap="round" stroke-linejoin="round"/>
<path d="M485.242 212.9H496.342" stroke="#22272E" stroke-width="1.8" stroke-miterlimit="10" stroke-linecap="round" stroke-linejoin="round"/>
</g>
</svg>
