<svg fill="none" height="570" viewBox="0 0 676 570" width="676" xmlns="http://www.w3.org/2000/svg" xmlns:xlink="http://www.w3.org/1999/xlink"><mask id="a" height="369" maskUnits="userSpaceOnUse" width="676" x="0" y="117"><path d="m591.843 485-520.0004-14.9c-24.2-.7-44.1-19.2-46.5-43.3l-25.099988-248c-2.800002-28.1 18.999988-52.6 47.199988-53l578.8004-8c29.2-.4 52.1 25.1 48.5 54.1l-33.7 270.9c-3.1 24.7-24.4 42.9-49.2 42.2z" fill="#eaf9f3"/></mask><g opacity=".9"><path d="m591.842 485-519.9995-14.9c-24.2-.7-44.1-19.2-46.5-43.3l-25.10001-248c-2.8-28.1 19.00001-52.6 47.20001-53l578.7995-8c29.201-.4 52.1 25.1 48.5 54.1l-33.7 270.9c-3.099 24.7-24.4 42.9-49.2 42.2z" fill="#eaf9f3"/><g mask="url(#a)"><path d="m167.443 530h-415.5c-8.3 0-15-6.7-15-15v-235.6c0-8.3 6.7-15 15-15h415.5c8.3 0 15 6.7 15 15v235.6c0 8.3-6.7 15-15 15z" stroke="#b8d8c7" stroke-linecap="round" stroke-linejoin="round" stroke-miterlimit="10" stroke-width="1.8"/><path d="m716.543 514.2h-419.1c-8.3 0-15-6.7-15-15v-344.3c0-8.3 6.7-15 15-15h419.1c8.3 0 15 6.7 15 15v344.3c0 8.3-6.7 15-15 15z" stroke="#b8d8c7" stroke-linecap="round" stroke-linejoin="round" stroke-miterlimit="10" stroke-width="1.8"/><path d="m67.8425 194h-89.9v-8.9h89.9c1 0 1.8.8 1.8 1.8v5.2c0 1.1-.8 1.9-1.8 1.9z" stroke="#b8d8c7" stroke-linecap="round" stroke-linejoin="round" stroke-miterlimit="10" stroke-width="1.8"/><path d="m51.5425 185.1h-20.3c-2.2 0-4-1.6-4.3-3.8l-1.6-14.4c-.3-2.5 1.7-4.8 4.3-4.8h23.5c2.6 0 4.5 2.2 4.3 4.8l-1.6 14.4c-.3 2.2-2.1 3.8-4.3 3.8z" stroke="#b8d8c7" stroke-linecap="round" stroke-linejoin="round" stroke-miterlimit="10" stroke-width="1.8"/><path d="m38.9425 162.2s-8-.8-9.6-11.6c0 0 7.2 2.1 9.5 7.2 0 0 1-11.4 6.4-12.5 0 0 2.4 8.5-1.4 12.7 0 0 2.9-4.8 10.3-4.7 0 0-1.9 6.8-9.2 8.8" fill="#b8d8c7"/><path d="m587.243 244.8h-20.3c-2.2 0-4-1.6-4.3-3.8l-1.6-14.4c-.3-2.5 1.7-4.8 4.3-4.8h23.5c2.6 0 4.5 2.2 4.3 4.8l-1.6 14.4c-.3 2.1-2.1 3.8-4.3 3.8z" stroke="#b8d8c7" stroke-linecap="round" stroke-linejoin="round" stroke-miterlimit="10" stroke-width="1.8"/><path d="m574.743 221.8s-8-.8-9.6-11.6c0 0 7.2 2.1 9.5 7.2 0 0 1-11.4 6.4-12.5 0 0 2.4 8.5-1.4 12.7 0 0 2.9-4.8 10.3-4.7 0 0-1.9 6.8-9.2 8.8" fill="#b8d8c7"/><path d="m164.243 314.1h-90.2005c-2.3 0-4.2-1.9-4.2-4.2v-27.4c0-2.3 1.9-4.2 4.2-4.2h90.2005c2.3 0 4.2 1.9 4.2 4.2v27.4c.1 2.3-1.8 4.2-4.2 4.2z" stroke="#b8d8c7" stroke-linecap="round" stroke-linejoin="round" stroke-miterlimit="10" stroke-width="1.8"/><path d="m129.543 288h-20.8c-.8 0-1.5-.7-1.5-1.5s.7-1.5 1.5-1.5h20.8c.8 0 1.5.7 1.5 1.5s-.7 1.5-1.5 1.5z" fill="#b8d8c7"/><path d="m164.243 359.9h-90.2005c-2.3 0-4.2-1.9-4.2-4.2v-27.4c0-2.3 1.9-4.2 4.2-4.2h90.2005c2.3 0 4.2 1.9 4.2 4.2v27.4c.1 2.3-1.8 4.2-4.2 4.2z" stroke="#b8d8c7" stroke-linecap="round" stroke-linejoin="round" stroke-miterlimit="10" stroke-width="1.8"/><path d="m129.543 333.8h-20.8c-.8 0-1.5-.7-1.5-1.5s.7-1.5 1.5-1.5h20.8c.8 0 1.5.7 1.5 1.5s-.7 1.5-1.5 1.5z" fill="#b8d8c7"/><path d="m627.443 392.3h-90.201c-2.3 0-4.2-1.9-4.2-4.2v-27.4c0-2.3 1.9-4.2 4.2-4.2h90.201c2.3 0 4.199 1.9 4.199 4.2v27.4c.1 2.3-1.799 4.2-4.199 4.2z" stroke="#b8d8c7" stroke-linecap="round" stroke-linejoin="round" stroke-miterlimit="10" stroke-width="1.8"/><path d="m592.742 366.1h-20.799c-.8 0-1.5-.7-1.5-1.5s.7-1.5 1.5-1.5h20.799c.8 0 1.5.7 1.5 1.5 0 .9-.7 1.5-1.5 1.5z" fill="#b8d8c7"/><path d="m511.642 392.3h-90.199c-2.3 0-4.201-1.9-4.201-4.2v-27.4c0-2.3 1.901-4.2 4.201-4.2h90.199c2.3 0 4.2 1.9 4.2 4.2v27.4c0 2.3-1.9 4.2-4.2 4.2z" stroke="#b8d8c7" stroke-linecap="round" stroke-linejoin="round" stroke-miterlimit="10" stroke-width="1.8"/><path d="m476.943 366.1h-20.801c-.8 0-1.5-.7-1.5-1.5s.7-1.5 1.5-1.5h20.801c.8 0 1.5.7 1.5 1.5 0 .9-.7 1.5-1.5 1.5z" fill="#b8d8c7"/><path d="m395.043 392.3h-90.201c-2.3 0-4.199-1.9-4.199-4.2v-27.4c0-2.3 1.899-4.2 4.199-4.2h90.201c2.3 0 4.2 1.9 4.2 4.2v27.4c.1 2.3-1.8 4.2-4.2 4.2z" stroke="#b8d8c7" stroke-linecap="round" stroke-linejoin="round" stroke-miterlimit="10" stroke-width="1.8"/><path d="m360.342 366.1h-20.8c-.8 0-1.5-.7-1.5-1.5s.7-1.5 1.5-1.5h20.8c.8 0 1.5.7 1.5 1.5 0 .9-.7 1.5-1.5 1.5z" fill="#b8d8c7"/><path d="m49.2425 314.1h-90.2c-2.3 0-4.2-1.9-4.2-4.2v-27.4c0-2.3 1.9-4.2 4.2-4.2h90.2c2.3 0 4.2 1.9 4.2 4.2v27.4c.1 2.3-1.8 4.2-4.2 4.2z" stroke="#b8d8c7" stroke-linecap="round" stroke-linejoin="round" stroke-miterlimit="10" stroke-width="1.8"/><path d="m14.5425 288h-20.80001c-.8 0-1.5-.7-1.5-1.5s.7-1.5 1.5-1.5h20.80001c.8 0 1.5.7 1.5 1.5s-.6 1.5-1.5 1.5z" fill="#b8d8c7"/><path d="m49.2425 359.9h-90.2c-2.3 0-4.2-1.9-4.2-4.2v-27.4c0-2.3 1.9-4.2 4.2-4.2h90.2c2.3 0 4.2 1.9 4.2 4.2v27.4c.1 2.3-1.8 4.2-4.2 4.2z" stroke="#b8d8c7" stroke-linecap="round" stroke-linejoin="round" stroke-miterlimit="10" stroke-width="1.8"/><path d="m14.5425 333.8h-20.80001c-.8 0-1.5-.7-1.5-1.5s.7-1.5 1.5-1.5h20.80001c.8 0 1.5.7 1.5 1.5s-.6 1.5-1.5 1.5z" fill="#b8d8c7"/><g stroke="#b8d8c7" stroke-linecap="round" stroke-linejoin="round" stroke-miterlimit="10" stroke-width="1.8"><path d="m758.743 244.8h-455c-2.5 0-4.6-2.1-4.6-4.6v-79.7c0-2.5 2.1-4.6 4.6-4.6h455c2.5 0 4.599 2.1 4.599 4.6v79.7c0 2.5-1.999 4.6-4.599 4.6z"/><path d="m758.743 343.7h-455c-2.5 0-4.6-2.1-4.6-4.6v-79.7c0-2.5 2.1-4.6 4.6-4.6h455c2.5 0 4.599 2.1 4.599 4.6v79.7c0 2.5-1.999 4.6-4.599 4.6z"/><path d="m339.742 194.4h-9.9v50.3h9.9z"/><path d="m349.943 208.2h-10.301v36.6h10.301z"/><path d="m638.042 293.3h-9.9v50.3h9.9z"/><path d="m648.342 307h-10.3v36.6h10.3z"/><path d="m617.943 293.3h-9.901v50.3h9.901z"/><path d="m608.199 295.076-9.441-2.981-15.145 47.966 9.44 2.981z"/><path d="m628.242 307h-10.299v36.6h10.299z"/><path d="m504.542 194.4h-9.9v50.3h9.9z"/><path d="m514.842 208.2h-10.3v36.6h10.3z"/><path d="m406.742 194.4h-9.9v50.3h9.9z"/><path d="m396.995 196.26-9.441-2.981-15.145 47.966 9.44 2.981z"/><path d="m417.042 208.2h-10.3v36.6h10.3z"/></g><path d="m637.943 201 1.1-14.9c.1-1-.7-1.8-1.7-1.8h-4.3-4.3c-1 0-1.7.8-1.7 1.8l1.099 14.9s-8.999 5.8-8.899 10.6c.1 3.7 2.3 21.4 3.3 29.2.3 2.2 2.1 3.8 4.3 3.8h6.2 6.2c2.2 0 4-1.6 4.3-3.8 1-7.8 3.2-25.5 3.3-29.2.1-4.8-8.9-10.6-8.9-10.6z" fill="#b8d8c7"/><path d="m537.742 300.1 1.1-14.9c.1-1-.7-1.8-1.7-1.8h-4.3-4.3c-1 0-1.7.8-1.7 1.8l1.1 14.9s-9 5.8-8.9 10.6c.1 3.7 2.3 21.4 3.3 29.2.3 2.2 2.1 3.8 4.3 3.8h6.2 6.2c2.2 0 4-1.6 4.3-3.8 1-7.8 3.2-25.5 3.3-29.2.1-4.8-8.9-10.6-8.9-10.6z" fill="#b8d8c7"/><path d="m-1.25751 448.1h955.79951" stroke="#b8d8c7" stroke-linecap="round" stroke-linejoin="round" stroke-miterlimit="10" stroke-width="1.8"/><path d="m106.842 264.4h-75.4995c-3.3 0-6.1-2.7-6.1-6.1v-15.8c0-3.3 2.7-6.1 6.1-6.1h75.4995c3.3 0 6.1 2.7 6.1 6.1v15.8c0 3.4-2.7 6.1-6.1 6.1z" stroke="#b8d8c7" stroke-linecap="round" stroke-linejoin="round" stroke-miterlimit="10" stroke-width="1.8"/><path d="m32.7425 241h.9" stroke="#b8d8c7" stroke-linecap="round" stroke-linejoin="round" stroke-miterlimit="10" stroke-width="1.8"/><path d="m98.7425 256.8h-59.2c0-2.8 2.2-5 5-5h49.1c2.8 0 5.1 2.2 5.1 5z" stroke="#b8d8c7" stroke-linecap="round" stroke-linejoin="round" stroke-miterlimit="10" stroke-width="1.8"/><path d="m90.4425 215h-42.6v21.5h42.6z" stroke="#b8d8c7" stroke-linecap="round" stroke-linejoin="round" stroke-miterlimit="10" stroke-width="1.8"/></g><path d="m412.943 309-39.401-15c-1.1-.4-1.8-1.5-1.8-2.7l63.201-9.2s7.8 13.1 7 13.4-29 13.5-29 13.5z" fill="#22272e"/><path d="m371.742 291.4 42.201 14.8 24.199-11.7s-5.3-11.9-5.9-11.8-60.5 8.7-60.5 8.7z" fill="#63737a"/><path d="m412.142 306.5 13.8-58.6c.7-2.8 3.2-4.9 6.1-5l63.3-1.7c1.6 0 2.9 1.5 2.4 3.1l-12.9 45c-.6 2.2-2.4 3.9-4.7 4.5l-65 15.6c-1.9.4-3.5-1.1-3-2.9z" fill="#22272e"/><path d="m465.91 272.654c.935-3.179.06-6.236-1.953-6.828-2.014-.592-4.404 1.506-5.338 4.685-.935 3.179-.06 6.236 1.954 6.828 2.013.592 4.403-1.506 5.337-4.685z" fill="#63737a"/><path d="m512.742 211.6-144.8-8.1c-3.7-.2-6.4-3.4-6.1-7.1l12.4-126.5c.4-4.2 3.8-7.4 7.9-7.8l151.8-11.6c4.1-.3 7.5 3.2 6.9 7.3l-19 146.3c-.6 4.4-4.5 7.7-9.1 7.5z" fill="#63737a"/><path d="m508.742 211.6-145.5-8.1c-3.7-.2-6.5-3.4-6.1-7.1l12.4-127.1c.4-4.2 3.8-7.5 8-7.8l152.5-11.7c4.1-.3 7.5 3.2 7 7.3l-19.099 147c-.7 4.4-4.701 7.7-9.201 7.5z" fill="#22272e"/><path d="m506.042 148.9-2.099 16.5-20.601-.4 1.9-16.2z" fill="#fff"/><path d="m464.642 148.7-1.9 15.9-21-.3 1.701-15.6z" fill="#f4c2c9"/><path d="m483.342 165-2 16.1-20.5-.7 1.9-15.8z" fill="#b8d8c7"/><path d="m400.642 77.2-17.1 1c-.6 0-1.099-.5-1.099-1.1l.299-2.9c.1-.8.8-1.5 1.6-1.6l17.2-1.1c.6 0 1.2.5 1.1 1.1l-.3 3c-.2.9-.8 1.5-1.7 1.6z" fill="#63737a"/><path d="m411.443 111.7-30.2.9c-1.2 0-2.201-1-2.101-2.3l1.601-15.8c.1-1.4 1.299-2.4 2.599-2.5l30.401-1.5c1.299-.1 2.299 1 2.099 2.3l-1.8 16.4c0 1.3-1.199 2.4-2.599 2.5z" fill="#b8d8c7"/><path d="m458.042 110.3-33.099 1c-1.2 0-2.201-1-2.101-2.3l1.8-16.7c.1-1.4 1.301-2.4 2.601-2.5l33.399-1.6c1.3-.1 2.301 1 2.101 2.3l-2 17.3c-.201 1.4-1.301 2.4-2.701 2.5z" fill="#ffe779"/><path d="m508.743 108.8-36.5 1.1c-1.3 0-2.201-1-2.101-2.3l2.101-17.6c.2-1.4 1.299-2.4 2.599-2.5l36.7-1.8c1.3-.1 2.3 1 2.1 2.3l-2.3 18.3c-.1 1.4-1.3 2.4-2.599 2.5z" fill="#f4c2c9"/><path d="m419.142 194.9 75.801 3.4c2.7.1 5.1-1.9 5.5-4.6l8.399-66.2c.4-3.2-2.099-6-5.299-5.9l-77.5 1.5c-2.7.1-4.901 2.1-5.201 4.7l-6.7 61.3c-.4 2.9 1.9 5.6 5 5.8z" stroke="#63737a" stroke-linecap="round" stroke-linejoin="round" stroke-miterlimit="10" stroke-width="1.8"/><path d="m420.142 133.2 88-.9" stroke="#63737a" stroke-linecap="round" stroke-linejoin="round" stroke-miterlimit="10" stroke-width="1.8"/><path d="m445.242 133.6-7.1 62.1" stroke="#63737a" stroke-linecap="round" stroke-linejoin="round" stroke-miterlimit="10" stroke-width="1.8"/><path d="m466.443 133.4-7.5 63.3" stroke="#63737a" stroke-linecap="round" stroke-linejoin="round" stroke-miterlimit="10" stroke-width="1.8"/><path d="m487.142 133.3-7.8 64.3" stroke="#63737a" stroke-linecap="round" stroke-linejoin="round" stroke-miterlimit="10" stroke-width="1.8"/><path d="m443.542 148.7 62.5.2" stroke="#63737a" stroke-linecap="round" stroke-linejoin="round" stroke-miterlimit="10" stroke-width="1.8"/><path d="m441.742 164.3 62.201 1.1" stroke="#63737a" stroke-linecap="round" stroke-linejoin="round" stroke-miterlimit="10" stroke-width="1.8"/><path d="m439.943 179.8 61.899 1.9" stroke="#63737a" stroke-linecap="round" stroke-linejoin="round" stroke-miterlimit="10" stroke-width="1.8"/><path d="m509.342 67.4c-.2 1.4-1.3 2.6-2.4 2.7-1.2.1-2-1-1.8-2.4s1.3-2.6 2.4-2.7c1.2 0 2 1 1.8 2.4z" fill="#63737a"/><path d="m499.542 68.1c-.2 1.4-1.2 2.6-2.4 2.6-1.2.1-2-1-1.8-2.4s1.2-2.6 2.4-2.6c1.2-.1 2 1 1.8 2.4z" fill="#63737a"/><path d="m489.943 68.7c-.2 1.4-1.201 2.5-2.401 2.6-1.1.1-1.899-1-1.799-2.3.2-1.4 1.199-2.5 2.399-2.6 1.2-.2 1.901.9 1.801 2.3z" fill="#63737a"/><path d="m201.743 191.4-93.3 7.4c-2.9.2-5.5-2.4-5.7-5.8l-5.5004-86.4c-.2-3.4 2.2999-6.5 5.2004-6.2l89.9 9c2.9.3 5.2 2.6 5.5 5.7l7.3 72.1c.4 2.1-1.2 4-3.4 4.2z" fill="#f8ab5d"/><path d="m206.243 190.6-94.4 7.5c-3 .2-5.6-2.4-5.8-5.8l-5.4-86.9c-.2-3.5 2.4-6.6 5.3-6.3l91 8.9c3 .3 5.2 2.6 5.6 5.7l7.4 72.5c.1 2.2-1.5 4.2-3.7 4.4z" fill="#ffe779"/><path d="m143.943 180.5-21.6 1c-1.5.1-2.9-1.3-3-3l-4-58.7c-.1-1.6 1.1-3.1 2.5-3l21.3 1.5c1.4.1 2.5 1.3 2.6 2.9l4.5 56.4c.1 1.5-1 2.8-2.3 2.9z" fill="#22272e"/><path d="m145.843 179.6-21.7 1.1c-1.5.1-2.9-1.3-3-3l-4-58.9c-.1-1.6 1.1-3.1 2.5-3l21.4 1.5c1.4.1 2.5 1.3 2.6 2.9l4.5 56.6c.1 1.4-1 2.7-2.3 2.8z" fill="#6dafa7"/><path d="m128.143 120.3 3.3.2" stroke="#22272e" stroke-linecap="round" stroke-linejoin="round" stroke-miterlimit="10" stroke-width="1.8"/><path d="m133.243 120.6h.3" stroke="#22272e" stroke-linecap="round" stroke-linejoin="round" stroke-miterlimit="10" stroke-width="1.8"/><path d="m117.443 123.4 26.6 1.5" stroke="#22272e" stroke-linecap="round" stroke-linejoin="round" stroke-miterlimit="10" stroke-width="1.8"/><path d="m120.843 173.1 26.9-.9" stroke="#22272e" stroke-linecap="round" stroke-linejoin="round" stroke-miterlimit="10" stroke-width="1.8"/><path d="m189.342 121.3-21-1.6c-1.3-.1-2.299 1-2.199 2.2l.699 8.2c.1 1 .9 1.9 2 1.9l21 .8c1.3.1 2.301-1 2.201-2.3l-.701-7.4c-.2-.9-1-1.7-2-1.8z" fill="#6dafa7"/><path d="m173.343 142.3c.1 1.4-1 2.5-2.5 2.5s-2.9-1.2-3-2.6 1-2.5 2.6-2.5c1.5.1 2.8 1.2 2.9 2.6z" fill="#6dafa7"/><path d="m177.943 142.4 14.3.2" stroke="#63737a" stroke-linecap="round" stroke-linejoin="round" stroke-miterlimit="10" stroke-width="1.8"/><path d="m174.143 151.1c.1 1.4-1 2.5-2.5 2.6-1.5 0-2.9-1.1-3-2.5s1-2.6 2.6-2.6c1.4 0 2.8 1.1 2.9 2.5z" fill="#6dafa7"/><path d="m178.743 151 14.2-.2" stroke="#63737a" stroke-linecap="round" stroke-linejoin="round" stroke-miterlimit="10" stroke-width="1.8"/><path d="m174.943 159.8c.1 1.4-1 2.5-2.5 2.6s-2.9-1-3-2.4 1-2.6 2.6-2.6c1.4-.1 2.7 1 2.9 2.4z" fill="#6dafa7"/><path d="m179.443 159.6 14.2-.6" stroke="#63737a" stroke-linecap="round" stroke-linejoin="round" stroke-miterlimit="10" stroke-width="1.8"/><path d="m158.943 255.1c-1.3 0 4.5-13.8 10.5-11.9 6.1 2-2.9 12-10.5 11.9z" fill="#6dafa7"/><path d="m159.643 257s-6.5-8.2-13-6.3c-6.4 1.9 1.6 11.1 13 6.3z" fill="#6dafa7"/><path d="m157.743 248.8s9.7-16.7 5.6-20.7c-7.3-7.1-16.5 13.9-5.6 20.7z" fill="#6dafa7"/><path d="m173.942 286.8-14.199 3.2c-4 .9-8-1.2-9.6-5l-6.5-15.6c-1.3-3 .499-6.5 3.699-7.2l25.801-5.8c3.2-.7 6.3 1.6 6.399 4.9l.8 16.8c.4 4.2-2.4 7.8-6.4 8.7z" fill="#22272e"/><path d="m160.542 260.5s-4.499-13.7-2.799-20.1" stroke="#22272e" stroke-linecap="round" stroke-linejoin="round" stroke-miterlimit="10" stroke-width="1.8"/><path d="m211.142 317.1s-.6 6.9-2.2 11-4.4 9.1-3.5 16 7.5 17 10.1 16.7 1.2-4.7 1.2-4.7 2.6 3.7 5.1 2.6c2.5-1-.9-9.1-.9-9.1s3.1 5 5.9 4.4-2.8-8.5-2.8-8.5 3.7 4.1 4.7 3.5 1.9-.3 0-5 1.2-20 1.1-23.5c-.1-3.4-13.7-6.6-18.7-3.4z" fill="#f4c2c9"/><path d="m248.242 331 19.5 40.8c.8 1.6.1 3.5-1.5 4.3l-57.9 29.2c-1.7.9-3.8.1-4.5-1.7l-21.7-55.8c-.7-1.8.4-3.9 2.3-4.3l60.1-14.2c1.5-.4 3.1.3 3.7 1.7z" fill="#ffe779"/><path d="m220.742 376.5 3.2 7.7c.4 1 0 2.1-1 2.5l-8.2 3.7c-1 .5-2.2 0-2.6-1l-3.3-8.1c-.4-1 .1-2.1 1.1-2.5l8.2-3.3c1-.4 2.1.1 2.6 1z" fill="#6dafa7"/><path d="m204.442 370.4-8.2-20.3" stroke="#63737a" stroke-linecap="round" stroke-linejoin="round" stroke-miterlimit="10" stroke-width="1.8"/><path d="m210.542 368.2-8.2-19.8" stroke="#63737a" stroke-linecap="round" stroke-linejoin="round" stroke-miterlimit="10" stroke-width="1.8"/><path d="m239.042 369.1 3 6.8c.4 1 0 2.1-1 2.5l-6.4 2.9c-1 .4-2.1 0-2.6-1l-3.1-7.1c-.4-1 0-2.1 1-2.6l6.5-2.6c1.1-.3 2.2.2 2.6 1.1z" fill="#f4c2c9"/><path d="m224.642 363.1-8-18.6" stroke="#63737a" stroke-linecap="round" stroke-linejoin="round" stroke-miterlimit="10" stroke-width="1.8"/><path d="m229.842 361.2-8-18.1" stroke="#63737a" stroke-linecap="round" stroke-linejoin="round" stroke-miterlimit="10" stroke-width="1.8"/><path d="m254.042 361.1 4.4 9.4-8.5 3.9-4.5-9.8z" stroke="#22272e" stroke-linecap="round" stroke-linejoin="round" stroke-miterlimit="10" stroke-width="1.8"/><path d="m241.942 356.9-7.8-17.1" stroke="#63737a" stroke-linecap="round" stroke-linejoin="round" stroke-miterlimit="10" stroke-width="1.8"/><path d="m246.342 355.3-7.7-16.7" stroke="#63737a" stroke-linecap="round" stroke-linejoin="round" stroke-miterlimit="10" stroke-width="1.8"/><path d="m230.642 319.4s.1 3.2 1.6 9.1 2.1 12.9 2.2 15.6-4 1.8-6.3-2.4-3.4-5.4-5.4-6.5c-2.1-1.2-3.8-2.3-5-6s9.5-13.9 12.9-9.8z" fill="#f4c2c9"/><path d="m263.342 153.6c-5.7 0-21.1 2.2-34.3 31.7-11 24.5-17.4 38.2-19 49.3-1.6 11.2-2.9 37.6-1.8 57 1.2 19.4 2 27.6 2 27.6s9 5.9 20.9 0c0 0 3.1-23.8 5.5-37.8 2.3-14 3.3-28.1 2.7-34.4 0 0 15.7-27.6 22.7-38.6 7.2-11 33.5-54.8 1.3-54.8z" fill="#6dafa7"/><path d="m209.642 311.7s10.5 5.7 22.5 0" stroke="#22272e" stroke-linecap="round" stroke-linejoin="round" stroke-miterlimit="10" stroke-width="1.8"/><path d="m210.442 231.9c.8-2 2.7-4.7 7-5.4 6.8-1 10.6 5.9 9 14.1s-7.8 12.3-12.8 11.4c-2.7-.5-4-2.4-4.5-3.7" stroke="#22272e" stroke-linecap="round" stroke-linejoin="round" stroke-miterlimit="10" stroke-width="1.8"/><path d="m340.042 545.8s.4-6.1 5.8-10c5.4-3.8 11.6 3.2-2.5 8.9" stroke="#63737a" stroke-linecap="round" stroke-linejoin="round" stroke-miterlimit="10" stroke-width="1.8"/><path d="m345.342 543.9s5.8-2.7 8.8.7c2.9 3.4-5.5 5.7-10 2.7" stroke="#63737a" stroke-linecap="round" stroke-linejoin="round" stroke-miterlimit="10" stroke-width="1.8"/><path d="m253.243 545.8s8.5-9.9 15.9-10c7.3 0-1 8.2-10.3 11.1" stroke="#63737a" stroke-linecap="round" stroke-linejoin="round" stroke-miterlimit="10" stroke-width="1.8"/><path d="m259.643 545.8s10.399-4 11.699 0-11 2.9-11 2.9" stroke="#63737a" stroke-linecap="round" stroke-linejoin="round" stroke-miterlimit="10" stroke-width="1.8"/><path d="m315.043 519.8s-.4 17.8 0 22.7 9.4 8 16.6 5.7 7.4-7 7.4-7 1.599-21.5 1.599-25.6-25.499-3.9-25.599 4.2z" fill="#f4c2c9"/><path d="m315.043 519.8s-.1 4.3-.1 9.3c8.1 3.1 18 2.1 25 .9.4-6 .8-12.5.8-14.6-.1-4-25.6-3.7-25.7 4.4z" fill="#22272e"/><path d="m314.842 539.5s-1.4-.2-2.8 10.4-2.499 17 1.701 17.8 44.099 0 48.399 0 7.2-2.3 7-5.1-11-7.2-16-11.2c-5.1-3.9-12.3-8.8-13.1-11.5-1.4-4.5-4.2-6.2-6.6-.4-1.9 4.5-6.9 5-13.1 4.2-4.4-.5-5.5-4.2-5.5-4.2z" fill="#22272e"/><path d="m354.643 552.5s-8.3 1.8-7.1 12.1" stroke="#63737a" stroke-linecap="round" stroke-linejoin="round" stroke-miterlimit="10" stroke-width="1.8"/><path d="m233.543 516.4s-2.2 22.1-2 25.1c.2 2.9 9.8 3.9 16 3.1 6.3-.8 7-2.7 7-2.7s4.9-20.7 4.9-25.4-23.9-5.9-25.9-.1z" fill="#f4c2c9"/><path d="m233.543 516.4s-.4 3.9-.8 8.7c8.1 3.8 16.4 4.1 24.9 3.4 1-5 1.9-10 1.9-12 .1-4.8-24-5.9-26-.1z" fill="#22272e"/><path d="m231.643 535.8s-1.7 5.3-2.3 10-4.9 20.1-2 22.3 44.4 0 48 0c3.5 0 8.1-2.2 7.6-6.1s-8.2-5.5-13.8-9.4-12.8-11.1-12.8-11.1 1.2-6 .2-7.7-4.1 5.1-6.3 5.9-6.9 1.5-14.4 0c-3.6-.8-4.2-3.9-4.2-3.9z" fill="#22272e"/><path d="m269.143 552.5s-7 2.4-7.9 12.1" stroke="#63737a" stroke-linecap="round" stroke-linejoin="round" stroke-miterlimit="10" stroke-width="1.8"/><path d="m338.143 273s3.5 12.1 5.5 37.2 4.7 70.9 5.5 79.9.8 32.9-1.6 61.8c-2.3 29-1.2 52.8-.4 58.3s-3.1 10.2-7 11.7c-3.9 1.6-21.5 1.6-25.1 0 0 0-8.6-4.7-7.4-12.9s1.6-24.7-2.3-55.2 0-52.5 0-52.5-4.5-13.8-9.6-28.1c-1.8-5.1-3.7-10.3-5.4-15-2.5-6.7-4.8-12.1-6.2-14.5-5.1-8.6-9-46.2-3.1-65.8 5.8-19.4 47.3-19.4 57.1-4.9z" fill="#22272e"/><path d="m246.543 271.8s-10.2 27.4-7.4 58.7 8.6 67.7 7.4 70.5c-1.2 2.7-5.5 16.8-9.8 48.1s-13.7 55.2-11.4 61.1 8.8 9 10.5 9.4 19.7 2.3 24 1.6c4.3-.8 11-7.8 11-16s.8-25.8 9-54 11.1-36.5 14-49.4 5.6-81.3 5.6-81.3 7.3-34.1-15.9-41.1c-23.2-7.2-37-7.6-37-7.6z" fill="#22272e"/><g stroke-linecap="round" stroke-linejoin="round" stroke-miterlimit="10" stroke-width="1.8"><path d="m268.843 342.5s16.3-2.6 22.2 1.6" stroke="#63737a"/><path d="m245.942 296.5s9.9 3.5 26.9 5.2c0 0-1.8 17.6-2.9 21.3-1.2 3.7-8.599 6.9-14.199 6.9-5.2 0-10.901-5.7-12.101-9.9-1.5-5.7 2.3-23.5 2.3-23.5z" stroke="#63737a"/><path d="m292.042 301.9s16.8 1.8 29.3-2.8c0 0 1.9 18.9 1.6 22s-7.3 8.9-12.5 10.1c-4.4 1-11.6-2.3-15-5.3s-3.4-24-3.4-24z" stroke="#63737a"/><path d="m344.642 325s-7.899-4.8-8.699-26" stroke="#63737a"/><path d="m295.642 373.3c-1.8-5.1-3.7-10.3-5.4-15-2.5-6.7-4.8-12.1-6.2-14.5" stroke="#63737a"/><path d="m255.443 399.9s12.099-2.7 19.399 0" stroke="#63737a"/><path d="m305.243 401.4s6-2.4 12.2-1.4" stroke="#63737a"/><path d="m237.143 523.1s-.4 3.5-.4 4.3" stroke="#63737a"/><path d="m244.842 524.8s-.199 3.7-.399 4.4" stroke="#63737a"/><path d="m254.642 525.2s-.5 3.5-.6 4" stroke="#63737a"/><path d="m318.743 526.3v4.7" stroke="#63737a"/><path d="m327.743 526.6s-.3 4-.6 4.9" stroke="#63737a"/><path d="m336.842 526.6s-.2 3-.3 4.3" stroke="#63737a"/><path d="m315.642 121.1c3.977 0 7.2-3.895 7.2-8.7s-3.223-8.7-7.2-8.7c-3.976 0-7.2 3.895-7.2 8.7s3.224 8.7 7.2 8.7z" stroke="#22272e"/></g><path d="m315.542 92.8s2.6 4.6 1.8 14.5c-.9 10 1.4 18.1.2 24.6-1.3 6.6-6.5 9.8-9.3 10.6-2.7.8-16.7 2.7-23.6-6.5s-13.2-36.3-2-41.5c11.2-5.1 28.2-7 32.9-1.7z" fill="#f4c2c9"/><path d="m317.442 131.9c1.3-6.6-1.1-14.6-.2-24.6s-1.8-14.5-1.8-14.5c-4.7-5.3-21.6-3.4-32.9 1.8-8.5 3.9-6.9 20.4-2.7 32.1 8.1 9 19.7 14.7 32.1 12.8.3 0 .7 0 1.3-.1 1.9-1.7 3.6-4.1 4.2-7.5z" fill="#f4c2c9"/><path d="m279.942 126.7c1.4 3.8 3 7.1 4.7 9.4 6.9 9.2 20.8 7.2 23.6 6.5 1.3-.4 3.3-1.4 5.1-3-.6-.1-11.2 6.6-33.4-12.9z" fill="#e26e85"/><path d="m310.842 112.3 12-.4" stroke="#22272e" stroke-linecap="round" stroke-linejoin="round" stroke-miterlimit="10" stroke-width="1.8"/><path d="m296.542 136.7s5.2 1.9 8.3 5.3c0 0-1 5.8-.6 8.7s-3.8 9.1-12.9 8.6-16.9-7.4-16.9-7.4 1.1-12.6 2.6-16.3c1.6-3.8 19.5 1.1 19.5 1.1z" fill="#f4c2c9"/><path d="m302.142 139.6s0 .1 0 0c1.7 1.2 2.5 3.2 2.3 5.2-.2 1.9-.4 4.3-.2 5.8" stroke="#e26e85" stroke-linecap="round" stroke-linejoin="round" stroke-miterlimit="10" stroke-width="1.8"/><path d="m310.142 112.9s2.2-1.6 2.9-4.2 1.1-4.6 1.1-4.6 1.4 1.3 3.2 2c1.9.7 6.8-4.5 7.5-11.6s-2.6-14.5-10.7-17.6c-3.1-1.2-7.8-1.4-12.5-1.1-6.6.4-12.9 2.6-18.5 6.1-1.2.7-2.7 1.4-4.4 1.6-5.8.8-9.4 3.1-12.8 11.2-3.4 8-3.8 14.3.8 24s6 10.3 6.7 14.3c.8 4-.2 8.5 3 7.8 8.8-2 17.8.5 19.9-.8 2.2-1.3 9.1-13.7 9.9-19.7.8-6.1 2.6-8.1 3.9-7.4z" fill="#22272e"/><path d="m311.442 113.5s-2.1-5.6-6.1-3.9c-5.4 2.3-2.1 11.8 3.1 13.4" fill="#f4c2c9"/><path d="m305.542 114.5c-.1-.4-.2-.9 0-1.4.1-.2.2-.5.5-.7.2-.2.6-.4.9-.4.1 0 .4 0 .6.1s.4.2.5.4c.1.1.2.3.3.4s.1.3.2.4c.2.5.2.9.2 1.3.1.8 0 1.6.1 2.1 0 .4.5.9 1.4 1.1-.3.3-.8.5-1.3.4s-1.1-.4-1.4-.9c-.5-1-.5-1.8-.6-2.6 0-.4-.1-.8-.1-1 0-.1 0-.1 0-.2s0-.1 0-.1.2 0 .1 0c-.1-.1-.3-.1-.6.1-.4.3-.6.6-.8 1z" fill="#22272e"/><path d="m273.542 150.7s.9-6.4 1.5-7.5c.6-1 15.6-2.2 24.2 0s7.8 9.5 7.8 9.5-15.5-1.8-33.5-2z" fill="#6dafa7"/><path d="m243.642 174c1.7-9.6 5.3-24.5 40-24.6 29.6-.1 43.3 4.3 50.5 9.8s8 20 5.7 42.7-2.7 36.2-1.4 50.3c1.4 14.1 7 20.2-.6 27.8 0 0-21.9 7.2-49.9 7.2s-41.9-7.8-42.5-10-3.3-2.9-.8-8.6 4.2-25.8 2.6-37.9-7.8-32.6-3.6-56.7z" fill="#ffe779"/><path d="m379.342 149.5s2.3-7.5 2-10.2-2.5-8.7-3.5-10.9-.199-8.4-.399-11.5 3.399-2.3 4.399.8 2.2 4.5 2.2 4.5 3.9-9 4.5-11.5 2.2-10.5 4.6-12.4c2.3-2 3.3.1 2 5.5-.9 3.7-.8 5.8-.8 6.1s2.901.8 4.101 2.5c.5.7.899 3.3.899 3.3.2.1 1.2-.1 2.4.6.7.4 1.501 1.7 2.201 2.3.7.7 1.399 1.4 1.899 2.2.9 1.3 1.6 3.9-1.1 14.9-1.5 6-4.2 8.1-6.2 22.1-2.3 14-21.2.6-19.2-8.3z" fill="#f4c2c9"/><path d="m380.943 142.8c-.6 3.1-1.601 6.6-1.601 6.6-2 8.9 16.9 22.3 19 8.3.5-3.6 1.101-6.5 1.601-8.8-4.9-5.1-11.4-8-19-6.1z" fill="#63737a"/><path d="m395.445 151.55c2.246-1.064 3.127-3.909 1.969-6.355-1.159-2.446-3.919-3.566-6.165-2.502s-3.127 3.909-1.969 6.355c1.159 2.445 3.919 3.566 6.165 2.502z" fill="#fff"/><path d="m331.142 157.3s7.9 0 19.1 15.1 13.5 19 13.5 19 2.3-8.4 7-20.2c3.3-8.3 5.4-16.2 6.4-20.1.4-1.8 1.9-3.3 3.7-3.7 4.1-.9 11.5-1 17.8 8.2.7 1.1 1.001 2.4.801 3.6-1 5.8-3.901 23.7-6.301 41.1-2.9 21.1-4.5 38.9-18.8 40.7-10.3 1.3-25.3-12.2-35.8-22.7-4.1-4.1-7.5-7.8-9.6-10-5.3-5.4-13.6-15.9-13.6-31 0-16.6 12.3-21 15.8-20z" fill="#6dafa7"/><path d="m338.542 218.4c-4.1-4.1-7.5-7.8-9.6-10-5.3-5.4-13.6-15.9-13.6-31" stroke="#f8ab5d" stroke-linecap="round" stroke-linejoin="round" stroke-miterlimit="10" stroke-width="1.8"/><path d="m363.742 191.3s12.9 16.8 16 24.9" stroke="#22272e" stroke-linecap="round" stroke-linejoin="round" stroke-miterlimit="10" stroke-width="1.8"/><path d="m367.943 240.1c-.7-.5-1.5-1.5-1.4-3.6.2-3.8 4-9.9 11.2-11.4 6.1-1.3 9.2.6 9.8 2.6" stroke="#22272e" stroke-linecap="round" stroke-linejoin="round" stroke-miterlimit="10" stroke-width="1.8"/><path d="m376.342 154.1s12.8-5.6 22.3 9.7" stroke="#22272e" stroke-linecap="round" stroke-linejoin="round" stroke-miterlimit="10" stroke-width="1.8"/><path d="m394.142 109.8s-.2 3.4-.3 4c-.1.7-1 4.3-1.1 5.7" stroke="#e26e85" stroke-linecap="round" stroke-linejoin="round" stroke-miterlimit="10" stroke-width="1.8"/><path d="m399.142 115.6v2.9c0 1-.5 3.4-.5 3.4" stroke="#e26e85" stroke-linecap="round" stroke-linejoin="round" stroke-miterlimit="10" stroke-width="1.8"/><path d="m403.443 118.7s.299 1.5.299 2.7-.5 3.9-.5 3.9" stroke="#e26e85" stroke-linecap="round" stroke-linejoin="round" stroke-miterlimit="10" stroke-width="1.8"/><path d="m383.943 122.1s-.601 1.5-1.301 2.3" stroke="#e26e85" stroke-linecap="round" stroke-linejoin="round" stroke-miterlimit="10" stroke-width="1.8"/><path d="m333.342 12.4s-6.099 24.3 2.901 40.7c.7 1.3 2.299 1.8 3.599 1.1l12.201-6.8-4.901-36.8z" fill="#6dafa7"/><path d="m336.043 12.9s-5.8 24.1 8.2 41.7c.8 1 2.3 1.3 3.5.6l15.3-9.2-12.6-36.79999c-.1.1-12.4.70001-14.4 3.69999z" fill="#ffe779"/><path d="m333.343 12.4 5.8 1.2 32.7-12.6-6.2-1z" fill="#b8d8c7"/><path d="m371.842 1s.501 16 19.701 28.1c1.7 1.1 1.7 3.5 0 4.5l-30.6 18.1c-.8.5-1.801.5-2.601.1-19.5-10.3-19.2-38.3-19.2-38.3z" fill="#6dafa7"/><path d="m363.443 21.2c-.2-.3-.5-.5-.9-.8-.8-.4-1.601-.3-2.401 0-1.3.6-1.899 1.6-1.799 3.1.1.8.4 2 1.1 3.5.2-.7.599-1.3 1.199-1.9.5-.5 1.301-1 2.101-1.4 1.9-.8 3.7-1.1 5.5-.7s3.299 1.3 4.399 2.8 1.501 3.2 1.201 5.1-1.7 3.6-4.4 5c-2.8 1.4-5.7 1.4-8.2 0-2-1.1-3.6-2.9-4.9-5.4-.8-1.4-1.3-2.6-1.6-3.6-.6-1.7-.7-3.2-.5-4.4.2-1.1.6-2.1 1.3-2.9.7-.9 1.7-1.5 3-2.1 1.9-.8 3.599-1 5.099-.7 1.6.3 2.801 1 3.801 2.3-1.6.9-2.4 1.3-4 2.1zm1.1 12.3c1 .3 2.099.2 3.099-.2 1-.5 1.501-1.2 1.701-2s-.101-1.7-.701-2.6c-.7-1-1.499-1.6-2.399-1.8s-1.9-.2-2.7.2c-.7.3-1.3.8-1.6 1.4-.5.9-.4 1.9.3 3.1.5.9 1.3 1.5 2.3 1.9z" fill="#ffe779"/><path d="m232.743 73.3h33l3.4 2.2c1.1.7 2.5-.1 2.5-1.4v-23.3c0-2.4-1.9-4.3-4.301-4.3h-34.599c-2.4 0-4.3 1.9-4.3 4.3v18.2c0 2.4 1.9 4.3 4.3 4.3z" fill="#f4c2c9"/><path d="m238.243 55.8 1.7 1.7 3.3-3.3" stroke="#22272e" stroke-linecap="round" stroke-linejoin="round" stroke-miterlimit="10" stroke-width="1.8"/><path d="m248.343 56.3h11.6" stroke="#22272e" stroke-linecap="round" stroke-linejoin="round" stroke-miterlimit="10" stroke-width="1.8"/><path d="m238.243 63.9 1.7 1.7 3.3-3.3" stroke="#22272e" stroke-linecap="round" stroke-linejoin="round" stroke-miterlimit="10" stroke-width="1.8"/><path d="m248.343 64.4h11.6" stroke="#22272e" stroke-linecap="round" stroke-linejoin="round" stroke-miterlimit="10" stroke-width="1.8"/><path d="m387.342 362.9-3 3.2c-.5.5-.5 1.3 0 1.8.4.5 1.1.6 1.7.2l3.5-2.1z" fill="#22272e"/><path d="m414.042 370.7.8 4.3c.1.7-.3 1.3-1 1.5-.6.2-1.2-.1-1.5-.7l-1.8-3.7z" fill="#22272e"/><path d="m404.242 374.4c10.991 0 19.9-8.91 19.9-19.9s-8.909-19.9-19.9-19.9c-10.99 0-19.9 8.91-19.9 19.9s8.91 19.9 19.9 19.9z" fill="#6dafa7"/><path d="m404.242 367.3c7.07 0 12.8-5.731 12.8-12.8s-5.73-12.8-12.8-12.8c-7.069 0-12.799 5.731-12.799 12.8s5.73 12.8 12.799 12.8z" fill="#ffe779"/><path d="m407.842 359.1-3.6-4.6 1.9-6.4" stroke="#63737a" stroke-linecap="round" stroke-linejoin="round" stroke-miterlimit="10" stroke-width="1.8"/><path d="m391.542 335.3c-.6.2-1.199-.1-1.299-.7-.4-2.6.999-5.3 3.599-6.3s5.501 0 6.901 2.3c.3.5.1 1.2-.5 1.4z" fill="#6dafa7"/><path d="m425.242 345.1c.4.5 1.1.6 1.5.1 1.8-2 2-5 .3-7.3-1.7-2.2-4.6-2.9-7.1-1.7-.6.3-.7 1-.3 1.5z" fill="#6dafa7"/><path d="m413.242 333.1-5.2-1.5c-.9-.2-1.299-1.1-1.099-2s1.1-1.3 2-1.1l5.199 1.5c.9.2 1.3 1.1 1.1 2s-1.1 1.4-2 1.1z" fill="#6dafa7"/><path d="m409.033 330.962-1.423 4.898 3.745 1.088 1.423-4.898z" fill="#6dafa7"/></g></svg>