<svg clip-rule="evenodd" fill-rule="evenodd" stroke-linejoin="round" stroke-miterlimit="2" viewBox="0 0 2732 2048" xmlns="http://www.w3.org/2000/svg" xmlns:xlink="http://www.w3.org/1999/xlink"><linearGradient id="a" gradientTransform="matrix(-34.0199 741.321 -741.321 -34.0199 1358.95 1270.18)" gradientUnits="userSpaceOnUse" x1="0" x2="1" y1="0" y2="0"><stop offset="0" stop-color="#ffccc5"/><stop offset="1" stop-color="#f49387"/></linearGradient><g transform="translate(38.2908 2.29616)"><g transform="translate(1162 54.025)"><path d="m475.631 335.141h638.256v861.353h-638.256z" fill="#ffd593"/><circle cx="934.5106" cy="500.8819" fill="#fff" r="121.215"/><g transform="translate(-1162 -54.025)"><circle cx="2096.9847" cy="536.29456" fill="#b5d6d4" r="42.214"/><path d="m1992.82 617.676c32.41-20.327 104.63-49.291 202.05 8.049-22.02 30.516-57.88 50.397-98.36 50.397-43.93 0-82.44-23.424-103.69-58.446z" fill="#b5d6d4"/><path d="m2099.23 494.14c20.99 1.104 37.93 17.565 39.8 38.341-35.94-6.414-39.71-29.509-39.8-38.341zm-44.26 38.035c2.07-21.37 20.11-38.094 42.01-38.094.65 0 1.29.014 1.93.043-4.81 26.03-30.72 35.092-43.94 38.051z"/></g><g fill="#fda527"><path d="m743.075 539.37h-216.558v31.281h216.558zm-18.107-65.907h-198.451v31.281h198.451zm42.843-65.643h-241.294v31.282h241.294z"/><path d="m935.279 850.268h-320.548v25.973h320.548zm-57.33-51.936h-263.218v25.973h263.218zm57.33-54.04h-320.548v25.973h320.548z" transform="translate(-1.9963 10.9896)"/><path d="m612.7347 920.377h320.548v25.973h-320.548z"/><path d="m935.279 1055.76h-320.548v25.97h320.548zm-71.256-54.04h-249.292v25.97h249.292z" transform="translate(11.7857 79.1797)"/><path d="m525.63735 657.2602h501.388v46.728h-501.388z"/><path d="m536.6512 1004.583h501.388v46.728h-501.388z"/></g></g><g transform="translate(574.423 27.4685)"><path d="m475.631 335.141h638.256v861.353h-638.256z" fill="#b5d6d4"/><circle cx="934.5106" cy="500.8819" fill="#fff" r="121.215"/><path d="m1409.61 597.82c29.86-21.428 112.51-67.721 199.45-1.17-21.83 31.935-58.55 52.915-100.13 52.915-41.06 0-77.38-20.463-99.32-51.745z" fill="#ec7954" transform="translate(-574.423 -27.4685)"/><g transform="translate(-574.423 -27.4685)"><circle cx="1512.5324" cy="496.12398" fill="#ec7954" r="42.858"/><circle cx="1586.05954304" cy="503.838166232" r="31.175594928" stroke-width=".727416"/><path d="m1469.7 497.67c-.01-.512-.02-1.028-.02-1.546 0-23.655 19.2-42.859 42.86-42.859 23.65 0 42.85 19.204 42.85 42.859 0 1.402-.06 2.789-.2 4.157-32.08-4.276-40.92-32.508-40.92-32.508-10.45 25.043-31.27 29.704-44.57 29.897z"/></g><g fill="#95c0be"><path d="m732.659 539.37h-206.142v31.281h206.142zm35.152-65.907h-241.294v31.281h241.294zm-50.581-65.643h-190.713v31.282h190.713z"/><path d="m935.279 850.268h-320.548v25.973h320.548zm0-51.936h-320.548v25.973h320.548zm0-54.04h-320.548v25.973h320.548z"/><path d="m935.279 1107.69h-320.548v25.97h320.548zm0-51.93h-320.548v25.97h320.548zm0-54.04h-320.548v25.97h320.548z"/><path d="m525.63735 657.2602h501.388v46.728h-501.388z"/><path d="m525.63735 919.914h501.388v46.728h-501.388z"/></g></g><path d="m475.631 335.141h638.256v861.353h-638.256z" fill="#fff3e4"/><circle cx="934.5106" cy="500.8819" fill="#fff" r="121.215"/><path d="m829.155 560.831c22.231-27.976 61.174-46.542 105.461-46.542 44.205 0 83.084 18.496 105.334 46.387-20.85 36.666-60.275 61.421-105.44 61.421-45.097 0-84.476-24.682-105.355-61.266z" fill="#fda527"/><path d="m918.822 515.086c5.173-.526 10.445-.797 15.794-.797 7.378 0 14.608.515 21.642 1.505-1.2 6.998-5.902 11.959-11.29 14.192l13.931 89.651c-7.883 1.613-16.038 2.46-24.389 2.46-7.22 0-14.294-.633-21.173-1.847l18.242-90.196c-8.925-3.121-11.833-10.919-12.757-14.968z"/><circle cx="933.9763" cy="457.8563" fill="#fda527" r="42.265"/><path d="m891.712 457.722c.072-23.264 18.982-42.131 42.265-42.131 23.326 0 42.265 18.938 42.265 42.265 0 1.829-.117 3.631-.342 5.396-28.099-3.05-39.949-32.671-39.949-32.671-10.132 21.551-32.393 26.226-44.239 27.141z"/><g fill="#ffb1a6"><path d="m680.88 539.37h-154.363v31.281h154.363zm86.931-65.907h-241.294v31.281h241.294zm0-65.643h-241.294v31.282h241.294z"/><path d="m935.279 850.268h-320.548v25.973h320.548zm0-51.936h-320.548v25.973h320.548zm0-54.04h-320.548v25.973h320.548z"/><path d="m935.279 1107.69h-320.548v25.97h320.548zm0-51.93h-320.548v25.97h320.548zm0-54.04h-320.548v25.97h320.548z"/><path d="m525.63735 657.2602h501.388v46.728h-501.388z"/><path d="m525.63735 919.914h501.388v46.728h-501.388z"/></g><circle cx="945.873" cy="530.917" fill="#fff" r="121.215" transform="matrix(.895096 -.133784 .207021 1.3851 201.1926647725 -42.0434696884)"/><g transform="matrix(1.33644993568 -.19975021472 .27664959784 1.46578706467 -225.2517521893 18.097289202)"><path d="m1063.59 637.511c25.09-26.767 60.74-46.026 102.51-52.268 36.42-5.443 72.08-.178 102.85 13.198-2.78 71.678-36.82 128.873-86.11 136.24-47.33 7.075-94.66-33.913-119.25-97.17z" fill="#fda527" transform="matrix(.727721 .0991705 -.137349 .663512 166.406 10.3306)"/><path d="m1166.93 735.283-.53-126.325c-12.79-2.792-18.84-13.641-21.19-19.392 6.77-1.804 13.73-3.254 20.89-4.323 9.85-1.473 19.66-2.162 29.33-2.117.34 10.498-4.57 18.708-11.16 23.058l37.25 110.349c-11.35 9.674-24.37 16.01-38.68 18.148-5.31.795-10.63.983-15.91.602z" transform="matrix(.727721 .0991705 -.137349 .663512 166.406 10.3306)"/><circle cx="933.9763" cy="457.8563" fill="#fda527" r="42.265"/><path d="m891.712 457.722c.072-23.264 18.982-42.131 42.265-42.131 23.326 0 42.265 18.938 42.265 42.265 0 1.829-.117 3.631-.342 5.396-28.099-3.05-39.949-32.671-39.949-32.671-10.132 21.551-32.393 26.226-44.239 27.141z"/></g><path d="m1171 738.003 28.57 181.451c.99 6.317 6.93 10.637 13.24 9.643 6.32-.994 10.64-6.93 9.64-13.246l-28.56-181.452c-1-6.316-6.93-10.637-13.25-9.643-6.31.995-10.63 6.93-9.64 13.247z" fill="#dd6140" transform="matrix(.999924 .0123565 -.0123565 .999924 14.8793 -12.3759)"/><path d="m1182.2 778.196-5.53-38.156c-.91-6.328 3.48-12.21 9.81-13.126s12.21 3.477 13.12 9.806l4.17 28.802c-8.05 7.046-15.27 10.879-21.57 12.674z"/><path d="m1089.13 633.625c-19.52 0-37.39-10.669-52.03-28.11-23.83-28.4-39.001-74.343-39.001-126.008s15.171-97.607 39.001-126.007c14.64-17.441 32.51-28.11 52.03-28.11 5.92 0 10.73-5.043 10.73-11.255s-4.81-11.256-10.73-11.256c-25.4 0-49.08 13.043-68.12 35.741-26.695 31.806-44.357 83.026-44.357 140.887 0 57.862 17.662 109.082 44.357 140.888 19.04 22.698 42.72 35.741 68.12 35.741 5.92 0 10.73-5.044 10.73-11.256s-4.81-11.255-10.73-11.255z" fill="#dd6140" transform="matrix(1.0705 -.146146 .13923 1.01985 -73.2621 237.694)"/><path d="m1089.13 325.39c19.53 0 37.4 10.669 52.04 28.11 23.83 28.4 39 74.342 39 126.007s-15.17 97.608-39 126.008c-14.64 17.441-32.51 28.11-52.04 28.11-5.92 0-10.72 5.043-10.72 11.255s4.8 11.256 10.72 11.256c25.41 0 49.08-13.043 68.13-35.741 26.69-31.806 44.35-83.026 44.35-140.888 0-57.861-17.66-109.081-44.35-140.887-19.05-22.698-42.72-35.741-68.13-35.741-5.92 0-10.72 5.044-10.72 11.256s4.8 11.255 10.72 11.255z" fill="#dd6140" transform="matrix(1.0705 -.146146 .13923 1.01985 -73.2621 237.694)"/><path d="m1313.18 1229.33s-185.85 353.54-226.26 441.74c0 0-45.19 4.75-65.7 33.64h311.51l75.2-130.99s55.75 73.47 106.02 97.35c0 0-29.09 17.15-32.75 33.64h286.21l-204.29-318.79s146.44-274.61 0-354.33c-41.26-22.46-142.64-18.12-249.94 197.74z" fill="url(#a)"/><path d="m1388.22 1108.46-53.73 122.18c-39.97 90.9-29.72 196.06 27.05 277.54l.29.41 221.94-90.45 4.38 6.85-221.63 90.33c24.4 34.94 46.99 66.15 58.74 79.4.21.23.39.48.55.74-11.04-12.73-17.88-21.74-17.88-21.74l-5.16 8.98c-13.37-17.56-31.08-42.42-49.44-68.81-16.42-23.57-29.08-49.06-37.9-75.61l-106.86-8.35 1.79-3.45 2.21-4.26 100.26 7.84c-19.86-66.22-16.11-138.36 12.51-203.44l35.46-80.65c9.26-13.9 18.41-26.36 27.42-37.51zm178.17 282.57-.04.09s-17.48-27.68-27.7-43.86c-1.03-1.62-.89-3.71.33-5.19s3.25-2 5.03-1.3l34.31 13.41c-8.8 19.73-15.2 31.74-15.2 31.74z" fill="#f49387"/><path d="m1838.2 530.263c11.6-10.121 28.18-28.703 31.47-38.384 4.79-14.077-5.25-15.996-10.64-11.788-22.43 17.516-53.12 31.056-53.12 31.056-57.71 25.119-200.13 179.758-200.13 179.758-83.7 81.77-216.04 87.48-252.75 87.413-12.57-.057-25 2.707-36.36 8.089-38.97 18.54-62.55 57.426-62.55 57.426s-14.87-15.933-27.89-23.174c-5.43-3-12.18-2.057-16.58 2.314 0-.001 0 0 0 0-12.55-2.337-24.96 4.677-29.43 16.631-1 2.694-1.83 5.164-2.24 7.054 0 0-11.66 4.675-12.26 17.297 0 0-13.74 5.708-13.8 19.127 0 0-20.41 21.011 0 41.53 0 0 13.91 8.175 17.28-9.728 0 0 5 162.486 7.45 242.116.85 27.35 13.24 53.06 34.12 70.75 25.72 21.8 62.7 24.12 90.95 5.71 1.89-1.23 3.71-2.41 5.44-3.54 12.54-8.17 23.31-18.79 31.65-31.23 13.81-20.62 31.49-54.55 33.17-95.11v-84.3s65.28 26.07 111.45-73.421c0 0 30.92 5.207 72.86-4.935 25.09-6.067 54.13-17.628 82.86-39.085 20.08-14.958 37.39-33.325 51.13-54.266 26.86-40.9 96.1-146.457 115.63-176.824 0 0 23.8-34.885 44.23-52.465 0 0 19.95 19.222 36.33-21.294 0 0 7.87-19.109-13.74-27.873 0 0 1.59-21.35-18.91-21.638 2.04-14.584-5.13-17.888-15.62-17.216z" fill="#ffccc5"/><path d="m1675.5 618.994c20.75 12.294 60.73 40.206 103.75 92.786-28.88 44.234-69.76 106.545-88.97 135.793-13.74 20.941-31.05 39.308-51.13 54.266-28.73 21.457-57.77 33.018-82.86 39.085-41.94 10.142-72.86 4.935-72.86 4.935-46.17 99.491-111.45 73.421-111.45 73.421v84.3c-1.68 40.56-19.36 74.49-33.17 95.11-8.34 12.44-19.11 23.06-31.65 31.23-1.73 1.13-3.55 2.31-5.44 3.54-28.25 18.41-65.23 16.09-90.95-5.71-20.88-17.69-33.27-43.4-34.12-70.75l-5.03-163.429h68.21c-1.27-17.31-.21-107.414 6.93-130.433 2.79-9.011 5.58-15.667 8.62-21.271 5.36-8.126 27.56-39.414 61.29-55.46 11.36-5.382 23.79-8.146 36.36-8.089 36.71.067 169.05-5.643 252.75-87.413 0 0 30.89-33.537 69.72-71.911z" fill="#f49387"/><path d="m1239.65 990.232h.25v158.698c0 1.17-.91 2.13-2.08 2.18-1.16.05-2.16-.82-2.26-1.98l-14-155.559h18.27c-.07-.916-.13-2.035-.18-3.339zm132.33 33.798-5.84-125.588c-.03-.768.5-1.446 1.26-1.588.75-.141 1.5.297 1.74 1.027 6 19.547 18.31 64.212 26.25 124.379-14.09.74-23.41-2.98-23.41-2.98zm109.54-74.153c4.34-11.28 19.17-57.826-8.5-108.248-.62-1.119-.31-2.523.72-3.279 1.03-.757 2.46-.629 3.35.298 13.2 13.975 34.15 44.645 49.3 107.412-25.93 2.668-42.96-.201-42.96-.201-.63 1.363-1.27 2.703-1.91 4.018z" fill="#b44335"/><path d="m1170.18 910.537c-.63 3.809-1.93 8.03-1.93 8.03l-11.93-6.391c-1.96-1.012-2.73-3.427-1.72-5.389 1.02-1.962 3.43-2.732 5.39-1.72zm-15.18-37.615c1.4-.326 2.95-.511 4.65-.472 7.62.176 19.08 5.096 32.75 26.158 1.21 1.852.68 4.331-1.17 5.533s-4.33.675-5.54-1.177c-11.27-17.369-19.94-22.371-26.23-22.516-4.87-.113-7.6 3.03-7.6 3.03l.06-.396c.02-4.081 1.3-7.448 3.08-10.16zm13.43-17.947c1.53-.194 3.27-.226 5.22.013 7.17.88 17.98 5.703 31.69 22.682 1.39 1.718 1.12 4.239-.6 5.625-1.72 1.387-4.24 1.118-5.62-.599-22.21-27.5-33.4-18.741-33.4-18.741.17-3.621 1.25-6.588 2.71-8.98zm12.63-17.371c1.67-.211 3.56-.292 5.65-.138 7.72.566 18.56 4.355 30.52 18.053 1.45 1.662 1.28 4.191-.38 5.644-1.66 1.452-4.19 1.281-5.64-.382-16.48-18.865-29.73-15.553-33.22-14.205.43-1.879 1.24-4.317 2.23-6.972.25-.682.54-1.349.84-2zm36.33-18.528c5.47 3.585 12.99 9.84 19.82 20.09 1.22 1.838.72 4.323-1.11 5.547-1.84 1.224-4.33.726-5.55-1.112-9.6-14.414-21.66-20.77-20.9-20.628 2.16-2.145 4.88-3.464 7.74-3.897zm632.75-200.792c-2.23 1.92 19.09-21.915 19.09-21.915 4.18-3.466 8.9 1.449 5.89 5.415l-18.58 20.205c-3.93-1.319-6.4-3.705-6.4-3.705zm21.82-56.784c1.03 4.155.77 7.617.77 7.617.46.185-7.84 1.454-12.25 3.781-8.25 4.353-15.01 11.039-15.01 11.039-1.57 1.552-4.11 1.537-5.66-.034-1.55-1.57-1.53-4.105.04-5.657 0 0 7.61-7.523 16.9-12.423 4.87-2.572 10.19-4.338 15.21-4.323zm-18.13-22.401c.44 2.237.46 4.977 0 8.307-4.95 1.548-14.51 5.712-26.7 16.702-1.64 1.479-4.17 1.348-5.65-.292s-1.35-4.171.29-5.649c15.06-13.577 26.77-17.783 32.06-19.068zm-5.77-18.268c-3.41 3.52-6.8 6.769-9.86 9.432.47-.03-19.52 7.532-30.09 14.355-1.86 1.197-4.33.663-5.53-1.192s-.67-4.332 1.19-5.53c15.15-9.775 31.08-16.278 44.29-17.065z" fill="#f49387"/><circle cx="1354.76461" cy="679.0584" fill="#ffccc5" r="57.767"/><path d="m1367.56 622.717c25.74 5.833 44.97 28.858 44.97 56.341 0 31.882-25.89 57.767-57.77 57.767-.93 0-1.87-.023-2.79-.067-9.34-21.056 4.97-29.648 8.81-31.514 2.36 1.978 5.41 3.17 8.74 3.17 7.49 0 13.57-6.023 13.57-13.442 0-7.418-6.08-13.441-13.57-13.441-3.01 0-5.8.979-8.06 2.634-21.6-29.438-3.68-52.241 6.1-61.448z"/><path d="m1425.38 687.74c-.6-.166 3.87-2.539 5.02-3.298 3.18-2.094 6.31-4.317 9.26-6.728 8.92-7.31 14.55-16.099 20.74-25.653 21.02-32.45 54.85-65.257 95.63-66.861 72.13-2.838 112.11 78.813 101.61 141.467-7.96 47.523-58.35 72.416-103.4 65.778-26.76-3.945-52.59-19.354-70.55-39.377-10.55-11.764-18.51-25.561-27.2-38.688-7.82-11.83-16.06-24.934-31.11-26.64z"/></g></svg>