<svg clip-rule="evenodd" fill-rule="evenodd" stroke-linejoin="round" stroke-miterlimit="2" viewBox="0 0 2732 2048" xmlns="http://www.w3.org/2000/svg" xmlns:xlink="http://www.w3.org/1999/xlink"><linearGradient id="a" gradientTransform="matrix(986.951 -581.965 581.965 986.951 884.165 1404.93)" gradientUnits="userSpaceOnUse" x1="0" x2="1" y1="0" y2="0"><stop offset="0" stop-color="#b8d8d5"/><stop offset=".42" stop-color="#cee0da"/><stop offset="1" stop-color="#fff0e6"/></linearGradient><linearGradient id="b" gradientTransform="matrix(-487.042 610.288 -610.288 -487.042 559.796 705.848)" gradientUnits="userSpaceOnUse" x1="0" x2="1" y1="0" y2="0"><stop offset="0" stop-color="#b8d8d5"/><stop offset=".47" stop-color="#ccdfda"/><stop offset="1" stop-color="#fff0e6"/></linearGradient><linearGradient id="c" gradientTransform="matrix(300.786 292.904 -292.904 300.786 1992.73 834.741)" gradientUnits="userSpaceOnUse" x1="0" x2="1" y1="0" y2="0"><stop offset="0" stop-color="#ffbf2f"/><stop offset="1" stop-color="#fd9500"/></linearGradient><linearGradient id="d" gradientTransform="matrix(-490.582 -330.667 330.667 -490.582 2198.49 1382.31)" gradientUnits="userSpaceOnUse" x1="0" x2="1" y1="0" y2="0"><stop offset="0" stop-color="#ffbf2f"/><stop offset=".48" stop-color="#feb422"/><stop offset="1" stop-color="#fd9500"/></linearGradient><g transform="translate(38.2908 2.29616)"><path d="m634.793 1430.18h355.471v31.71h-343.915l86.318 243.02h-32.438l-223.43-615.66 29.79-10.86z"/><path d="m374.466 1669s4.382-205.79 7.737-363.34c2.147-100.9 81.629-183.13 182.398-188.7 222.667-12.43 442.489-15.59 657.779-4.02 104.57 5.64 190.92 83.72 207.01 187.2.06-.01.06-.01.06-.01 8.81 56.6-6.57 114.29-42.39 158.99-45.45 56.51-122.19 135.24-241.01 210.34 0 0 43.94 12.7 48.43 32.33 0 0-334.326-.39-419.529-.48-3.139-.01-5.953-1.94-7.087-4.87-1.134-2.92-.355-6.25 1.961-8.36 59.853-54.71 285.255-260.73 285.255-260.73l-380.201 3.86s-6.107 212.55-7.542 262.48c-.166 5.78-4.925 10.38-10.713 10.34-57.141-.4-330.012-2.27-330.012-2.27s-1.881-19.95 47.854-32.76z" fill="url(#a)"/><path d="m1235.26 1606.82-291.044-78.14 8.756-8.01 292.078 78.42c-3.22 2.57-6.48 5.15-9.79 7.73zm-562.833-90.27-294.866 7.12.213-10.01 294.941-7.12z" fill="#82b5b2"/><path d="m1054.59 1427.79 103.45-.24c.99 0 1.83.72 1.98 1.7s-.43 1.92-1.38 2.22l-164.285 51.38zm-379.72 3.72-1.339 46.62-87.26-39.28c-1.69-.76-2.618-2.6-2.228-4.41.391-1.82 1.995-3.11 3.848-3.1z" fill="#346864"/><path d="m1180.33 683.486s-100.47-135.655-326.481-76.409c-30.436 7.979-271.508 84.49-366.607 299.454-9.299 21.02-59.437 116.589 13.249 167.679 50.714 35.66 105.094 29.05 295.641-34.72 16.124-5.4 115.446-26.38 97.49-49.318 0 0 8.014 1.622 11.862-3.711 0 0 .44 2.748.766 4.779.222 1.388.878 2.67 1.874 3.662 4.555 4.541 18.236 18.178 26.842 26.758 1.48 1.47 3.642 2.03 5.65 1.45 2.008-.57 3.546-2.19 4.018-4.23 2.541-10.94 6.242-26.877 6.242-26.877s90.394 19.617 144.874-68.469c0 0 2.27 87.006 69.62 122.126 19.67 10.26 128.89 32.05 157.55-80.591 20.04-78.788 34.68-219.568 47.49-320.718 0 0 66.93-42.015 71.99-62.139 1.82-7.228-5.52-19.1-21.88-7.094 0 0 24.43-20.773 16.28-30.562-4.54-5.445-13.83-5.73-32.23 10.025 0 0 22.92-23.474 12.45-32.868-11.26-10.089-24.33 10.662-36.31 21.832 0 0 26.66-40.936 11.58-48.005-6.39-2.995-13.29-3.372-36.56 25.932-21.55 27.137-52.11 29.937-74.26 27.275 0 0 8.72-51.129-1.27-56.083-11.28-5.598-21.45 4.41-45.96 54.688-24.2 49.618-36.27 98.78-53.91 136.134z" fill="url(#b)"/><path d="m914.387 595.248c174.773-21.965 257.863 77.946 265.383 87.509-11.4 40.666-30.95 127.541-30.95 127.541l-20.57-.288c.33 50.763-32.4 111.433-32.4 111.433l-.13 2.135c-51.8 83.702-137.193 69.821-145.257 68.622l2.635-13.237-6.846-19.205-2.129-5.441s9.445-12.659 17.813-23.875c7.06-9.464 5.411-22.811-3.741-30.272-18.302-14.92-45.407-37.016-45.407-37.016-.158-.121-.315-.242-.471-.361-21.774-16.659-49.288-23.956-76.455-20.276-57.574 7.797-173.331 23.477-173.331 23.477l-69.887-108.054c81.534-78.659 177.172-121.522 228.102-140.119z" fill="#82b5b2"/><path d="m905.516 986.661c1.95-2.371 8.395-11.321 2.615-19.96l-8.135-9.836s11.411 1.646 16.048 1.205c0 0-.637 11.424 8.798 13.41 2.581.535 5.244-.431 6.882-2.497 4.552-5.719 14.748-18.575 14.748-18.575s5.685 24.535 6.713 28.972c.104.45.107.918.007 1.369-.937 4.237-5.901 26.691-5.901 26.691l-2.657 11.44c-.472 2.04-2.01 3.66-4.018 4.23-2.008.58-4.17.02-5.65-1.45-8.606-8.58-22.287-22.217-26.842-26.758-.996-.992-1.652-2.274-1.874-3.662zm-40.292-144.147s36.212 5.304 59.449 31.068l-16.009-77.26-53.048.307z" fill="#ffbf2f"/><path d="m947.568 1006.19-.277 1.25-2.657 11.44c-.472 2.04-2.01 3.66-4.018 4.23-2.008.58-4.17.02-5.65-1.45l-12.176-12.14zm-35.949-48.12c1.707.09 3.274.11 4.425 0 0 0-.637 11.424 8.798 13.41 1.025.212 2.062.188 3.044-.048l1.468 6.827 22.083-6.425 1.748 7.546c.054.233.08.47.08.707l-46.104 13.601c-.46-.743-.771-1.575-.911-2.448l-.734-4.579c.35-.425.844-1.061 1.386-1.87l9.869-2.871zm-23.538-108.964-11.361-52.599 13.531-.078 12.897 59.971c-5.173-3.005-10.315-5.4-15.067-7.294z"/><path d="m895.559 997.646-30.419-2.432c-2.201-.176-3.845-2.105-3.669-4.306.176-2.2 2.105-3.844 4.306-3.668l34.265 2.738c-3.288.828-6.42.194-6.42.194 1.974 2.521 2.531 5.019 1.937 7.474zm13.779-37.721c.28-.21.594-.386.936-.52 0 0 3.832-1.503 7.915-3.105 4.809-1.886 8.38-6.02 9.546-11.052 0-.001 0-.001 0-.002 2.379-10.263-1.904-20.92-10.725-26.681-10.019-6.545-20.742-13.55-20.742-13.55-1.848-1.207-2.369-3.688-1.161-5.536 1.207-1.848 3.688-2.369 5.536-1.161l19.95 13.031.534-4.535c.258-2.193 2.248-3.763 4.44-3.505 2.193.258 3.763 2.248 3.505 4.44l-1.146 9.728c7.084 7.898 10.078 18.898 7.603 29.575 0 .001 0 .001-.001.002-1.761 7.6-7.154 13.845-14.418 16.694-4.083 1.601-7.915 3.104-7.915 3.104-1.425.559-2.978.243-4.066-.688-1.011.755-2.362 1.021-3.65.596l-34.13-11.26c-2.097-.692-3.237-2.955-2.545-5.052.691-2.096 2.955-3.237 5.051-2.545l34.131 11.26c.512.169.967.431 1.352.762zm240.892-193.443s-29.14 122.188-35.53 176.759c-.26 2.192 1.31 4.181 3.51 4.438 2.19.257 4.18-1.315 4.43-3.507 6.37-54.286 35.38-175.833 35.38-175.833.51-2.147-.82-4.307-2.97-4.819-2.14-.512-4.3.815-4.82 2.962zm-466.182 83.502c-69.373 15.55-111.76 28.759-132.362 40.228-2.411 1.342-3.279 4.389-1.936 6.8 1.342 2.412 4.389 3.279 6.8 1.937 20.176-11.231 61.745-23.978 129.686-39.207 2.692-.603 4.389-3.28 3.785-5.972-.604-2.693-3.28-4.389-5.973-3.786zm687.602-206.426c-.81.518-1.24.793-1.24.793-.93 7.323-1.87 14.854-2.81 22.552l-20.52-5.397c-.78-.206-1.36-.865-1.46-1.668-.11-.802.28-1.589.98-1.99zm66.45-96.66c3.37 10.408-17.58 28.22-17.58 28.22.6-.441 1.19-.849 1.76-1.226-14.61 13.394-34.34 29.286-53.39 37.671-2.02.89-4.38-.028-5.27-2.049-.89-2.02.03-4.383 2.05-5.272 32.07-14.118 66.08-50.379 72.43-57.344zm-18.35-18.523c-.18 10.842-15.18 26.206-15.18 26.206 1.1-.95 2.18-1.842 3.23-2.677-14.72 14.154-36.04 32.86-54.77 42.371-1.97 1-4.38.213-5.38-1.755-1-1.969-.21-4.378 1.76-5.378 30.21-15.342 67.3-55.441 70.34-58.767zm-24.43-14.775c-4.07 13.769-14.61 29.945-14.61 29.945.33-.304.66-.615.98-.931-12.2 12.768-28.67 26.746-47.2 33.775-2.07.782-4.38-.258-5.16-2.322s.26-4.376 2.32-5.159c31.99-12.131 57.37-46.267 63.67-55.308z" fill="#82b5b2"/><path d="m785.188 849.38 30.927-32.833c1.392-1.477 3.55-1.945 5.428-1.175 1.879.769 3.089 2.616 3.044 4.646l-.53 24.098zm342.992-34.425c-.09-4.36-.71-30.163-3.37-47.869-.2-.837.26-1.691 1.07-1.991.8-.3 1.71.049 2.1.814 5.78 11.009 14.56 28.86 19.59 44.371l-19.32-.27c.01 1.639-.02 3.289-.07 4.945z" fill="#346864"/><circle cx="910.065" cy="487.928" fill="#99c3c0" r="76.828" transform="matrix(1.01592 0 0 1.01932 -17.6908 -9.9515)"/><path d="m854.975 545.882c-16.05-14.351-26.162-35.24-26.162-58.48 0-43.222 34.974-78.312 78.051-78.312 26.385 0 49.73 13.164 63.862 33.301l-63.921 57.151c-.766-2.252-1.936-4.448-3.516-6.468-6.678-8.537-18.169-10.721-25.644-4.874s-8.122 17.525-1.444 26.062c2.075 2.653 4.614 4.692 7.354 6.068z"/><path d="m1757.08 618.191h77.041v93.557h-77.041z" fill="#fff" transform="matrix(.77416039182 0 .26879257405 .925945 189.7125825835 50.60082529495)"/><path d="m1759.73 709.614h24.32c1.4 0 2.22.956 1.81 2.134s-1.89 2.134-3.3 2.134h-26.23c-1.13 0-1.91-.627-1.91-1.539v-93.557c0-.645.39-1.34 1.06-1.876.67-.537 1.53-.853 2.34-.853h54.04c1.41 0 2.22.956 1.81 2.134s-1.88 2.134-3.29 2.134h-50.65z" transform="matrix(.77416039182 0 .26879257405 .925945 189.7125825835 50.60082529495)"/><path d="m1831.46 620.325h-21.08c-1.41 0-2.22-.956-1.81-2.134s1.88-2.134 3.29-2.134h23c1.13 0 1.91.627 1.91 1.539v93.557c0 .645-.39 1.34-1.06 1.877-.67.536-1.53.852-2.33.852h-50.82c-1.41 0-2.22-.956-1.81-2.134s1.89-2.134 3.3-2.134h47.41z" transform="matrix(.77416039182 0 .26879257405 .925945 189.7125825835 50.60082529495)"/><path d="m1756.99 627.483h53.328v7.484h-53.328z" transform="matrix(.925945 0 .44239337238 1.2802671137 -180.62310173 -172.550910425)"/><path d="m1756.99 627.483h53.328v7.484h-53.328z" transform="matrix(.925945 0 .44239337238 1.2802671137 -175.78040938 -156.819104875)"/><path d="m1756.99 627.483h53.328v7.484h-53.328z" transform="matrix(.925945 0 .44239337238 1.2802671137 -170.93771703 -141.087299325)"/><path d="m1756.99 627.483h53.328v7.484h-53.328z" transform="matrix(.925945 0 .44239337238 1.2802671137 -166.09502468 -125.35641972)"/><path d="m1756.99 627.483h53.328v7.484h-53.328z" transform="matrix(.925945 0 .44239337238 1.2802671137 -161.253258275 -109.62461417)"/><path d="m1789.51 672.758c-1.95-5.498-13.59-39.904-4.6-54.513.61-.951 1.58-1.611 2.68-1.822 3.2-.518 10.02.831 19.67 16.389 0 0 87.62 131.595 119.25 151.256 0 0 .84-100.484 119.15-116.913 16.42-2.281 131.84-24.715 196.53 135.43 21.4 52.983 21.16 95.346 20.78 140.628-.25 35.895-18.88 69.157-49.37 88.107-39.95 24.84-89.49 28.72-132.82 10.39-29.07-12.25-66.59-24.7-109.18-30.97l-93.5-9.04s4.67 25.55-34.04 20.63c0 0-30.48-4.02-24.39-24.463 0 0-20.54-3.322-16.3-23.176 0 0-19.47-15.192-2.18-33.738 0 0-56.21-.676-67.64-27.445-.96-2.316-1.02-4.913-.15-7.268 1.05-2.911 3.77-6.011 10.4-6.238 0 0 77.76-1.195 98.22-7.054l-44.45-75.621s-34.62-19.029-42.6-49.448c-8.22.038-15.2-6.302-15.83-14.629-.54-7.123 3.74-13.507 10.08-15.952l-3.64.275c-8.6.648-16.1-5.804-16.75-14.399-.52-6.937 3.58-13.163 9.7-15.648-8.3.383-15.45-5.911-16.08-14.246-.64-8.487 5.73-15.897 14.21-16.537z" fill="url(#c)"/><path d="m1876.82 1011.55c-18.3-1.05-32.99 3.34-32.99 3.34-2.65.8-5.44-.71-6.23-3.35s.71-5.43 3.36-6.23c0 0 21.37-6.408 45.62-2.79l-8.48-.82s.88 4.81-1.28 9.85zm-66.56-17.596c3.5-10.613 15.41-34.023 53.25-39.797 2.72-.416 5.28 1.461 5.69 4.189.42 2.728-1.46 5.281-4.19 5.697-33.37 5.092-43.01 26.062-45.47 33.802-.78-.145-5.19-1.06-9.28-3.891zm-14.11-28.421c4.89-10.43 18.22-27.378 54.04-34.05 2.71-.505 5.33 1.287 5.83 4 .51 2.713-1.29 5.326-4 5.831-44.69 8.324-48.79 34.008-48.65 33.377 0 0-4.47-3.487-7.22-9.158zm-7.37-25.445c5.85-7.583 24.37-28.685 51.7-32.601 2.73-.392 5.27 1.508 5.66 4.24s-1.51 5.267-4.24 5.659c-19.24 2.756-33.34 15.366-40.78 23.608-.93-.018-5.75-.187-12.34-.906zm290.83-50.61 61.05 21.461c2.6.915 5.46-.455 6.38-3.059.91-2.603-.46-5.46-3.06-6.375l-61.05-21.462c-2.61-.915-5.46.456-6.38 3.059-.91 2.604.46 5.46 3.06 6.376zm-242.8-5.405c6.41-1.267 76.96-14.966 128.42-14.413 2.76.03 4.98 2.294 4.95 5.054-.03 2.759-2.3 4.975-5.06 4.946-53.08-.571-124.47 13.682-123.1 13.288zm-39.24-66.746 15.47 6.959c2.01.931 2.87 3.312 1.95 5.314-.94 2.002-3.32 2.872-5.32 1.941l-5.15-2.397zm-10.68-152.705c9.05 1.474 15.49 6.307 17.83 10.129 5.23 8.531 3.16 16.904-1.84 22.868.32 1.589.87 4.014 1.7 6.968 1.21.851 2.23 1.737 3.08 2.621 4.63 4.81 4.93 9.914 5.02 11.489.1 1.898-.07 3.663-.47 5.301 4.36 8.206 10.5 16.299 19.17 20.956 1.94 1.044 2.67 3.471 1.63 5.416s-3.47 2.676-5.42 1.632c-3.67-1.974-6.97-4.463-9.94-7.292.01.038.02.075.03.113 3.25 10.157-1.96 21.122-11.92 25.003-15.16 5.949-36.4 6.344-48.01 6.026-1.12-2.561-2.06-5.22-2.78-7.973-1.02.005 30.38 1.362 47.87-5.504 6.1-2.376 9.25-9.128 7.16-15.329-.03-.069-.05-.139-.07-.209-1.5-4.125-5.6-6.731-9.98-6.317l-8.24.779c-1.58.469-2.58.674-2.58.674-.8.164-1.6.075-2.3-.213l-46.6 4.404c1.63-4.031 4.87-7.278 8.99-8.866l41.02-3.895c2.43-.769 6.1-2.2 9.23-4.548 2.94-2.209 5.47-5.3 5.22-9.717-.05-.874-.22-3.707-2.79-6.379-3.18-3.293-9.42-6.067-21.35-6.343-.32-.007-.63-.052-.92-.13-13.97.462-28.29.677-42.53 1.239-5.23-.241-9.86-3.121-12.47-7.415 20.69-1.175 41.81-1.258 61.99-2.087 2.85-.117 5.96-1.587 8.45-3.814.34-.604.84-1.116 1.45-1.473 3.1-3.579 4.42-8.559 1.38-13.807-2.82-4.862-8.39-6.171-8.39-6.171-.46-1.304-1.47-4.233-2.62-8.136zm25.29 77.477c-1.35.57-1.56 1.165-1.66 1.358.21-.303.47-.579.76-.815.27-.215.57-.398.9-.542l.07-.028zm-4.49-9.908c-.38.417-.79.82-1.2 1.208.95.321 1.87.721 2.75 1.195-.54-.794-1.05-1.596-1.55-2.403z" fill="#fd9500"/><path d="m1926.18 783.862.33.206s.84-100.484 119.15-116.913c16.42-2.281 131.84-24.715 196.53 135.43.23.557.45 1.112.67 1.665-38.34 40.355-80.49 9.938-80.49 9.938-20.61 63.005-86.51 35.935-86.51 35.935l21.32 45.52c-49.79-18.286-146.64-15.632-146.64-15.632-20.08-25.304-23.89-70.875-24.36-96.149z" fill="#fd9500"/><path d="m2073.87 888.92s-12.86-41.508-22.12-71.361c-.41-1.338.27-2.771 1.56-3.3 1.3-.528 2.79.024 3.43 1.271 16.39 32.048 41.1 80.341 41.1 80.341z" fill="#e86135"/><path d="m1708.24 1157.65c92.83-112.6 285.06-70.83 327.38-65.25 273.89 36.11 213.14 246.5 203.24 273.37-21.74 58.97-74.08 81.78-152.19 89.71v228.87s-23.84-21.29-29.32-45.47c0 0-9.4-.58-25.66-2.21 0 0 12.37 33.57 18.88 51.25.9 2.42.55 5.12-.93 7.23-1.47 2.12-3.88 3.38-6.46 3.38h-311.02c16.94-30.92 50.29-30.66 50.29-30.66-13.03-32.64-26.47-64.38-39.7-96.78-85.18-34.03-160.29-84.55-183.2-159.14-8.89-28.94-14.14-156.27 148.69-254.3z" fill="url(#d)"/><path d="m1752.04 1593.68c30.97 15.63 84.58 30.13 120.11-29.5.75-1.27 2.02-2.13 3.47-2.38 1.45-.24 2.93.17 4.06 1.12 0 0 22.22 18.79 49.55 28.07 15.76 5.35 33.28 7.61 49.02.51 10.42-4.71 19.98-13.54 27.79-28.07 1.3-2.43 4.33-3.35 6.77-2.04 2.43 1.31 3.34 4.34 2.03 6.77-9.07 16.89-20.36 26.98-32.48 32.45-18.09 8.17-38.24 6-56.35-.15-21.51-7.31-40.05-20.14-48.27-26.35-35.73 54.95-86.33 47.18-120.19 32.9l-2.36-5.69c-.83-2.01-1.66-4.02-2.49-6.03z" fill="#fd9500"/><path d="m1976.57 1457.56s-84.9-.35-131.62-.54c-1.91-.01-3.54 1.41-3.79 3.31-.24 1.9.96 3.69 2.81 4.17 48.96 12.84 142.74 37.44 142.74 37.44z" fill="#fd9500"/><path d="m2092.79 1454.82c-2.03.23-4.06.45-6.12.66v9.76c-37.28 2.34-71.82 2.92-105.5 2.46l61.2 169.98c-3.12-.28-6.7-.61-10.68-1.01l8.92 24.22c-.51-.51-.93-1.14-1.19-1.87l-68.94-191.49c-6.3-.13-12.57-.29-18.84-.48-2.75-.08-4.92-2.39-4.84-5.14.08-2.76 2.39-4.93 5.14-4.85 44.86 1.35 90.25 1.19 140.85-2.24zm-359.43-322.2c-56.99 50.82-79.47 106.28-63.75 202.9 10.7 65.8 38.92 150.36 85.78 264.85.31.75.42 1.54.36 2.3-4.34-10.49-8.68-21-13-31.58-3.99-1.59-7.95-3.22-11.89-4.89-38.15-96.48-61.55-170.23-71.12-229.07-11.71-71.94-2.98-121.99 24.53-164.03 7.55-5.22 15.53-10.37 23.97-15.45 7.73-9.38 16.15-17.69 25.12-25.03z" fill="#fd9500"/><circle cx="1957.8" cy="606.84" fill="#ffbf2f" r="70.296" transform="matrix(1.0436 0 0 1.05132 -87.9969 -50.2575)"/><path d="m1898.21 541.163c13.46-16.678 33.98-27.343 56.96-27.343 40.49 0 73.36 33.114 73.36 73.903 0 8.337-1.37 16.353-3.9 23.827-12.94-1.133-20.29-10.769-22.82-14.798 4.73-2.436 8.02-7.806 8.02-14.032 0-8.514-6.15-15.427-13.73-15.427s-13.73 6.913-13.73 15.427c0 2.012.34 3.936.97 5.7-46.48 5.007-76.04-33.366-85.13-47.257zm33.32-39.106c1.9.64 3.99-.092 5.08-1.777 1.08-1.684.89-3.891-.48-5.358-.39-.481-.83-.949-1.29-1.431-11.56-12.055-24.58-22.995-38.45-32.249-42.66-28.471-93.49-49.767-143.46-61.067-51.62-11.672-116.05-12.329-161.66 17.878-30.01 19.871-52.45 61.917-26.58 94.751 9.28 11.777 22.61 19.962 36.39 25.474 55.78 22.312 113.94 8.236 166.93-14.106 30.17-12.721 60.17-29.584 93.03-34.817 20.63-3.285 52.46 6.317 70.49 12.702z"/><path d="m2208.42 1455.26 139.59-376.87 29.79 10.86-221.66 608.22h-37.43l77.97-210.51h-222.08v-31.7z" transform="translate(6.02348 2.73409)"/><path d="m1242.49 686.84h497.646v305.717h-497.646z" transform="matrix(.843235 0 .162401 .964007 99.7904 26.5646)"/><path d="m1242.49 686.84h497.646v305.717h-497.646z" transform="matrix(.188267 0 .0445801 .264627 1212.9 786.955)"/><path d="m1242.49 686.84h497.646v305.717h-497.646z" fill="#eaeaeb" transform="matrix(.737584 0 .134256 .796939 280.009 163.781)"/><path d="m1242.49 686.84h497.646v305.717h-497.646z" fill="#fff" transform="matrix(.250622 0 .059635 .353992 1167 489.54)"/><path d="m1254.63 695.315v105.751c0 4.612-5.44 8.987-12.14 9.764-6.7.778-12.14-2.336-12.14-6.949v-115.633c0-2.459 1.57-4.976 4.3-6.88s6.33-3.002 9.85-3.002h497.65c5.84 0 10.12 2.987 10.12 7.067v115.633c0 4.612-5.44 8.987-12.14 9.764-6.7.778-12.13-2.336-12.13-6.949v-108.566z" transform="matrix(.250622 0 .059635 .353992 1167 489.54)"/><path d="m1728 984.083v-180.202c0-4.612 5.43-8.988 12.13-9.765s12.14 2.337 12.14 6.95v190.084c0 2.459-1.57 4.976-4.3 6.88s-6.33 3-9.85 3h-497.65c-5.84 0-10.12-2.985-10.12-7.065v-190.084c0-4.612 5.44-8.988 12.14-9.765s12.14 2.337 12.14 6.95v183.017z" transform="matrix(.250622 0 .059635 .353992 1167 489.54)"/><path d="m1582.76 840.898h-6.08l-18.35-108.222h6.09zm44.37 0h-6.09l-18.34-108.222h6.08z"/><path d="m1658.11 815.995h-124.72l-1.01-6h124.72zm-4.49-26.675h-124.72l-1.01-6h124.72zm-4.83-28.686h-124.72l-1.02-6h124.73z"/><path d="m1510.92 992.558h229.21v-305.718h-165.52" fill="#fff" transform="matrix(.43426 0 .0904681 .537017 741.787 400.271)"/><path d="m1733.13 692.427h-159.69c-3.81 0-6.38-2.503-5.74-5.587.64-3.083 4.26-5.586 8.07-5.586h165.53c3.37 0 5.84 1.969 5.84 4.658v305.718c0 1.621-.91 3.28-2.48 4.535-1.58 1.255-3.66 1.979-5.69 1.979h-229.22c-3.81 0-6.38-2.503-5.74-5.586.64-3.084 4.26-5.587 8.07-5.587h221.05z" transform="matrix(.43426 0 .0904681 .537017 741.787 400.271)"/><path d="m1574.61 686.84h-332.12v305.718h268.43" fill="#fff" transform="matrix(.43426 0 .0904681 .537017 741.787 400.271)"/><path d="m1249.49 986.971h262.59c3.81 0 6.39 2.503 5.75 5.587-.65 3.083-4.26 5.586-8.08 5.586h-268.43c-3.37 0-5.84-1.969-5.84-4.658v-305.717c0-1.621.91-3.28 2.48-4.536 1.58-1.255 3.66-1.979 5.69-1.979h332.12c3.81 0 6.39 2.503 5.75 5.586-.65 3.084-4.26 5.587-8.08 5.587h-323.95z" transform="matrix(.43426 0 .0904681 .537017 741.787 400.271)"/><path d="m1242.49 686.84h497.646v305.717h-497.646z" transform="matrix(.43426 0 .0108641 .064489 796.463 724.822)"/><path d="m1579.47 887.098h-216.11l-1.01-6h216.11zm-8.91-52.874h-216.1l-1.02-6h216.11z"/><path d="m1426.53 933.291h-6.08l-27.83-164.175h6.08zm58.89 0h-6.09l-27.83-164.175h6.09zm58.15 0h-6.08l-27.83-164.175h6.08z"/><path d="m.622-.215c0 .043-.011.082-.033.117-.023.034-.055.061-.098.081-.043.019-.094.029-.153.029-.071 0-.129-.013-.175-.04-.032-.019-.059-.045-.079-.077-.021-.032-.031-.063-.031-.093 0-.018.006-.033.019-.045.012-.013.027-.019.046-.019.015 0 .028.005.039.014.011.01.02.025.027.044.009.023.019.042.03.057.01.015.025.028.044.038.02.01.045.015.076.015.043 0 .078-.01.105-.03s.04-.045.04-.075c0-.024-.007-.043-.022-.058-.014-.015-.033-.026-.056-.034s-.054-.016-.092-.025c-.051-.012-.094-.026-.129-.042s-.062-.038-.083-.066c-.02-.028-.03-.062-.03-.104 0-.039.011-.074.032-.105.022-.03.053-.054.093-.07.041-.017.089-.025.144-.025.044 0 .082.005.114.016s.059.026.08.044.036.037.046.057.015.039.015.058c0 .017-.006.033-.018.046-.013.014-.028.021-.046.021-.017 0-.029-.004-.038-.012-.009-.009-.018-.022-.028-.041-.013-.027-.029-.048-.047-.063s-.047-.023-.088-.023c-.037 0-.067.008-.09.025-.023.016-.035.036-.035.059 0 .014.004.027.012.037.008.011.018.019.032.027.014.007.028.013.042.018.014.004.037.01.069.018.04.01.077.02.11.031.032.012.06.026.083.042s.041.037.054.062.019.055.019.091z" fill-rule="nonzero" transform="matrix(39.1332 -3.06228 2.9801 38.083 1539.87 874.293)"/><path d="m1547.41 845.252 3.73 31.178c.2 1.644 1.69 2.819 3.33 2.623 1.65-.196 2.82-1.691 2.63-3.335l-3.73-31.178c-.19-1.644-1.69-2.819-3.33-2.623-1.65.197-2.82 1.691-2.63 3.335z" transform="matrix(.999849 -.0173515 .0173515 .999849 -14.7933 25.9972)"/><path d="m1371.33 798.43 3.43 19.941c.28 1.632 1.84 2.728 3.47 2.448 1.63-.281 2.73-1.834 2.44-3.466l-3.43-19.94c-.28-1.632-1.83-2.729-3.46-2.448s-2.73 1.833-2.45 3.465z"/><path d="m1371.33 798.43 3.43 19.941c.28 1.632 1.84 2.728 3.47 2.448 1.63-.281 2.73-1.834 2.44-3.466l-3.43-19.94c-.28-1.632-1.83-2.729-3.46-2.448s-2.73 1.833-2.45 3.465z" transform="translate(18.943 101.882)"/><path d="m1432.45 800.316c1.05 0 1.79.998 2.47 2.193 1.13 1.963 1.78 4.687 1.78 7.68 0 2.994-.65 5.717-1.78 7.681-.68 1.194-1.42 2.192-2.47 2.192-1.88 0-3.4 1.566-3.4 3.494s1.52 3.494 3.4 3.494c2.65 0 5.19-1.344 7.18-3.89 2.28-2.933 3.88-7.635 3.88-12.971s-1.6-10.037-3.88-12.97c-1.99-2.546-4.53-3.89-7.18-3.89-1.88 0-3.4 1.565-3.4 3.494 0 1.928 1.52 3.493 3.4 3.493z" transform="matrix(.872154 -.126564 .123316 .849772 92.3663 350.963)"/><path d="m1432.45 820.062c-1.04 0-1.79-.998-2.47-2.192-1.12-1.964-1.77-4.687-1.77-7.681 0-2.993.65-5.717 1.77-7.68.68-1.195 1.43-2.193 2.47-2.193 1.88 0 3.41-1.565 3.41-3.493 0-1.929-1.53-3.494-3.41-3.494-2.65 0-5.18 1.344-7.17 3.89-2.29 2.933-3.88 7.634-3.88 12.97s1.59 10.038 3.88 12.971c1.99 2.546 4.52 3.89 7.17 3.89 1.88 0 3.41-1.566 3.41-3.494s-1.53-3.494-3.41-3.494z" transform="matrix(.872154 -.126564 .123316 .849772 92.3663 350.963)"/><path d="m1432.45 800.316c1.05 0 1.79.998 2.47 2.193 1.13 1.963 1.78 4.687 1.78 7.68 0 2.994-.65 5.717-1.78 7.681-.68 1.194-1.42 2.192-2.47 2.192-1.88 0-3.4 1.566-3.4 3.494s1.52 3.494 3.4 3.494c2.65 0 5.19-1.344 7.18-3.89 2.28-2.933 3.88-7.635 3.88-12.971s-1.6-10.037-3.88-12.97c-1.99-2.546-4.53-3.89-7.18-3.89-1.88 0-3.4 1.565-3.4 3.494 0 1.928 1.52 3.493 3.4 3.493z" transform="matrix(.872154 -.126564 .123316 .849772 100.543 403.611)"/><path d="m1432.45 820.062c-1.04 0-1.79-.998-2.47-2.192-1.12-1.964-1.77-4.687-1.77-7.681 0-2.993.65-5.717 1.77-7.68.68-1.195 1.43-2.193 2.47-2.193 1.88 0 3.41-1.565 3.41-3.493 0-1.929-1.53-3.494-3.41-3.494-2.65 0-5.18 1.344-7.17 3.89-2.29 2.933-3.88 7.634-3.88 12.97s1.59 10.038 3.88 12.971c1.99 2.546 4.52 3.89 7.17 3.89 1.88 0 3.41-1.566 3.41-3.494s-1.53-3.494-3.41-3.494z" transform="matrix(.872154 -.126564 .123316 .849772 100.543 403.611)"/><path d="m1432.45 800.316c1.05 0 1.79.998 2.47 2.193 1.13 1.963 1.78 4.687 1.78 7.68 0 2.994-.65 5.717-1.78 7.681-.68 1.194-1.42 2.192-2.47 2.192-1.88 0-3.4 1.566-3.4 3.494s1.52 3.494 3.4 3.494c2.65 0 5.19-1.344 7.18-3.89 2.28-2.933 3.88-7.635 3.88-12.971s-1.6-10.037-3.88-12.97c-1.99-2.546-4.53-3.89-7.18-3.89-1.88 0-3.4 1.565-3.4 3.494 0 1.928 1.52 3.493 3.4 3.493z" transform="matrix(.872154 -.126564 .123316 .849772 158.987 403.58)"/><path d="m1432.45 820.062c-1.04 0-1.79-.998-2.47-2.192-1.12-1.964-1.77-4.687-1.77-7.681 0-2.993.65-5.717 1.77-7.68.68-1.195 1.43-2.193 2.47-2.193 1.88 0 3.41-1.565 3.41-3.493 0-1.929-1.53-3.494-3.41-3.494-2.65 0-5.18 1.344-7.17 3.89-2.29 2.933-3.88 7.634-3.88 12.97s1.59 10.038 3.88 12.971c1.99 2.546 4.52 3.89 7.17 3.89 1.88 0 3.41-1.566 3.41-3.494s-1.53-3.494-3.41-3.494z" transform="matrix(.872154 -.126564 .123316 .849772 158.987 403.58)"/><path d="m1323.04 461.54h148.747v183.517h-148.747z" fill="#dd6140" transform="matrix(.783652 .324094 -.364731 .799184 456.503 -337.805)"/><g fill="#fff"><path d="m1323.04 461.54h148.747v183.517h-148.747z" transform="matrix(.647214 .267668 -.0474112 .103886 493.968 77.1391)"/><path d="m1325.61 518.351c4.47 0 8.12 3.598 8.12 8.066s-3.65 8.066-8.12 8.066v3.146c6.17 0 11.15-5.04 11.15-11.212s-4.98-11.212-11.15-11.212z" transform="matrix(.907626 .392889 -.37877 .87501 318.062 -459.153)"/><path d="m1325.61 534.483c-4.47 0-8.12-3.598-8.12-8.066s3.65-8.066 8.12-8.066v-3.146c-6.18 0-11.16 5.04-11.16 11.212s4.98 11.212 11.16 11.212z" transform="matrix(.907626 .392889 -.37877 .87501 318.062 -459.153)"/><path d="m1325.61 518.351c4.47 0 8.12 3.598 8.12 8.066s-3.65 8.066-8.12 8.066v3.146c6.17 0 11.15-5.04 11.15-11.212s-4.98-11.212-11.15-11.212z" transform="matrix(.907626 .392889 -.37877 .87501 307.832 -435.519)"/><path d="m1325.61 534.483c-4.47 0-8.12-3.598-8.12-8.066s3.65-8.066 8.12-8.066v-3.146c-6.18 0-11.16 5.04-11.16 11.212s4.98 11.212 11.16 11.212z" transform="matrix(.907626 .392889 -.37877 .87501 307.832 -435.519)"/><path d="m1325.61 518.351c4.47 0 8.12 3.598 8.12 8.066s-3.65 8.066-8.12 8.066v3.146c6.17 0 11.15-5.04 11.15-11.212s-4.98-11.212-11.15-11.212z" transform="matrix(.907626 .392889 -.37877 .87501 297.602 -411.886)"/><path d="m1325.61 534.483c-4.47 0-8.12-3.598-8.12-8.066s3.65-8.066 8.12-8.066v-3.146c-6.18 0-11.16 5.04-11.16 11.212s4.98 11.212 11.16 11.212z" transform="matrix(.907626 .392889 -.37877 .87501 297.602 -411.886)"/><path d="m1325.61 518.351c4.47 0 8.12 3.598 8.12 8.066s-3.65 8.066-8.12 8.066v3.146c6.17 0 11.15-5.04 11.15-11.212s-4.98-11.212-11.15-11.212z" transform="matrix(.907626 .392889 -.37877 .87501 287.371 -388.252)"/><path d="m1325.61 534.483c-4.47 0-8.12-3.598-8.12-8.066s3.65-8.066 8.12-8.066v-3.146c-6.18 0-11.16 5.04-11.16 11.212s4.98 11.212 11.16 11.212z" transform="matrix(.907626 .392889 -.37877 .87501 287.371 -388.252)"/><path d="m1325.61 518.351c4.47 0 8.12 3.598 8.12 8.066s-3.65 8.066-8.12 8.066v3.146c6.17 0 11.15-5.04 11.15-11.212s-4.98-11.212-11.15-11.212z" transform="matrix(.907626 .392889 -.37877 .87501 341.967 -448.805)"/><path d="m1325.61 534.483c-4.47 0-8.12-3.598-8.12-8.066s3.65-8.066 8.12-8.066v-3.146c-6.18 0-11.16 5.04-11.16 11.212s4.98 11.212 11.16 11.212z" transform="matrix(.907626 .392889 -.37877 .87501 341.967 -448.805)"/><path d="m1325.61 518.351c4.47 0 8.12 3.598 8.12 8.066s-3.65 8.066-8.12 8.066v3.146c6.17 0 11.15-5.04 11.15-11.212s-4.98-11.212-11.15-11.212z" transform="matrix(.907626 .392889 -.37877 .87501 331.736 -425.172)"/><path d="m1325.61 534.483c-4.47 0-8.12-3.598-8.12-8.066s3.65-8.066 8.12-8.066v-3.146c-6.18 0-11.16 5.04-11.16 11.212s4.98 11.212 11.16 11.212z" transform="matrix(.907626 .392889 -.37877 .87501 331.736 -425.172)"/><path d="m1325.61 518.351c4.47 0 8.12 3.598 8.12 8.066s-3.65 8.066-8.12 8.066v3.146c6.17 0 11.15-5.04 11.15-11.212s-4.98-11.212-11.15-11.212z" transform="matrix(.907626 .392889 -.37877 .87501 321.506 -401.538)"/><path d="m1325.61 534.483c-4.47 0-8.12-3.598-8.12-8.066s3.65-8.066 8.12-8.066v-3.146c-6.18 0-11.16 5.04-11.16 11.212s4.98 11.212 11.16 11.212z" transform="matrix(.907626 .392889 -.37877 .87501 321.506 -401.538)"/><path d="m1325.61 518.351c4.47 0 8.12 3.598 8.12 8.066s-3.65 8.066-8.12 8.066v3.146c6.17 0 11.15-5.04 11.15-11.212s-4.98-11.212-11.15-11.212z" transform="matrix(.907626 .392889 -.37877 .87501 311.275 -377.905)"/><path d="m1325.61 534.483c-4.47 0-8.12-3.598-8.12-8.066s3.65-8.066 8.12-8.066v-3.146c-6.18 0-11.16 5.04-11.16 11.212s4.98 11.212 11.16 11.212z" transform="matrix(.907626 .392889 -.37877 .87501 311.275 -377.905)"/><path d="m1325.61 518.351c4.47 0 8.12 3.598 8.12 8.066s-3.65 8.066-8.12 8.066v3.146c6.17 0 11.15-5.04 11.15-11.212s-4.98-11.212-11.15-11.212z" transform="matrix(.907626 .392889 -.37877 .87501 365.871 -438.458)"/><path d="m1325.61 534.483c-4.47 0-8.12-3.598-8.12-8.066s3.65-8.066 8.12-8.066v-3.146c-6.18 0-11.16 5.04-11.16 11.212s4.98 11.212 11.16 11.212z" transform="matrix(.907626 .392889 -.37877 .87501 365.871 -438.458)"/><path d="m1325.61 518.351c4.47 0 8.12 3.598 8.12 8.066s-3.65 8.066-8.12 8.066v3.146c6.17 0 11.15-5.04 11.15-11.212s-4.98-11.212-11.15-11.212z" transform="matrix(.907626 .392889 -.37877 .87501 355.641 -414.824)"/><path d="m1325.61 534.483c-4.47 0-8.12-3.598-8.12-8.066s3.65-8.066 8.12-8.066v-3.146c-6.18 0-11.16 5.04-11.16 11.212s4.98 11.212 11.16 11.212z" transform="matrix(.907626 .392889 -.37877 .87501 355.641 -414.824)"/><path d="m1325.61 518.351c4.47 0 8.12 3.598 8.12 8.066s-3.65 8.066-8.12 8.066v3.146c6.17 0 11.15-5.04 11.15-11.212s-4.98-11.212-11.15-11.212z" transform="matrix(.907626 .392889 -.37877 .87501 345.41 -391.191)"/><path d="m1325.61 534.483c-4.47 0-8.12-3.598-8.12-8.066s3.65-8.066 8.12-8.066v-3.146c-6.18 0-11.16 5.04-11.16 11.212s4.98 11.212 11.16 11.212z" transform="matrix(.907626 .392889 -.37877 .87501 345.41 -391.191)"/><path d="m1325.61 518.351c4.47 0 8.12 3.598 8.12 8.066s-3.65 8.066-8.12 8.066v3.146c6.17 0 11.15-5.04 11.15-11.212s-4.98-11.212-11.15-11.212z" transform="matrix(.907626 .392889 -.37877 .87501 335.18 -367.557)"/><path d="m1325.61 534.483c-4.47 0-8.12-3.598-8.12-8.066s3.65-8.066 8.12-8.066v-3.146c-6.18 0-11.16 5.04-11.16 11.212s4.98 11.212 11.16 11.212z" transform="matrix(.907626 .392889 -.37877 .87501 335.18 -367.557)"/><path d="m1325.61 518.351c4.47 0 8.12 3.598 8.12 8.066s-3.65 8.066-8.12 8.066v3.146c6.17 0 11.15-5.04 11.15-11.212s-4.98-11.212-11.15-11.212z" transform="matrix(.907626 .392889 -.37877 .87501 389.775 -428.11)"/><path d="m1325.61 534.483c-4.47 0-8.12-3.598-8.12-8.066s3.65-8.066 8.12-8.066v-3.146c-6.18 0-11.16 5.04-11.16 11.212s4.98 11.212 11.16 11.212z" transform="matrix(.907626 .392889 -.37877 .87501 389.775 -428.11)"/><path d="m1325.61 518.351c4.47 0 8.12 3.598 8.12 8.066s-3.65 8.066-8.12 8.066v3.146c6.17 0 11.15-5.04 11.15-11.212s-4.98-11.212-11.15-11.212z" transform="matrix(.907626 .392889 -.37877 .87501 379.545 -404.476)"/><path d="m1325.61 534.483c-4.47 0-8.12-3.598-8.12-8.066s3.65-8.066 8.12-8.066v-3.146c-6.18 0-11.16 5.04-11.16 11.212s4.98 11.212 11.16 11.212z" transform="matrix(.907626 .392889 -.37877 .87501 379.545 -404.476)"/><path d="m1325.61 518.351c4.47 0 8.12 3.598 8.12 8.066s-3.65 8.066-8.12 8.066v3.146c6.17 0 11.15-5.04 11.15-11.212s-4.98-11.212-11.15-11.212z" transform="matrix(.907626 .392889 -.37877 .87501 369.314 -380.843)"/><path d="m1325.61 534.483c-4.47 0-8.12-3.598-8.12-8.066s3.65-8.066 8.12-8.066v-3.146c-6.18 0-11.16 5.04-11.16 11.212s4.98 11.212 11.16 11.212z" transform="matrix(.907626 .392889 -.37877 .87501 369.314 -380.843)"/><path d="m1325.61 518.351c4.47 0 8.12 3.598 8.12 8.066s-3.65 8.066-8.12 8.066v3.146c6.17 0 11.15-5.04 11.15-11.212s-4.98-11.212-11.15-11.212z" transform="matrix(.907626 .392889 -.37877 .87501 359.084 -357.209)"/><path d="m1325.61 534.483c-4.47 0-8.12-3.598-8.12-8.066s3.65-8.066 8.12-8.066v-3.146c-6.18 0-11.16 5.04-11.16 11.212s4.98 11.212 11.16 11.212z" transform="matrix(.907626 .392889 -.37877 .87501 359.084 -357.209)"/></g><path d="m727.61079 1046.43912h1340.43v37.948h-1340.43z"/><path d="m1688.28 1027.9h17.09v-7.16h26.68v7.16h18.19v-7.16h26.68v7.16h18.2v-7.16h26.68v7.16h5.68c2.61 0 5.11 1.04 6.96 2.89 1.84 1.84 2.88 4.34 2.88 6.95v9.98h-193.28s0-5 0-9.98c0-2.61 1.04-5.11 2.88-6.95 1.85-1.85 4.35-2.89 6.96-2.89h7.72v-7.16h26.68z" fill="#d2d3d5" transform="translate(-.676235 -1.59399)"/><path d="m789.796 979.025h240.809v26.775h-240.809z" fill="#fff" transform="matrix(.974413 0 0 1 22.0427 43.2776)"/><path d="m918.566 1017.91v8h-121.608v17.21h121.608v8h-125.608c-2.209 0-4-1.79-4-4v-25.21c0-2.21 1.791-4 4-4z"/><path d="m918.566 1017.91h111.114c2.21 0 4 1.79 4 4v25.21c0 2.21-1.79 4-4 4h-111.114c-3.722-3.92-2.299-6.11 0-8h107.114v-17.21h-107.114c-1.516-2.95-1.888-5.69 0-8z"/><path d="m933.095 1023.13.654 25.12c.058 2.21 1.896 3.95 4.103 3.9 2.207-.06 3.952-1.9 3.895-4.11l-.655-25.12c-.058-2.2-1.896-3.95-4.103-3.89s-3.952 1.9-3.894 4.1zm50.225-11.7v35.28c0 2.21 1.792 4 4 4 2.207 0 4-1.79 4-4v-35.28c0-2.21-1.793-4-4-4-2.208 0-4 1.79-4 4zm-24.649.58v32.43c0 2.21 1.792 4 4 4s4-1.79 4-4v-32.43c0-2.21-1.792-4-4-4s-4 1.79-4 4zm48.159-.23v31.81c0 2.2 1.79 4 4 4s4-1.8 4-4v-31.81c0-2.2-1.79-4-4-4s-4 1.8-4 4z"/><g transform="translate(3.16784 -1.5972)"><path d="m1081.12 833.887h-7.08c-3.94 0-7.14-3.2-7.14-7.14 0-3.941 3.2-7.14 7.14-7.14h177.58c3.95 0 7.14 3.199 7.14 7.14 0 3.94-3.19 7.14-7.14 7.14h-3.3c3.59 1.262 6.9 3.321 9.64 6.068 4.82 4.813 7.52 11.341 7.52 18.147v189.658h-201.53s0-132.556 0-189.658c0-6.806 2.71-13.334 7.52-18.147 2.75-2.747 6.05-4.806 9.65-6.068z" fill="#fff4e5"/><path d="m1248.32 833.887c2.56.898 4.97 2.202 7.14 3.869l-186.93 5.72c.87-1.251 1.85-2.43 2.94-3.521 2.75-2.747 6.05-4.806 9.65-6.068z" fill="#f4978b"/></g><g transform="translate(3.16784 -1.5972)"><path d="m1090.3 886.251h71.37v115.885h-71.37z" fill="#f4978b" transform="matrix(.910266 -.275905 .29456 .971812 -183.502 326.179)"/><g fill="#de6647"><path d="m1116.04 930.425c7.62 0 13.81 6.19 13.81 13.814s-6.19 13.813-13.81 13.813c-1.66 0-3 1.344-3 3s1.34 3 3 3c10.93 0 19.81-8.878 19.81-19.813s-8.88-19.814-19.81-19.814c-1.66 0-3 1.345-3 3 0 1.656 1.34 3 3 3z" transform="translate(4.58908 -9.29654)"/><path d="m1116.04 958.052c-7.63 0-13.81-6.189-13.81-13.813s6.18-13.814 13.81-13.814c1.65 0 3-1.344 3-3 0-1.655-1.35-3-3-3-10.94 0-19.81 8.879-19.81 19.814s8.87 19.813 19.81 19.813c1.65 0 3-1.344 3-3s-1.35-3-3-3z" transform="translate(4.58908 -9.29654)"/><path d="m1127.02 992.315-5.18-15.855c-.68-2.098.47-4.358 2.56-5.043 2.1-.685 4.36.462 5.05 2.561l5.23 16.016zm10.77-3.265-3.49-11.283c-.65-2.109.53-4.351 2.64-5.004 2.11-.652 4.35.53 5 2.639l3.51 11.327zm-25.42-115.259 5.65 18.264c.65 2.109-.53 4.351-2.64 5.003-2.11.653-4.35-.53-5-2.639l-5.67-18.307zm-12.53 3.797 4.75 13.847c.72 2.088-.4 4.365-2.49 5.081s-4.36-.398-5.08-2.487l-4.84-14.119z"/></g><g transform="matrix(.849564 .527485 -.527485 .849564 755.422 -402.502)"><path d="m1090.3 886.251h71.37v115.885h-71.37z" fill="#f4978b" transform="matrix(.910266 -.275905 .29456 .971812 -183.502 326.179)"/><g fill="#de6647"><path d="m1116.04 930.425c7.62 0 13.81 6.19 13.81 13.814s-6.19 13.813-13.81 13.813c-1.66 0-3 1.344-3 3s1.34 3 3 3c10.93 0 19.81-8.878 19.81-19.813s-8.88-19.814-19.81-19.814c-1.66 0-3 1.345-3 3 0 1.656 1.34 3 3 3z" transform="translate(4.58908 -9.29654)"/><path d="m1116.04 958.052c-7.63 0-13.81-6.189-13.81-13.813s6.18-13.814 13.81-13.814c1.65 0 3-1.344 3-3 0-1.655-1.35-3-3-3-10.94 0-19.81 8.879-19.81 19.814s8.87 19.813 19.81 19.813c1.65 0 3-1.344 3-3s-1.35-3-3-3z" transform="translate(4.58908 -9.29654)"/><path d="m1127.02 992.315-5.18-15.855c-.68-2.098.47-4.358 2.56-5.043 2.1-.685 4.36.462 5.05 2.561l5.23 16.016zm10.77-3.265-3.49-11.283c-.65-2.109.53-4.351 2.64-5.004 2.11-.652 4.35.53 5 2.639l3.51 11.327zm-25.42-115.259 5.65 18.264c.65 2.109-.53 4.351-2.64 5.003-2.11.653-4.35-.53-5-2.639l-5.67-18.307zm-12.53 3.797 4.75 13.847c.72 2.088-.4 4.365-2.49 5.081s-4.36-.398-5.08-2.487l-4.84-14.119z"/></g></g></g><circle cx="1494.85" cy="372.517" fill="#ffcf84" r="157.821" transform="matrix(.15348033708 0 0 .15348 972.723219606 820.388772432)"/><path d="m1203.57 867.056c8.21 0 14.88 6.671 14.88 14.888 0 8.218-6.67 14.889-14.88 14.889-.79 0-1.44.641-1.44 1.43s.65 1.43 1.44 1.43c9.79 0 17.74-7.953 17.74-17.749 0-9.795-7.95-17.748-17.74-17.748-.79 0-1.44.641-1.44 1.43s.65 1.43 1.44 1.43z" fill="#fda92f" transform="matrix(1.06607539038 0 0 1.0660751496 -80.62735362 -62.2161396)"/><path d="m1203.57 896.833c-8.22 0-14.89-6.671-14.89-14.889 0-8.217 6.67-14.888 14.89-14.888.78 0 1.42-.641 1.42-1.43s-.64-1.43-1.42-1.43c-9.8 0-17.75 7.953-17.75 17.748 0 9.796 7.95 17.749 17.75 17.749.78 0 1.42-.641 1.42-1.43s-.64-1.43-1.42-1.43z" fill="#fda92f" transform="matrix(1.06607539038 0 0 1.0660751496 -80.62735362 -62.2161396)"/><path d="m1195.38 903.115.22-5.792c.03-.841.74-1.497 1.58-1.464.85.032 1.5.741 1.47 1.582l-.23 5.935c-1.03-.024-2.05-.112-3.04-.261zm8.87-.308-1.49-5.917c-.2-.816.29-1.645 1.11-1.85.81-.205 1.64.291 1.85 1.106l1.46 5.812c-.95.343-1.93.627-2.93.849zm-25.41-10.2 4.56-3.601c.66-.522 1.62-.409 2.14.251s.41 1.619-.25 2.141l-4.6 3.632c-.66-.767-1.28-1.576-1.85-2.423zm-3.08-6.547 5.7-3.089c.74-.401 1.67-.126 2.07.614.4.739.12 1.665-.62 2.066l-6.08 3.299c-.42-.934-.77-1.899-1.07-2.89zm47.18-3.323-5.5-.255c-.84-.039-1.49-.753-1.45-1.593.04-.841.75-1.491 1.59-1.453l5.62.261c-.02 1.03-.11 2.044-.26 3.04zm-7.01-20.877c.73.713 1.41 1.471 2.05 2.271l-4.47 4.59c-.59.603-1.55.617-2.15.03-.61-.587-.62-1.553-.03-2.156zm-29.01-3.702 3.96 5.914c.47.699.28 1.646-.42 2.115-.7.468-1.65.281-2.11-.418l-3.97-5.926c.8-.613 1.65-1.176 2.54-1.685zm14.17-3.13c1.02.088 2.03.24 3.02.453l-.6 6.052c-.09.838-.84 1.45-1.67 1.366-.84-.083-1.45-.83-1.37-1.667z" fill="#fda92f" transform="matrix(.9999975146 0 0 .99999894 3.17022276 -1.596144)"/><circle cx="1494.85" cy="372.517" fill="#ffcf84" r="157.821" transform="matrix(-.01741449098 .15248911452 -.152489 -.0174144 1243.5996833736 709.68902483704)"/><path d="m1203.57 867.056c8.21 0 14.88 6.671 14.88 14.888 0 8.218-6.67 14.889-14.88 14.889-.79 0-1.44.641-1.44 1.43s.65 1.43 1.44 1.43c9.79 0 17.74-7.953 17.74-17.749 0-9.795-7.95-17.748-17.74-17.748-.79 0-1.44.641-1.44 1.43s.65 1.43 1.44 1.43z" fill="#fda92f" transform="matrix(-.12096116432 1.05919035222 -1.05919164378 -.12096077069 2240.023088406 -236.715121892)"/><path d="m1203.57 896.833c-8.22 0-14.89-6.671-14.89-14.889 0-8.217 6.67-14.888 14.89-14.888.78 0 1.42-.641 1.42-1.43s-.64-1.43-1.42-1.43c-9.8 0-17.75 7.953-17.75 17.748 0 9.796 7.95 17.749 17.75 17.749.78 0 1.42-.641 1.42-1.43s-.64-1.43-1.42-1.43z" fill="#fda92f" transform="matrix(-.12096116432 1.05919035222 -1.05919164378 -.12096077069 2240.023088406 -236.715121892)"/><path d="m1195.38 903.115.22-5.792c.03-.841.74-1.497 1.58-1.464.85.032 1.5.741 1.47 1.582l-.23 5.935c-1.03-.024-2.05-.112-3.04-.261zm8.87-.308-1.49-5.917c-.2-.816.29-1.645 1.11-1.85.81-.205 1.64.291 1.85 1.106l1.46 5.812c-.95.343-1.93.627-2.93.849zm-25.41-10.2 4.56-3.601c.66-.522 1.62-.409 2.14.251s.41 1.619-.25 2.141l-4.6 3.632c-.66-.767-1.28-1.576-1.85-2.423zm-3.08-6.547 5.7-3.089c.74-.401 1.67-.126 2.07.614.4.739.12 1.665-.62 2.066l-6.08 3.299c-.42-.934-.77-1.899-1.07-2.89zm47.18-3.323-5.5-.255c-.84-.039-1.49-.753-1.45-1.593.04-.841.75-1.491 1.59-1.453l5.62.261c-.02 1.03-.11 2.044-.26 3.04zm-7.01-20.877c.73.713 1.41 1.471 2.05 2.271l-4.47 4.59c-.59.603-1.55.617-2.15.03-.61-.587-.62-1.553-.03-2.156zm-29.01-3.702 3.96 5.914c.47.699.28 1.646-.42 2.115-.7.468-1.65.281-2.11-.418l-3.97-5.926c.8-.613 1.65-1.176 2.54-1.685zm14.17-3.13c1.02.088 2.03.24 3.02.453l-.6 6.052c-.09.838-.84 1.45-1.67 1.366-.84-.083-1.45-.83-1.37-1.667z" fill="#fda92f" transform="matrix(-.11346370508 .9935392274 -.9935420795 -.1134635232 2170.286500952 -160.33690124)"/><circle cx="1494.85" cy="372.517" fill="#ffcf84" r="157.821" transform="matrix(.11247555504 .10442993046 -.10443 .112475 978.612746316 821.191304537)"/><path d="m1203.57 867.056c8.21 0 14.88 6.671 14.88 14.888 0 8.218-6.67 14.889-14.88 14.889-.79 0-1.44.641-1.44 1.43s.65 1.43 1.44 1.43c9.79 0 17.74-7.953 17.74-17.749 0-9.795-7.95-17.748-17.74-17.748-.79 0-1.44.641-1.44 1.43s.65 1.43 1.44 1.43z" fill="#fda92f" transform="matrix(.78125591544 .72537095631 -.7253728686 .7812535995 807.21908454 -542.32233244)"/><path d="m1203.57 896.833c-8.22 0-14.89-6.671-14.89-14.889 0-8.217 6.67-14.888 14.89-14.888.78 0 1.42-.641 1.42-1.43s-.64-1.43-1.42-1.43c-9.8 0-17.75 7.953-17.75 17.748 0 9.796 7.95 17.749 17.75 17.749.78 0 1.42-.641 1.42-1.43s-.64-1.43-1.42-1.43z" fill="#fda92f" transform="matrix(.78125591544 .72537095631 -.7253728686 .7812535995 807.21908454 -542.32233244)"/><path d="m1195.38 903.115.22-5.792c.03-.841.74-1.497 1.58-1.464.85.032 1.5.741 1.47 1.582l-.23 5.935c-1.03-.024-2.05-.112-3.04-.261zm8.87-.308-1.49-5.917c-.2-.816.29-1.645 1.11-1.85.81-.205 1.64.291 1.85 1.106l1.46 5.812c-.95.343-1.93.627-2.93.849zm-25.41-10.2 4.56-3.601c.66-.522 1.62-.409 2.14.251s.41 1.619-.25 2.141l-4.6 3.632c-.66-.767-1.28-1.576-1.85-2.423zm-3.08-6.547 5.7-3.089c.74-.401 1.67-.126 2.07.614.4.739.12 1.665-.62 2.066l-6.08 3.299c-.42-.934-.77-1.899-1.07-2.89zm47.18-3.323-5.5-.255c-.84-.039-1.49-.753-1.45-1.593.04-.841.75-1.491 1.59-1.453l5.62.261c-.02 1.03-.11 2.044-.26 3.04zm-7.01-20.877c.73.713 1.41 1.471 2.05 2.271l-4.47 4.59c-.59.603-1.55.617-2.15.03-.61-.587-.62-1.553-.03-2.156zm-29.01-3.702 3.96 5.914c.47.699.28 1.646-.42 2.115-.7.468-1.65.281-2.11-.418l-3.97-5.926c.8-.613 1.65-1.176 2.54-1.685zm14.17-3.13c1.02.088 2.03.24 3.02.453l-.6 6.052c-.09.838-.84 1.45-1.67 1.366-.84-.083-1.45-.83-1.37-1.667z" fill="#fda92f" transform="matrix(.7328318248 .6804107477 -.680413665 .7328308625 827.38205088 -440.88116838)"/><circle cx="1494.85" cy="372.517" fill="#ffcf84" r="157.821" transform="matrix(.15078066588 -.02866305383 .028663 .15078 1002.3842124552 1007.6083198574)"/><path d="m1203.57 867.056c8.21 0 14.88 6.671 14.88 14.888 0 8.218-6.67 14.889-14.88 14.889-.79 0-1.44.641-1.44 1.43s.65 1.43 1.44 1.43c9.79 0 17.74-7.953 17.74-17.749 0-9.795-7.95-17.748-17.74-17.748-.79 0-1.44.641-1.44 1.43s.65 1.43 1.44 1.43z" fill="#fda92f" transform="matrix(1.04732345718 -.19909375286 .19909377126 1.0473208956 -197.26822833 337.247420942)"/><path d="m1203.57 896.833c-8.22 0-14.89-6.671-14.89-14.889 0-8.217 6.67-14.888 14.89-14.888.78 0 1.42-.641 1.42-1.43s-.64-1.43-1.42-1.43c-9.8 0-17.75 7.953-17.75 17.748 0 9.796 7.95 17.749 17.75 17.749.78 0 1.42-.641 1.42-1.43s-.64-1.43-1.42-1.43z" fill="#fda92f" transform="matrix(1.04732345718 -.19909375286 .19909377126 1.0473208956 -197.26822833 337.247420942)"/><path d="m1195.38 903.115.22-5.792c.03-.841.74-1.497 1.58-1.464.85.032 1.5.741 1.47 1.582l-.23 5.935c-1.03-.024-2.05-.112-3.04-.261zm8.87-.308-1.49-5.917c-.2-.816.29-1.645 1.11-1.85.81-.205 1.64.291 1.85 1.106l1.46 5.812c-.95.343-1.93.627-2.93.849zm-25.41-10.2 4.56-3.601c.66-.522 1.62-.409 2.14.251s.41 1.619-.25 2.141l-4.6 3.632c-.66-.767-1.28-1.576-1.85-2.423zm-3.08-6.547 5.7-3.089c.74-.401 1.67-.126 2.07.614.4.739.12 1.665-.62 2.066l-6.08 3.299c-.42-.934-.77-1.899-1.07-2.89zm47.18-3.323-5.5-.255c-.84-.039-1.49-.753-1.45-1.593.04-.841.75-1.491 1.59-1.453l5.62.261c-.02 1.03-.11 2.044-.26 3.04zm-7.01-20.877c.73.713 1.41 1.471 2.05 2.271l-4.47 4.59c-.59.603-1.55.617-2.15.03-.61-.587-.62-1.553-.03-2.156zm-29.01-3.702 3.96 5.914c.47.699.28 1.646-.42 2.115-.7.468-1.65.281-2.11-.418l-3.97-5.926c.8-.613 1.65-1.176 2.54-1.685zm14.17-3.13c1.02.088 2.03.24 3.02.453l-.6 6.052c-.09.838-.84 1.45-1.67 1.366-.84-.083-1.45-.83-1.37-1.667z" fill="#fda92f" transform="matrix(.9824078706 -.18675345086 .1867537765 .98240709 -103.62360004 381.151472084)"/><g transform="translate(5.21737 -5.81481)"><path d="m1173.41 1048.87-117.34 204.33h-48.26s-14.829 31.68 7.64 43.28h221.35c.23 0 .45.02.68.05 4.41.32 29.6-.4 49.53-52.04 32.38-83.88 65.2-132.27 98.35-195.62z" fill="#e9e9eb"/><ellipse cx="1144.86" cy="1200.21" fill="#fff" rx="37.235" ry="35.603" transform="matrix(.93449 .13298 -.313392 .955354 442.97 -95.9341)"/><g fill="#babdc2"><path d="m1179.39 1059.64h177.381v12.168h-177.381z" transform="matrix(1.02716 .0108992 -.640974 1.16934 644.813 -194.141)"/><path d="m1179.39 1059.64h177.381v12.168h-177.381z" transform="matrix(1.03199 .00927035 -.639149 1.17041 624.093 -166.819)"/><path d="m1179.39 1059.64h177.381v12.168h-177.381z" transform="matrix(1.03531 .026932 -.65816 1.15904 625.602 -150.226)"/><path d="m1179.39 1059.64h177.381v12.168h-177.381z" transform="matrix(1.0299 .0446274 -.676583 1.14736 637.838 -133.605)"/><path d="m1179.39 1059.64h177.381v12.168h-177.381z" transform="matrix(.549765 .0277179 -.562031 1.11902 1148.2 -51.3241)"/><path d="m1179.39 1059.64h177.381v12.168h-177.381z" transform="matrix(.371267 .0223134 -.468608 1.12431 1275.26 -20.7622)"/><path d="m1179.39 1059.64h177.381v12.168h-177.381z" transform="matrix(.492546 .036704 -.392064 1.1297 1016.41 -16.9977)"/></g><path d="m1060.46 1245.55h158.11c.18 0 .36.02.54.04 1.7.23 3.13 1.16 3.79 3.32.32 1.04.35 3.11-.06 5.91-1.45 10.03-7.92 35.34 17.98 41.61-1.53.17-2.68.14-3.34.1-.23-.03-.45-.05-.68-.05h-13.53c-.88-.78-1.69-1.6-2.44-2.45-9.12-10.36-8.14-25.36-6.66-35.41.25-1.73.5-3.6.69-5.07l-158.79-.35z"/><path d="m.084-.173c.057.047.124.07.202.071.093-.001.139-.034.141-.099 0-.053-.031-.085-.093-.096-.029-.004-.06-.008-.094-.013-.061-.01-.108-.033-.14-.068-.033-.036-.049-.08-.049-.132 0-.062.02-.112.062-.15.04-.038.097-.057.17-.058.089.002.166.027.231.074l-.06.089c-.053-.035-.112-.054-.176-.055-.033 0-.061.008-.083.025-.023.017-.035.043-.036.077 0 .021.008.039.024.056s.042.028.077.035c.019.003.046.007.08.011.067.009.116.033.148.072.031.038.047.082.047.133-.003.136-.087.205-.25.207-.105 0-.196-.033-.272-.098z" fill-rule="nonzero" transform="matrix(64.771367483 12.587194024 -20.498294502 60.01574226 1111.563258856 1218.951918664)"/><path d="m1135.29 271.097 43.3 160.334 15.5-3.806-43.69-161.731z" transform="matrix(.29165118217 .17440480535 -.22344693493 .2806002777 875.4188208462 899.8226837797)"/></g><path d="m1644.95 1155.83c-2.61-2.86-6.09-4.45-8.92-2.59-9.94 6.53-16.72 13.5-26.47 20.29-30.14 21-72.42 26.85-91.11 61.3-18.95 34.9-19.91 77.67-36.77 113.94-22.71 48.88-55.22 92.25-79.3 140.41-29.82 59.61-76.26 190.33-76.26 190.33-15-.22-88.97 9.43-133.94 16.37-1.71.26-2.92 1.8-2.79 3.52.13 1.73 1.57 3.06 3.3 3.06h489.21c3.69 0 7.1-1.97 8.95-5.16s1.87-7.13.03-10.33c-9.26-16.19-25.29-25.68-43.14-30.1-13.73-3.4-26.98-1.73-40.81-.56-.52.04-1.18.13-1.58-.28-.1-.1-.24-.28-.3-.4-3.67-7.62-1.71-50.88-1.59-60.61.51-40.54 2.32-81.2 5.8-121.6 1.12-12.97 3.44-50.26 3.44-50.26s31.18-4.29 40.13-6.32c22.04-4.98 40.04-19.25 52.64-37.81 18.69-27.53 19.9-64.92 28.36-96.24 7.07-26.22 20.3-46.65 31.61-70.7 5.87-12.48 3.8-30.92-9.77-37.63-13.27-6.57-27.18 7.16-35.53 15.94-26.57 27.98-27.93 66.48-50.63 94.23-16.1 19.67-48.58 23.28-48.58 23.28s-1-23.99 0-30.65c5.01-33.33 23.8-54.52 31.45-85.19 2.21-8.88.96-27.08-7.43-36.24z" fill="#dd6140"/><path d="m1570.1 1436.99c14.46-7.39 42.6-13.83 42.6-13.83s-.74 11.94-1.59 24.65c-10.85-3.93-24.45-5.09-39.47-4.84-1.46.02-2.75-.97-3.11-2.38-.37-1.42.28-2.91 1.57-3.6z"/><path d="m1584.44 1200.41 6.42 4.73c1.78 1.31 4.29.93 5.6-.85 1.31-1.77.93-4.28-.85-5.59l-6.42-4.73c-1.78-1.31-4.28-.93-5.59.84-1.31 1.78-.94 4.29.84 5.6z"/><path d="m1604.5 1654.08c-.27-.42-.46-.89-.57-1.41-8.32-42.3-19.46-71.25-32.07-90.46-12.09-18.42-25.44-27.65-38.8-30.93-26.95-6.63-53.46 10.55-68.21 22.56-6.72 5.46-11.8 10.8-11.8 10.8-.77.95-1.97 1.53-3.29 1.47-2.2-.11-3.91-1.99-3.8-4.19 0-.06-.09-1.27 1.17-2.66.85-.93 5.45-5.75 12.67-11.63 16.2-13.2 45.55-31.4 75.17-24.12 14.93 3.67 30.06 13.71 43.58 34.31 8.99 13.69 17.31 32.14 24.43 56.63-.29 14.75-.32 32.87 1.52 39.63zm-69.46-433.52s-12.96 32.56-20.95 52.66c-4.79 12.02.21 25.72 11.6 31.85 5.19 2.81 10.45 4.89 15.77 6.2 7.22 1.8 14.87.16 20.73-4.42 5.87-4.59 9.29-11.62 9.29-19.07 0-25.21 0-65.75 0-65.75 0-2.2-1.79-4-4-4-2.2 0-4 1.8-4 4v65.75c0 4.99-2.29 9.69-6.22 12.76-3.92 3.08-9.04 4.17-13.88 2.97-4.69-1.16-9.31-3-13.89-5.48-7.83-4.21-11.25-13.61-7.97-21.85 8-20.1 20.96-52.67 20.96-52.67.81-2.05-.19-4.38-2.24-5.19-2.06-.82-4.38.18-5.2 2.24zm85.63 79.36c.12 4.59.26 7.99.26 7.99s.64-.07 1.79-.24c-4.94 1.01-9.51 1.44-13.8 1.4-2.21-.02-3.98-1.83-3.96-4.03.02-2.21 1.82-3.99 4.03-3.97 3.64.03 7.51-.33 11.68-1.15zm143.42-118c1.49 2.25 2.59 4.77 3.32 7.42-15.19 11-26.55 27.75-27.09 28.74-1.05 1.94-3.48 2.66-5.42 1.61s-2.66-3.48-1.61-5.42c.6-1.12 13.59-20.29 30.8-32.35zm-14.81-9.16c2.13.12 4.27.65 6.39 1.7.88.43 1.71.92 2.5 1.45-6.46 4.92-19.59 16.12-33.06 34.68-1.29 1.78-3.8 2.18-5.58.88-1.79-1.29-2.19-3.8-.89-5.58 11.66-16.07 23.11-26.89 30.64-33.13zm-126.53-9.49c4.15-3.4 8.32-6.77 13.28-10.03 2.83-1.86 6.31-.27 8.92 2.59 1.98 2.16 3.56 4.82 4.8 7.75-11.36 11.79-23.91 2.35-27-.31z"/></g></svg>