<svg clip-rule="evenodd" fill-rule="evenodd" stroke-linejoin="round" stroke-miterlimit="2" viewBox="0 0 2732 2048" xmlns="http://www.w3.org/2000/svg" xmlns:xlink="http://www.w3.org/1999/xlink"><linearGradient id="a" gradientTransform="matrix(432.261 333.876 -339.612 424.961 1800.34 1289.08)" gradientUnits="userSpaceOnUse" x1="0" x2="1" y1="0" y2="0"><stop offset="0" stop-color="#82b5b2"/><stop offset=".57" stop-color="#9ac1bb"/><stop offset=".8" stop-color="#ced9cf"/><stop offset="1" stop-color="#fff1e2"/></linearGradient><linearGradient id="b" gradientTransform="matrix(-388.509 97.5106 -99.1858 -381.947 852.592 1342.73)" gradientUnits="userSpaceOnUse" x1="0" x2="1" y1="0" y2="0"><stop offset="0" stop-color="#fb2"/><stop offset=".47" stop-color="#feb019"/><stop offset="1" stop-color="#fd9500"/></linearGradient><g transform="matrix(1.31196 0 0 1.3345 -350.71 -290.265)"><path d="m1396.99 1075.97h576.314v458.69h-576.314z" fill="#ffafa4"/><path d="m1563.44 1286.35h-90.24v192.65h90.24zm353.99 9.14h-90.24v183.51h90.24zm-117.99-51.4h-90.25v234.91h90.25zm-118-65.78h-90.25v300.69h90.25zm210.6 86.96h-40.63v21.82h40.63zm-355.14-8.48h-40.63v21.81h40.63zm237.73-40.84h-40.63v21.82h40.63zm-119.46-67.29h-40.62v21.82h40.62z" fill="#fff1e2"/><path d="m1733.51 1444.23 177.33-188.5c2.53-2.69 6.78-2.82 9.48-.29 2.69 2.54 2.82 6.79.29 9.48l-182.85 194.37c-1.37 1.45-3.31 2.22-5.29 2.1-1.99-.12-3.83-1.12-5-2.73l-127.06-173.17-135.65 180.36c-2.23 2.96-6.43 3.56-9.39 1.33-2.96-2.22-3.56-6.43-1.33-9.39l141.07-187.58c1.28-1.7 3.28-2.69 5.4-2.68s4.11 1.03 5.37 2.74z" fill="#dc5d3c"/><path d="m1820.3 573.019c-.92-2.588-1.42-5.375-1.42-8.278 0-13.606 11.04-24.652 24.65-24.652 13.6 0 24.65 11.046 24.65 24.652 0 13.605-11.05 24.652-24.65 24.652-3.31 0-6.46-.653-9.35-1.835l-246.72 288.487c1.58 3.251 2.47 6.901 2.47 10.757 0 13.606-11.05 24.652-24.65 24.652-13.61 0-24.65-11.046-24.65-24.652 0-.673.02-1.34.08-2l-23.5-16.308c-4.18 3.244-9.42 5.177-15.11 5.177-2.76 0-5.41-.453-7.88-1.287l-249.24 328.466c.76 2.38 1.17 4.91 1.17 7.54 0 13.6-11.04 24.65-24.65 24.65s-24.65-11.05-24.65-24.65c0-1.33.1-2.63.3-3.89l-153.63-153.98c-3.43 1.81-7.34 2.84-11.49 2.84-2.48 0-4.88-.37-7.14-1.06l-267.539 416.5c2.183 3.68 3.437 7.97 3.437 12.56 0 13.6-11.046 24.65-24.652 24.65s-24.652-11.05-24.652-24.65c0-13.61 11.046-24.66 24.652-24.66 1.678 0 3.316.17 4.901.49l268.603-418.16c-1.45-3.14-2.26-6.64-2.26-10.32 0-13.61 11.05-24.66 24.65-24.66 13.61 0 24.66 11.05 24.66 24.66 0 2.05-.26 4.05-.73 5.96l152.47 152.82c3.79-2.38 8.27-3.75 13.07-3.75 3.49 0 6.81.72 9.82 2.03l248.13-327.006c-1.29-2.988-2.01-6.284-2.01-9.745 0-13.606 11.05-24.652 24.66-24.652 13.6 0 24.65 11.046 24.65 24.652 0 .575-.02 1.146-.06 1.712l23.69 16.437c4.14-3.148 9.3-5.018 14.9-5.018 2.4 0 4.72.344 6.91.983z" fill="#ffafa4" transform="matrix(.762218 0 0 .749345 259.14 217.392)"/><path d="m673.026 489.679h597.124v443.446h-597.124z" fill="#fff1e2"/><path d="m792.835 564.618h-40.63v325.315h40.63zm80.617-29.037h-40.629v354.18h40.629zm80.618 74.328h-40.629v279.664h40.629zm80.62-46.14h-40.632v325.6h40.632zm80.62 90.467h-40.63v234.911h40.63zm80.61 65.66h-40.63v169.009h40.63z" fill="#ffafa4" fill-opacity=".64"/><path d="m1236 1329.01v-89.36h136.92v-61.16l176.81 105.84-176.81 105.84v-61.16z" fill="#e5734e" transform="matrix(0 -.775243 .908422 0 148.671 2354.33)"/><path d="m1236 1329.01v-89.36h136.92v-61.16l176.81 105.84-176.81 105.84v-61.16z" fill="#ffb000" transform="matrix(0 .775243 -.908422 0 3003.24 -447.894)"/><circle cx="1593.84225" cy="1003.19985" fill="#ffcd80" r="135.295"/><g fill="#fda31f" transform="matrix(.9933853289 -.35419172656 .26312632779 .73797837286 -502.506729446 814.444968828)"><path d="m1813.36 1001.02h-5.01v-9.36h8.74c2.07 0 3.74 2.096 3.74 4.68v15.83c7.65.43 14.99 1.97 22.01 4.61 8.97 3.37 17.43 8.54 25.37 15.5.9.78 1.47 2.02 1.58 3.38.1 1.36-.27 2.71-1.03 3.7l-16.84 21.94c-1.27 1.65-3.3 1.91-4.81.61-7.83-6.73-16.59-10.83-26.28-12.31v52.75c36.09 9.58 53.43 31.23 52.94 63.63-.21 17.6-5.44 32.18-15.63 43.69-9.31 10.9-21.73 17.92-37.31 20.91v27.2c0 2.58-1.67 4.67-3.74 4.67h-8.58v-9.35h4.85v-26.61c0-2.37 1.41-4.36 3.29-4.64 15.33-2.32 27.48-8.59 36.44-19.07 8.64-9.76 13.03-22.08 13.21-36.96.44-29.15-16.53-47.03-49.91-55.04-1.76-.43-3.03-2.36-3.03-4.6v-61.72c0-1.29.43-2.52 1.18-3.41.75-.88 1.76-1.34 2.79-1.25 11.57.91 22.02 4.99 31.34 12.22l11.6-15.11c-6.2-4.86-12.72-8.59-19.58-11.16-7.49-2.82-15.36-4.26-23.63-4.35-2.05-.02-3.7-2.11-3.7-4.68zm7.47 191.71c5.43-2.06 9.4-4.96 11.79-8.91 1.49-2.55 2.58-5.42 3.27-8.6l7.21 2.49c-.95 4.3-2.44 8.18-4.49 11.7-3.92 6.47-10.77 11.27-20.74 13.92-1.1.29-2.25-.05-3.13-.94-.87-.89-1.38-2.23-1.38-3.64v-33.08h7.47zm-40.88-132.35c1.31-4.23 3.02-7.75 5.09-10.58.05-.07.11-.14.16-.21 4.67-5.65 10.22-8.91 16.63-9.78 1.05-.14 2.11.29 2.9 1.17.79.89 1.24 2.16 1.24 3.48v27.09h-7.47v-21.36c-2.98 1.18-5.65 3.19-8.02 6.03-1.47 2.04-2.65 4.59-3.59 7.62-.02.08-.05.16-.08.24-1.13 3.14-1.65 6.95-1.65 11.38h-7.47c0-5.87.78-10.89 2.26-15.08z"/><path d="m1783.26 1095.07c-3.68-5.26-5.57-11.78-5.57-19.61h7.47c0 5.37 1.21 9.87 3.74 13.47l.09.13c1.98 3.04 5.17 5.44 9.51 7.4v-24.91h7.47v31.23c0 1.45-.54 2.82-1.46 3.71-.91.88-2.11 1.19-3.23.82-8.66-2.86-14.61-7.07-18.02-12.24z"/><path d="m1820.83 1143.28v22.39h-7.47v-28.07c0-1.37.48-2.67 1.31-3.56.84-.89 1.94-1.28 3.02-1.06 10.43 2.13 17.39 6.34 21.11 11.97l.08.14c3.62 5.92 5.45 12.76 5.45 20.54 0 4.35-.42 8.38-1.23 12.08l-7.21-2.49c.65-2.94.97-6.14.97-9.59 0-5.59-1.28-10.51-3.86-14.77-2.34-3.5-6.43-5.92-12.17-7.58z"/><path d="m1798.5 1137.85c-34.7-9.67-51.18-30.75-50.39-61.92.3-18.79 5.11-33.48 14.2-44.18 8.32-9.79 20.35-16.26 36.19-19.14v-16.27c0-2.584 1.67-4.68 3.73-4.68h6.12v9.36h-2.38v15.7c0 2.38-1.42 4.38-3.31 4.65-15.55 2.27-27.33 7.89-35.24 17.2-7.7 9.07-11.58 21.62-11.84 37.61-.71 27.92 15.43 45.22 47.39 53.3 1.74.44 3 2.36 3 4.58v64.69c0 1.32-.45 2.57-1.22 3.46-.78.89-1.82 1.32-2.87 1.2-9.35-1.1-17.27-3.72-23.75-7.79-5.7-3.2-10.8-7.17-15.31-11.92l-14.31 15.1c6.91 6.14 14.57 11.32 22.95 15.55 9.78 4.8 20.05 7.28 30.82 7.46 2.05.04 3.69 2.12 3.69 4.68v26.61h2.54v9.35h-6.28c-2.06 0-3.73-2.09-3.73-4.67v-26.76c-10.36-.64-20.28-3.3-29.79-7.97-10.63-5.36-20.12-12.14-28.51-20.33-.88-.86-1.41-2.19-1.43-3.6-.03-1.41.46-2.76 1.32-3.67l20.39-21.51c1.44-1.53 3.58-1.46 4.96.17 4.51 5.31 9.79 9.64 15.81 13.01l.16.09c4.8 3.03 10.5 5.11 17.09 6.28z"/></g><path d="m1622.38 1155.44c-10.05 2.07-20.47 3.16-31.13 3.16-8.84 0-16-7.17-16-16s7.16-16 16-16c67.19 0 121.74-54.55 121.74-121.74 0-67.192-54.55-121.742-121.74-121.742-8.84 0-16-7.169-16-16 0-8.83 7.16-16 16-16 84.85 0 153.74 68.889 153.74 153.742 0 62.89-37.85 117.01-91.99 140.81l100.3 236.6c3.45 8.13-.35 17.53-8.48 20.97-8.13 3.45-17.53-.35-20.98-8.48z" fill="#dc5d3c"/><path d="m1611.56 1133.94c-67.19 0-121.74-54.55-121.74-121.74 0-67.188 54.55-121.738 121.74-121.738 8.83 0 16-7.17 16-16 0-8.831-7.17-16-16-16-84.85 0-153.74 68.888-153.74 153.738s68.89 153.74 153.74 153.74c8.83 0 16-7.17 16-16s-7.17-16-16-16z" fill="#dc5d3c" transform="translate(-20.3138 -7.3432)"/><path d="m1806.68 1207.57s-8.61-32.34-5.76-73.57c4.02-57.99 41.13-108.45 95.29-129.57 54.15-21.115 115.63-9.097 157.84 30.86 9.75 9.27 18.64 20.16 26.12 32.97 36.76 63 48.68 132.45 17.72 201.07 0 0 19.95 131.03-8.79 225.48-14.5 47.44-55.64 81.84-104.89 87.72-1.66.22-3.33.41-5.02.61-44.98 5.37-89.1-15.24-113.86-53.17-48.21-73.86-122.36-187.46-122.36-187.46s-41.96 3.65-58.17 5.06c-5.8.52-10.99-3.57-11.84-9.33-.47-3.45.61-7.25 5.54-10.47 0 0-5.21-.04-9.29-1.03-6.44-1.55-9.02-7.06-9.3-12.96-.26-5.55 1.38-11.96 8.93-15.72-9.51 1.79-18.73-4.28-20.83-13.72-.09-.38-.17-.74-.24-1.08-.77-3.43-.28-7.02 1.37-10.12 1.56-2.95 4.25-6.18 8.85-8.13 0 0-4.48-1.39-9.32-2.89-6.99-2.17-11.76-8.63-11.76-15.95v-.01c0-6.49 3.92-12.35 9.93-14.83 13.05-5.41 34.37-14.23 34.37-14.23s-27.46-35.02-16.04-45.31c2.03-1.83 6.56-2.89 19.88 8.45 5.03 4.28 24.56 9.75 49.27 6.36 0 0 32.33-.2 72.36 20.97zm29.72-376.836c42.01 0 76.12 34.109 76.12 76.123 0 42.013-34.11 76.123-76.12 76.123-42.02 0-76.13-34.11-76.13-76.123 0-42.014 34.11-76.123 76.13-76.123z" fill="#a8cfcc"/><path d="m1740.39 1342.74 16.68-1.88c2.19-.25 4.17 1.33 4.42 3.53.25 2.19-1.33 4.17-3.53 4.42l-10.14 1.14-4.85-7.44zm-78.44-21.34 48.19-4.45c2.2-.21 4.15 1.41 4.35 3.61.21 2.2-1.41 4.15-3.61 4.35l-32.61 3.01c.07-.05.15-.1.23-.15 0 0-5.21-.04-9.29-1.03-3.45-.83-5.79-2.79-7.26-5.34zm-8.64-27.82c.36-.21.77-.37 1.2-.47l44.64-9.62c2.15-.47 4.28.91 4.75 3.07.46 2.15-.91 4.28-3.07 4.75l-32.49 7.01c.16-.09.33-.18.5-.26-5.8 1.09-11.49-.74-15.53-4.48zm-8.07-32.96 47.62-14.67c2.11-.65 4.35.53 5 2.64s-.54 4.35-2.65 5l-37.61 11.59c.13-.06.26-.12.39-.17 0 0-4.48-1.39-9.32-2.89-1.21-.38-2.36-.88-3.43-1.5zm31.14-50.19 16.66-6.89c2.04-.85 4.38.12 5.23 2.16.84 2.05-.13 4.39-2.17 5.23l-14.9 6.16c-.13-.17-2.15-2.76-4.82-6.66z" fill="#82b5b2"/><path d="m1806.31 1206.06c-1.63-6.82-7.88-36.05-5.39-72.06 4.02-57.99 41.13-108.45 95.29-129.57 54.15-21.115 115.63-9.097 157.84 30.86 9.75 9.27 18.64 20.16 26.12 32.97 36.76 63 48.68 132.45 17.72 201.07 0 0 19.95 131.03-8.79 225.48-14.5 47.44-55.64 81.84-104.89 87.72-1.66.22-3.33.41-5.02.61-44.98 5.37-89.1-15.24-113.86-53.17l-33.01-50.57 112.23-131.16c-58.67-91.33-122.57-132.89-138.24-142.18z" fill="url(#a)"/><path d="m1944.12 1347.58c.2.19.39.42.55.66l72.49 109.42c1.22 1.85.72 4.33-1.12 5.55s-4.32.71-5.54-1.13l-71.29-107.6 5.34-6.24zm154.47-73.19.18 1.42-.22.46s-16.01-89.13-38.98-157.27c-.55-1.41.09-3 1.45-3.64 1.36-.65 2.99-.13 3.74 1.18 12.23 23.75 29 59.3 47.59 107.14-.27 1.42-.55 2.84-.85 4.25l-.01.05-.14.66-.01.06-.15.67-.01.04c-.3 1.41-.63 2.82-.97 4.22l-.01.05-.16.64-.02.1-.15.62-.04.12-.15.61-.03.11-.16.63-.01.04c-.24.92-.49 1.84-.74 2.77l-.02.06-.16.59-.05.17-.15.54-.06.21-.15.53-.06.22-.15.52-.06.22-.16.53-.05.18-.17.56c-.07.24-.14.48-.22.72l-.19.62-.03.1-.15.5-.08.26-.15.46-.09.3-.14.44-.1.32-.14.43-.11.33-.14.43-.11.33-.14.42-.11.34-.14.42-.14.4-.1.32-.13.36-.13.39-.13.38-.14.39-.13.37-.14.39-.13.37-.14.4-.13.36-.15.41-.13.35-.15.43-.12.33-.19.5-.1.26-.28.75-.1.25-.19.51-.12.31-.17.45-.13.33-.17.44-.13.33-.17.44-.13.33-.18.45-.13.31-.2.49-.11.27-.26.63-.05.13-.32.76-.09.23-.23.53-.12.3-.2.47-.13.31-.2.45-.13.32-.2.46-.14.31-.2.47-.13.29-.23.52-.11.24-.34.77s.06.4.06.4l.01.13.06.37.02.18.08.53.03.2.09.71.03.21.13.9.02.18.15 1.14zm-254.39-41.1s-3.81-29.45-8.94-116c-.12-1.93 1.21-2.53 1.94-2.69 1.3-.29 2.29.55 2.41 1.29l21.45 132.1c-5.93-5.45-11.57-10.34-16.86-14.7z" fill="#28625e"/><path d="m1777.1 859.145c13.96-17.321 35.34-28.411 59.3-28.411 42.01 0 76.12 34.109 76.12 76.123 0 23.771-10.92 45.012-28.01 58.974l-26.57-26.391c2.83-.202 5.75-.952 8.58-2.298 10.01-4.766 12.58-17.297 8.73-25.386-3.86-8.088-15.11-10.786-25.11-6.02-6.49 3.092-8.46 10.665-9.68 16.34z"/><circle cx="1106.59" cy="934.14" fill="#a8cfcc" r="135.295"/><path d="m974.727 903.753c.979-.438 2.174-.692 3.619-.437 2.848.502 4.872 2.941 4.955 5.723.947 1.68 3.503 6.071 6.551 10.21 7.197 9.777 19.338 23.821 36.148 38.154 7.7-32.944 22.44-60.414 38.74-82.439-24.07-18.572-37.31-35.679-40-38.946-2.11-2.556-1.74-6.34.81-8.447 2.56-2.106 6.34-1.742 8.45.813 2.57 3.115 15.18 19.401 38.12 37.079 31.26-38.336 65.12-57.421 65.12-57.421 2.88-1.626 6.54-.605 8.17 2.28 1.63 2.884.61 6.547-2.28 8.173 0 0-31.85 17.958-61.38 54.021 22.87 15.901 53.97 31.68 93.51 39.007 4.25-28.846 2.7-55.646-.29-75.51-.49-3.275 1.77-6.333 5.04-6.827 3.28-.493 6.34 1.765 6.83 5.04 3.14 20.862 4.71 48.94.25 79.195 15.39 2.092 31.97 2.889 49.74 1.954 1.47-.077 2.83.378 3.92 1.196.38 2.91.66 5.848.86 8.811-1.03 1.141-2.49 1.89-4.15 1.976-18.72.985-36.19.136-52.42-2.087-5.81 29.267-17.61 59.906-39.27 87.569 21.78 3.16 45.6 3.35 71.38-.75-3.36 4.76-7.03 9.3-10.96 13.58-25.03 2.74-48.2 1.65-69.45-2.12-14.53 16.02-32.76 30.77-55.52 43.32-.08.05-.17.09-.26.13-2.46-.47-4.89-1.01-7.3-1.61-.22-.27-.42-.56-.59-.88-1.6-2.9-.54-6.55 2.36-8.15 18.99-10.48 34.64-22.58 47.48-35.7-35.62-8.56-65.31-24.494-88.68-41.576-2.62 19.431-2.61 40.636 1.07 63.616.32 2.02-.41 3.97-1.79 5.29-3.7-2.38-7.27-4.93-10.71-7.65-3.6-25.29-3-48.511.54-69.644-28.364-23.019-45.405-46.279-50.194-55.043-.169-.309-.325-.607-.47-.895.535-3.721 1.221-7.393 2.051-11.005zm99.623-21.725c-16.35 22.128-31.05 50.061-37.9 83.826 24.26 18.599 56.37 36.376 95.75 44.586 22.88-27.182 35.11-57.817 41-87.07-41.88-7.72-74.76-24.495-98.85-41.342zm-96.055 33.114c-.28.048-.565.075-.853.082-.288.006-.58-.008-.874-.045.626.081 1.2.06 1.727-.037z" fill="#82b5b2"/><path d="m644.761 1189.69s-198.831-157.32-60.719-343.655c14.7-19.831 103.9-135.423 230.656-213.771 4.949-3.069 11.32-2.559 15.72 1.257 2.805 2.494 4.629 6.302 2.82 12.149 0 0 19.617-4.276 18.265 14.57 0 0 22.971-6.16 23.769 17.503 0 0 37.977-46.536 54.522-66.811 4.337-5.313 11.917-6.636 17.796-3.104.001.001.001.001.002.001 2.668 1.603 4.589 4.2 5.34 7.22s.27 6.215-1.337 8.88c-70.596 116.92-145.64 224.189-220.909 330.971 0 0 62.089 62.81 94.084 85.42 12.992 9.17 142.819 90.29 161.593 134.71 0 0 1.583-10.18 3.387-21.77 3.124-20.1 17.94-36.38 37.64-41.4 13.36-3.4 25.76-6.56 25.76-6.56s22.16-3.78 41.03-3.63c12.36.09 23.28 8.04 27.18 19.76 1.79 5.41 1.04 11.34-2.06 16.12-1.75 2.71-3.3 5.09-3.3 5.09s4.45 1.51 8.58 2.91c4.4 1.49 7.95 4.78 9.78 9.05 3.56 8.32 2.03 17.95-3.94 24.76-1.86 2.13-3.24 3.7-3.24 3.7h1.35c7.04 0 13.37 4.28 16 10.82 3.61 8.98.69 19.26-7.09 25.01-1.93 1.42-3.27 2.42-3.27 2.42 2.44-.83 4.72.85 6.32 4.7 3.17 7.61.26 16.4-6.64 20.91-10.76 7.03-24.96 16.31-24.96 16.31-3.19 65.63-11.12 136.42-48.37 220.79-11.24 25.37-33.35 44.28-60.15 51.45-.02.02-.04.02-.06.03-56.1 15-114.892-12.31-139.609-64.85-11.866-25.25-24.539-56.37-35.931-93.02 0 0-47.16 6.16-94.084-17.6-56.371-28.54-112.401-93.24-85.925-170.34z" fill="url(#b)"/><path d="m559.973 1082.52c5.922-18.18 26.592-59.01 92.231-55.17 0 0 23.281-67.884 96.893-54.226 20.88 20.36 54.726 52.396 75.673 67.196 12.992 9.17 142.819 90.29 161.593 134.71l.217-1.39c12.116 35.56 34.12 111.88 23.06 194.47 0 0-43.586 29.15-85.979-7.47 0 0-40.131 53.24-98.17 19.29-.242-.77-.482-1.53-.721-2.3 0 0-47.16 6.16-94.084-17.6-56.371-28.54-112.401-93.24-85.925-170.34 0 0-52.489-41.53-84.788-107.17zm275.944-59.9 17.08 10.63c-6.16-2.81-11.896-6.39-17.08-10.63z" fill="#fd9500"/><path d="m1003.67 1348.9-9.69 109.44c-.195 2.2 1.433 4.15 3.632 4.34 2.199.2 4.138-1.43 4.338-3.63l9.68-109.44c.2-2.2-1.43-4.15-3.63-4.34-2.2-.2-4.14 1.43-4.33 3.63z" fill="#fd9500"/><path d="m795.991 1377.79c-3.409-40.04 5.695-72.6 11.782-89.2.488-1.16 1.722-1.8 2.95-1.55 1.227.25 2.109 1.33 2.107 2.58 1.179 32.55 9.748 76.4 12.51 89.83-.191-.61-.381-1.21-.57-1.82 0 0-11.495 1.5-28.779.16zm-178.946-214.32c14.475-17.96 28.785-31.55 42.107-41.84 20.515-15.85 38.686-23.87 51.498-27.97 1.482-.33 2.991.45 3.585 1.84.594 1.4.104 3.02-1.164 3.86-38.761 26.52-60.867 72.45-68.347 90.3-.733-.59-12.307-9.88-27.679-26.19z" fill="#e15d33"/><path d="m1134.25 1221.28c2.42-.76 4.66.93 6.24 4.73.09.21.17.42.25.63-7.39 4.62-23.46 13.74-38.14 15.77-2.19.3-4.21-1.23-4.51-3.41-.31-2.19 1.22-4.21 3.41-4.51 12.16-1.68 25.32-8.71 32.75-13.21zm-7.06-38.22h1.34c3.26 0 6.37.92 9.03 2.56-4.41 3.22-21.98 15.46-40.39 19.84-2.15.51-4.3-.82-4.82-2.97-.51-2.14.82-4.3 2.97-4.81 12.57-3 24.71-9.96 31.87-14.62zm-11.14-40.4 7.96 2.7c-7.33 9.47-21.08 23.55-40.23 27.39-2.16.44-4.27-.97-4.71-3.13-.43-2.17.97-4.28 3.14-4.71 15.57-3.13 27.07-13.97 33.84-22.25z" fill="#fd9500"/><path d="m1062.53 1116.29s-13.65 3.01-28.04.96c-2.19-.31-4.21 1.22-4.53 3.4-.31 2.19 1.22 4.21 3.4 4.52 15.85 2.26 30.89-1.06 30.89-1.06 2.15-.48 3.52-2.62 3.04-4.77-.47-2.16-2.61-3.52-4.76-3.05z" fill="#fd9500"/><path d="m873.062 667.876c1.253 2.506 2.07 5.731 2.21 9.867l6.037-7.398c-.117.213-.257.418-.417.613l-14.967 18.124c-1.406 1.702-3.929 1.943-5.631.537s-1.943-3.929-.537-5.631zm-23.584-17.494c1.489 2.232 2.343 5.391 2.026 9.842l-9.279 10.624c-1.452 1.663-3.981 1.834-5.644.382s-1.834-3.981-.382-5.644zm-17.211-14.776c1.632 2.401 2.336 5.652.971 10.064h.001c-5.008 4.721-10.784 10.199-10.784 10.199-1.602 1.519-4.136 1.452-5.655-.15s-1.452-4.136.15-5.655c0 0 10.228-9.698 15.317-14.458z" fill="#fd9500"/><path d="m730.686 954.9s-26.398-26.066-42.033-41.505c-1.074-1.061-1.237-2.718-.39-3.961.846-1.243 2.468-1.726 3.874-1.154 20.634 8.397 55.641 22.642 55.641 22.642z" fill="#fd9500"/><path d="m1049.64 1125.68 6.07-44.52c-9.7-3.36-19.2-7.74-28.37-13.2-7.59-4.51-10.09-14.34-5.58-21.93 4.52-7.59 14.35-10.08 21.93-5.57 57.75 34.35 132.52 15.34 166.87-42.406 34.34-57.749 15.34-132.517-42.41-166.862-7.59-4.514-10.09-14.341-5.57-21.93 4.51-7.59 14.34-10.088 21.93-5.574 72.93 43.373 96.92 137.794 53.55 210.722-32.15 54.06-92.34 81.23-151.04 74.01l-3.95 28.96c-7.24 3.43-19.24 7.87-33.43 8.3z" fill="#dc5d3c" transform="matrix(1.00000077515 0 0 1.00000077515 .00065361 -.000155)"/><path d="m1611.56 1133.94c-67.19 0-121.74-54.55-121.74-121.74 0-67.188 54.55-121.738 121.74-121.738 8.83 0 16-7.17 16-16 0-8.831-7.17-16-16-16-84.85 0-153.74 68.888-153.74 153.738s68.89 153.74 153.74 153.74c8.83 0 16-7.17 16-16s-7.17-16-16-16z" fill="#dc5d3c" transform="matrix(.859489 .511155 -.511155 .859489 238.1990257478 -757.9069000638)"/><circle cx="885.597" cy="961.656" fill="#fb2" r="78.659"/><path d="m858.246 992.726c-14.189 2.447-29.289 2.794-44.951-.061-4.09-9.515-6.357-19.999-6.357-31.009 0-43.413 35.246-78.659 78.659-78.659 34.605 0 64.021 22.394 74.531 53.463-3.296 14.791-28.047 44.333-78.891 50.355 1.645-4.207 1.779-9.319.009-14.29-3.474-9.756-12.974-15.299-21.201-12.37s-12.086 13.229-8.612 22.985c1.425 4.002 3.864 7.296 6.813 9.586z"/><circle cx="912.715987616" cy="823.8306546" r="53.644626672" stroke-width=".715949"/><path d="m1492.3 645.934c-28.95 54.853-86.58 92.261-152.88 92.261-95.38 0-172.83-77.444-172.83-172.834 0-58.047 28.68-109.448 72.66-140.756l100.17 140.756z" fill="#e5734e" transform="translate(-10.5812 7.59404)"/><path d="m1328.84 572.955-100.17-140.756c25.08-17.931 55.17-29.283 87.75-31.583z" fill="#fb2"/><path d="m1320.92 400.322 7.92-.2c48.59 0 92.53 20.095 123.92 52.456l-123.92 120.377-12.42-172.339 2.34-.179z" fill="#a8cfcc"/><path d="m1452.76 452.578c30.28 31.1 48.92 73.579 48.92 120.377 0 29.094-7.21 56.519-19.96 80.573l-152.88-80.573z" fill="#ffcbc4" transform="translate(46.71 -10.1252)"/></g></svg>